{"glyphs":{"0":{"ha":899,"x_min":118,"x_max":781,"o":"m 451 -19 q 281 23 357 -19 q 162 138 206 65 q 118 301 118 211 l 118 669 q 162 833 118 760 q 281 948 206 906 q 451 990 357 990 q 619 948 544 990 q 737 833 693 906 q 781 669 781 760 l 781 301 q 737 138 781 211 q 619 23 693 65 q 451 -19 544 -19 m 451 13 q 599 49 532 13 q 706 149 665 86 q 746 288 746 211 l 746 683 q 706 822 746 760 q 599 922 665 885 q 451 958 532 958 q 301 922 369 958 q 193 822 233 885 q 153 683 153 760 l 153 288 q 193 149 153 211 q 301 49 233 86 q 451 13 369 13 z "},"1":{"ha":590,"x_min":83,"x_max":528,"o":"m 85 0 l 85 32 l 300 32 l 300 940 l 83 940 l 83 972 l 335 972 l 335 32 l 528 32 l 528 0 l 85 0 z "},"2":{"ha":749,"x_min":68,"x_max":672,"o":"m 206 0 q 130 17 161 0 q 83 61 99 33 q 68 121 68 89 q 85 185 68 153 q 136 243 101 218 l 479 486 q 586 599 550 536 q 622 722 622 661 q 592 830 622 781 q 501 910 561 879 q 350 940 440 940 l 110 940 l 110 972 l 351 972 q 521 938 453 972 q 623 846 589 903 q 657 724 657 789 q 618 586 657 656 q 503 463 579 517 l 161 219 q 118 173 132 199 q 104 122 104 147 q 133 59 104 86 q 214 32 161 32 l 672 32 l 672 0 l 206 0 z "},"3":{"ha":739,"x_min":83,"x_max":656,"o":"m 83 0 l 83 32 l 399 32 q 522 65 472 32 q 596 149 571 97 q 621 256 621 200 q 594 367 621 314 q 515 453 568 419 q 382 486 463 486 l 139 486 l 139 518 l 392 518 q 520 549 469 518 q 597 628 571 579 q 622 729 622 676 q 597 830 622 782 q 519 909 571 878 q 392 940 468 940 l 83 940 l 83 972 l 404 972 q 541 937 485 972 q 626 847 597 901 q 656 733 656 793 q 606 582 656 643 q 468 499 557 521 q 574 447 532 485 q 635 360 615 410 q 656 257 656 310 q 628 134 656 193 q 545 38 600 75 q 410 0 490 0 l 83 0 z "},"4":{"ha":890,"x_min":83,"x_max":807,"o":"m 626 0 l 626 243 l 213 243 q 142 263 171 243 q 99 313 114 282 q 83 379 83 344 q 89 420 83 400 q 104 458 94 440 l 404 972 l 443 972 l 138 451 q 123 417 128 435 q 118 379 118 399 q 143 307 118 339 q 217 275 168 275 l 626 275 l 626 663 l 661 663 l 661 275 l 807 275 l 807 243 l 661 243 l 661 0 l 626 0 z "},"5":{"ha":783,"x_min":118,"x_max":700,"o":"m 118 0 l 118 32 l 400 32 q 547 71 488 32 q 635 170 606 110 q 664 296 664 231 q 636 415 664 358 q 553 508 608 472 q 414 543 499 543 l 133 543 l 133 972 l 638 972 l 638 940 l 168 940 l 168 575 l 421 575 q 576 535 514 575 q 669 431 638 494 q 700 296 700 367 q 667 154 700 222 q 568 43 633 86 q 404 0 503 0 l 118 0 z "},"6":{"ha":839,"x_min":83,"x_max":756,"o":"m 422 -19 q 260 16 338 -19 q 133 122 182 51 q 83 297 83 193 q 121 463 83 382 q 225 646 158 544 l 443 971 l 479 971 l 167 500 q 288 585 218 557 q 429 613 357 613 q 610 567 538 613 q 719 449 683 521 q 756 297 756 376 q 707 121 756 192 q 582 15 658 50 q 422 -19 506 -19 m 422 11 q 566 43 497 11 q 678 140 635 75 q 721 301 721 204 q 688 436 721 372 q 591 541 656 500 q 428 582 526 582 q 281 549 353 582 q 164 453 210 517 q 118 297 118 390 q 163 139 118 203 q 277 43 207 75 q 422 11 347 11 z "},"7":{"ha":699,"x_min":35,"x_max":626,"o":"m 178 0 l 568 806 q 590 881 590 847 q 572 924 590 907 q 506 940 553 940 l 35 940 l 35 972 l 514 972 q 581 960 557 972 q 616 926 606 947 q 626 882 626 906 q 622 845 626 864 q 608 810 617 826 l 217 0 l 178 0 z "},"8":{"ha":869,"x_min":83,"x_max":786,"o":"m 435 -18 q 235 22 313 -18 q 120 127 157 63 q 83 263 83 192 q 102 363 83 314 q 166 453 121 413 q 290 518 211 494 q 154 608 194 549 q 114 732 114 668 q 148 855 114 796 q 253 951 182 914 q 435 989 325 989 q 617 951 546 989 q 722 855 688 914 q 756 732 756 796 q 715 608 756 668 q 579 518 675 549 q 703 453 658 494 q 767 363 749 413 q 786 263 786 314 q 749 127 786 192 q 635 22 713 63 q 435 -18 557 -18 m 435 14 q 615 51 544 14 q 718 144 685 88 q 751 261 751 201 q 673 433 751 365 q 435 501 594 501 q 197 433 275 501 q 118 261 118 365 q 151 144 118 201 q 255 51 185 88 q 435 14 325 14 m 435 533 q 649 589 578 533 q 721 744 721 644 q 690 847 721 799 q 595 926 658 896 q 435 957 532 957 q 275 926 339 957 q 180 847 211 896 q 149 744 149 799 q 220 589 149 644 q 435 533 292 533 z "},"9":{"ha":839,"x_min":83,"x_max":756,"o":"m 347 0 l 672 489 q 553 402 621 428 q 414 376 486 376 q 231 420 304 376 q 120 533 157 464 q 83 676 83 601 q 121 826 83 754 q 233 944 158 899 q 417 990 307 990 q 579 955 501 990 q 706 849 657 919 q 756 674 756 779 q 739 567 756 618 q 691 463 722 517 q 614 343 660 410 l 383 0 l 347 0 m 415 407 q 561 439 492 407 q 676 531 631 471 q 721 674 721 590 q 676 832 721 768 q 563 928 632 896 q 417 960 493 960 q 251 919 318 960 q 151 813 185 878 q 118 679 118 749 q 150 547 118 610 q 248 446 182 485 q 415 407 314 407 z "},"A":{"ha":910,"x_min":7,"x_max":903,"o":"m 7 0 l 360 903 q 400 971 379 951 q 453 990 421 990 q 508 971 486 990 q 547 904 529 951 l 903 0 l 865 0 l 749 294 l 160 294 l 44 0 l 7 0 m 172 326 l 736 326 l 514 892 q 489 940 501 922 q 453 958 476 958 q 417 941 429 958 q 393 892 406 924 l 172 326 z "},"Á":{"ha":910,"x_min":7,"x_max":903,"o":"m 7 0 l 360 903 q 400 971 379 951 q 453 990 421 990 q 508 971 486 990 q 547 904 529 951 l 903 0 l 865 0 l 749 294 l 160 294 l 44 0 l 7 0 m 172 326 l 736 326 l 514 892 q 489 940 501 922 q 453 958 476 958 q 417 941 429 958 q 393 892 406 924 l 172 326 m 456 1051 l 600 1222 l 639 1222 l 494 1051 l 456 1051 z "},"Ă":{"ha":910,"x_min":7,"x_max":903,"o":"m 7 0 l 360 903 q 400 971 379 951 q 453 990 421 990 q 508 971 486 990 q 547 904 529 951 l 903 0 l 865 0 l 749 294 l 160 294 l 44 0 l 7 0 m 172 326 l 736 326 l 514 892 q 489 940 501 922 q 453 958 476 958 q 417 941 429 958 q 393 892 406 924 l 172 326 m 461 1058 q 382 1078 417 1058 q 328 1135 347 1097 q 310 1224 310 1172 l 343 1224 q 376 1122 343 1158 q 461 1085 408 1085 q 546 1122 514 1085 q 578 1224 578 1158 l 611 1224 q 592 1135 611 1172 q 540 1078 574 1097 q 461 1058 506 1058 z "},"Ắ":{"ha":910,"x_min":7,"x_max":903,"o":"m 7 0 l 360 903 q 400 971 379 951 q 453 990 421 990 q 508 971 486 990 q 547 904 529 951 l 903 0 l 865 0 l 749 294 l 160 294 l 44 0 l 7 0 m 172 326 l 736 326 l 514 892 q 489 940 501 922 q 453 958 476 958 q 417 941 429 958 q 393 892 406 924 l 172 326 m 461 1058 q 382 1078 417 1058 q 328 1135 347 1097 q 310 1224 310 1172 l 343 1224 q 376 1122 343 1158 q 461 1085 408 1085 q 546 1122 514 1085 q 578 1224 578 1158 l 611 1224 q 592 1135 611 1172 q 540 1078 574 1097 q 461 1058 506 1058 m 446 1263 l 590 1433 l 629 1433 l 485 1263 l 446 1263 z "},"Ặ":{"ha":910,"x_min":7,"x_max":903,"o":"m 7 0 l 360 903 q 400 971 379 951 q 453 990 421 990 q 508 971 486 990 q 547 904 529 951 l 903 0 l 865 0 l 749 294 l 160 294 l 44 0 l 7 0 m 172 326 l 736 326 l 514 892 q 489 940 501 922 q 453 958 476 958 q 417 941 429 958 q 393 892 406 924 l 172 326 m 451 -201 q 426 -190 438 -201 q 415 -165 415 -179 q 426 -140 415 -150 q 451 -129 438 -129 q 477 -140 467 -129 q 488 -165 488 -150 q 477 -190 488 -179 q 451 -201 467 -201 m 461 1058 q 382 1078 417 1058 q 328 1135 347 1097 q 310 1224 310 1172 l 343 1224 q 376 1122 343 1158 q 461 1085 408 1085 q 546 1122 514 1085 q 578 1224 578 1158 l 611 1224 q 592 1135 611 1172 q 540 1078 574 1097 q 461 1058 506 1058 z "},"Ằ":{"ha":910,"x_min":7,"x_max":903,"o":"m 7 0 l 360 903 q 400 971 379 951 q 453 990 421 990 q 508 971 486 990 q 547 904 529 951 l 903 0 l 865 0 l 749 294 l 160 294 l 44 0 l 7 0 m 172 326 l 736 326 l 514 892 q 489 940 501 922 q 453 958 476 958 q 417 941 429 958 q 393 892 406 924 l 172 326 m 461 1058 q 382 1078 417 1058 q 328 1135 347 1097 q 310 1224 310 1172 l 343 1224 q 376 1122 343 1158 q 461 1085 408 1085 q 546 1122 514 1085 q 578 1224 578 1158 l 611 1224 q 592 1135 611 1172 q 540 1078 574 1097 q 461 1058 506 1058 m 426 1261 l 282 1432 l 321 1432 l 465 1261 l 426 1261 z "},"Ẳ":{"ha":910,"x_min":7,"x_max":903,"o":"m 7 0 l 360 903 q 400 971 379 951 q 453 990 421 990 q 508 971 486 990 q 547 904 529 951 l 903 0 l 865 0 l 749 294 l 160 294 l 44 0 l 7 0 m 172 326 l 736 326 l 514 892 q 489 940 501 922 q 453 958 476 958 q 417 941 429 958 q 393 892 406 924 l 172 326 m 461 1058 q 382 1078 417 1058 q 328 1135 347 1097 q 310 1224 310 1172 l 343 1224 q 376 1122 343 1158 q 461 1085 408 1085 q 546 1122 514 1085 q 578 1224 578 1158 l 611 1224 q 592 1135 611 1172 q 540 1078 574 1097 q 461 1058 506 1058 m 404 1264 l 404 1292 q 472 1307 435 1292 q 538 1349 510 1322 q 565 1414 565 1376 q 536 1472 564 1446 q 442 1499 508 1499 q 392 1497 415 1499 q 358 1492 368 1494 l 358 1518 q 397 1524 374 1521 q 442 1526 419 1526 q 558 1497 519 1526 q 597 1415 597 1467 q 565 1333 597 1367 q 487 1281 532 1299 q 404 1264 442 1264 z "},"Ẵ":{"ha":910,"x_min":7,"x_max":903,"o":"m 7 0 l 360 903 q 400 971 379 951 q 453 990 421 990 q 508 971 486 990 q 547 904 529 951 l 903 0 l 865 0 l 749 294 l 160 294 l 44 0 l 7 0 m 172 326 l 736 326 l 514 892 q 489 940 501 922 q 453 958 476 958 q 417 941 429 958 q 393 892 406 924 l 172 326 m 461 1058 q 382 1078 417 1058 q 328 1135 347 1097 q 310 1224 310 1172 l 343 1224 q 376 1122 343 1158 q 461 1085 408 1085 q 546 1122 514 1085 q 578 1224 578 1158 l 611 1224 q 592 1135 611 1172 q 540 1078 574 1097 q 461 1058 506 1058 m 568 1283 q 509 1298 532 1283 q 472 1334 486 1313 q 443 1376 457 1356 q 408 1421 428 1401 q 354 1440 389 1440 q 300 1411 324 1440 q 276 1328 276 1382 l 276 1297 l 243 1297 l 243 1328 q 278 1435 243 1399 q 354 1471 313 1471 q 428 1446 403 1471 q 472 1392 454 1421 q 510 1338 490 1363 q 568 1314 529 1314 q 624 1343 600 1314 q 647 1428 647 1372 l 647 1458 l 681 1458 l 681 1428 q 645 1319 681 1356 q 568 1283 610 1283 z "},"Ǎ":{"ha":910,"x_min":7,"x_max":903,"o":"m 7 0 l 360 903 q 400 971 379 951 q 453 990 421 990 q 508 971 486 990 q 547 904 529 951 l 903 0 l 865 0 l 749 294 l 160 294 l 44 0 l 7 0 m 172 326 l 736 326 l 514 892 q 489 940 501 922 q 453 958 476 958 q 417 941 429 958 q 393 892 406 924 l 172 326 m 426 1051 l 282 1222 l 321 1222 l 454 1069 l 588 1222 l 626 1222 l 482 1051 l 426 1051 z "},"Â":{"ha":910,"x_min":7,"x_max":903,"o":"m 7 0 l 360 903 q 400 971 379 951 q 453 990 421 990 q 508 971 486 990 q 547 904 529 951 l 903 0 l 865 0 l 749 294 l 160 294 l 44 0 l 7 0 m 172 326 l 736 326 l 514 892 q 489 940 501 922 q 453 958 476 958 q 417 941 429 958 q 393 892 406 924 l 172 326 m 283 1051 l 428 1222 l 483 1222 l 628 1051 l 589 1051 l 456 1204 l 322 1051 l 283 1051 z "},"Ấ":{"ha":910,"x_min":7,"x_max":903,"o":"m 7 0 l 360 903 q 400 971 379 951 q 453 990 421 990 q 508 971 486 990 q 547 904 529 951 l 903 0 l 865 0 l 749 294 l 160 294 l 44 0 l 7 0 m 172 326 l 736 326 l 514 892 q 489 940 501 922 q 453 958 476 958 q 417 941 429 958 q 393 892 406 924 l 172 326 m 283 1051 l 428 1222 l 483 1222 l 628 1051 l 589 1051 l 456 1204 l 322 1051 l 283 1051 m 454 1263 l 599 1433 l 638 1433 l 493 1263 l 454 1263 z "},"Ậ":{"ha":910,"x_min":7,"x_max":903,"o":"m 7 0 l 360 903 q 400 971 379 951 q 453 990 421 990 q 508 971 486 990 q 547 904 529 951 l 903 0 l 865 0 l 749 294 l 160 294 l 44 0 l 7 0 m 172 326 l 736 326 l 514 892 q 489 940 501 922 q 453 958 476 958 q 417 941 429 958 q 393 892 406 924 l 172 326 m 283 1051 l 428 1222 l 483 1222 l 628 1051 l 589 1051 l 456 1204 l 322 1051 l 283 1051 m 451 -201 q 426 -190 438 -201 q 415 -165 415 -179 q 426 -140 415 -150 q 451 -129 438 -129 q 477 -140 467 -129 q 488 -165 488 -150 q 477 -190 488 -179 q 451 -201 467 -201 z "},"Ầ":{"ha":910,"x_min":7,"x_max":903,"o":"m 7 0 l 360 903 q 400 971 379 951 q 453 990 421 990 q 508 971 486 990 q 547 904 529 951 l 903 0 l 865 0 l 749 294 l 160 294 l 44 0 l 7 0 m 172 326 l 736 326 l 514 892 q 489 940 501 922 q 453 958 476 958 q 417 941 429 958 q 393 892 406 924 l 172 326 m 283 1051 l 428 1222 l 483 1222 l 628 1051 l 589 1051 l 456 1204 l 322 1051 l 283 1051 m 426 1263 l 282 1433 l 321 1433 l 465 1263 l 426 1263 z "},"Ẩ":{"ha":910,"x_min":7,"x_max":903,"o":"m 7 0 l 360 903 q 400 971 379 951 q 453 990 421 990 q 508 971 486 990 q 547 904 529 951 l 903 0 l 865 0 l 749 294 l 160 294 l 44 0 l 7 0 m 172 326 l 736 326 l 514 892 q 489 940 501 922 q 453 958 476 958 q 417 941 429 958 q 393 892 406 924 l 172 326 m 283 1051 l 428 1222 l 483 1222 l 628 1051 l 589 1051 l 456 1204 l 322 1051 l 283 1051 m 394 1261 l 394 1289 q 463 1304 425 1289 q 528 1347 500 1319 q 556 1411 556 1374 q 526 1469 554 1443 q 432 1496 499 1496 q 382 1494 406 1496 q 349 1489 358 1492 l 349 1515 q 387 1521 364 1518 q 432 1524 410 1524 q 549 1494 510 1524 q 588 1413 588 1464 q 555 1330 588 1364 q 477 1278 522 1296 q 394 1261 432 1261 z "},"Ẫ":{"ha":910,"x_min":7,"x_max":903,"o":"m 7 0 l 360 903 q 400 971 379 951 q 453 990 421 990 q 508 971 486 990 q 547 904 529 951 l 903 0 l 865 0 l 749 294 l 160 294 l 44 0 l 7 0 m 172 326 l 736 326 l 514 892 q 489 940 501 922 q 453 958 476 958 q 417 941 429 958 q 393 892 406 924 l 172 326 m 283 1051 l 428 1222 l 483 1222 l 628 1051 l 589 1051 l 456 1204 l 322 1051 l 283 1051 m 568 1279 q 509 1294 532 1279 q 472 1330 486 1308 q 443 1372 457 1351 q 408 1417 428 1397 q 354 1436 389 1436 q 300 1407 324 1436 q 276 1324 276 1378 l 276 1293 l 243 1293 l 243 1324 q 278 1431 243 1394 q 354 1467 313 1467 q 428 1442 403 1467 q 472 1388 454 1417 q 510 1334 490 1358 q 568 1310 529 1310 q 624 1339 600 1310 q 647 1424 647 1368 l 647 1454 l 681 1454 l 681 1424 q 645 1315 681 1351 q 568 1279 610 1279 z "},"Ȁ":{"ha":910,"x_min":7,"x_max":903,"o":"m 7 0 l 360 903 q 400 971 379 951 q 453 990 421 990 q 508 971 486 990 q 547 904 529 951 l 903 0 l 865 0 l 749 294 l 160 294 l 44 0 l 7 0 m 172 326 l 736 326 l 514 892 q 489 940 501 922 q 453 958 476 958 q 417 941 429 958 q 393 892 406 924 l 172 326 m 565 1051 l 414 1246 l 453 1246 l 604 1051 l 565 1051 m 371 1051 l 219 1246 l 258 1246 l 410 1051 l 371 1051 z "},"Ä":{"ha":910,"x_min":7,"x_max":903,"o":"m 7 0 l 360 903 q 400 971 379 951 q 453 990 421 990 q 508 971 486 990 q 547 904 529 951 l 903 0 l 865 0 l 749 294 l 160 294 l 44 0 l 7 0 m 172 326 l 736 326 l 514 892 q 489 940 501 922 q 453 958 476 958 q 417 941 429 958 q 393 892 406 924 l 172 326 m 561 1067 q 536 1078 547 1067 q 525 1103 525 1089 q 536 1128 525 1118 q 561 1139 547 1139 q 587 1128 576 1139 q 597 1103 597 1118 q 587 1078 597 1089 q 561 1067 576 1067 m 349 1067 q 324 1078 335 1067 q 313 1103 313 1089 q 324 1128 313 1118 q 349 1139 335 1139 q 374 1128 364 1139 q 385 1103 385 1118 q 374 1078 385 1089 q 349 1067 364 1067 z "},"Ạ":{"ha":910,"x_min":7,"x_max":903,"o":"m 7 0 l 360 903 q 400 971 379 951 q 453 990 421 990 q 508 971 486 990 q 547 904 529 951 l 903 0 l 865 0 l 749 294 l 160 294 l 44 0 l 7 0 m 172 326 l 736 326 l 514 892 q 489 940 501 922 q 453 958 476 958 q 417 941 429 958 q 393 892 406 924 l 172 326 m 451 -201 q 426 -190 438 -201 q 415 -165 415 -179 q 426 -140 415 -150 q 451 -129 438 -129 q 477 -140 467 -129 q 488 -165 488 -150 q 477 -190 488 -179 q 451 -201 467 -201 z "},"À":{"ha":910,"x_min":7,"x_max":903,"o":"m 7 0 l 360 903 q 400 971 379 951 q 453 990 421 990 q 508 971 486 990 q 547 904 529 951 l 903 0 l 865 0 l 749 294 l 160 294 l 44 0 l 7 0 m 172 326 l 736 326 l 514 892 q 489 940 501 922 q 453 958 476 958 q 417 941 429 958 q 393 892 406 924 l 172 326 m 424 1051 l 279 1222 l 318 1222 l 463 1051 l 424 1051 z "},"Ả":{"ha":910,"x_min":7,"x_max":903,"o":"m 7 0 l 360 903 q 400 971 379 951 q 453 990 421 990 q 508 971 486 990 q 547 904 529 951 l 903 0 l 865 0 l 749 294 l 160 294 l 44 0 l 7 0 m 172 326 l 736 326 l 514 892 q 489 940 501 922 q 453 958 476 958 q 417 941 429 958 q 393 892 406 924 l 172 326 m 413 1051 l 413 1079 q 481 1094 443 1079 q 546 1137 518 1110 q 574 1201 574 1164 q 544 1260 572 1233 q 450 1286 517 1286 q 400 1284 424 1286 q 367 1279 376 1282 l 367 1306 q 405 1311 382 1308 q 450 1314 428 1314 q 567 1284 528 1314 q 606 1203 606 1254 q 573 1120 606 1154 q 495 1069 540 1086 q 413 1051 450 1051 z "},"Ȃ":{"ha":910,"x_min":7,"x_max":903,"o":"m 463 1204 q 541 1185 507 1204 q 594 1128 575 1165 q 613 1039 613 1092 l 579 1039 q 547 1141 579 1104 q 463 1178 515 1178 q 377 1141 410 1178 q 344 1039 344 1104 l 311 1039 q 330 1128 311 1092 q 383 1185 349 1165 q 463 1204 418 1204 m 7 0 l 360 903 q 400 971 379 951 q 453 990 421 990 q 508 971 486 990 q 547 904 529 951 l 903 0 l 865 0 l 749 294 l 160 294 l 44 0 l 7 0 m 172 326 l 736 326 l 514 892 q 489 940 501 922 q 453 958 476 958 q 417 941 429 958 q 393 892 406 924 l 172 326 z "},"Ā":{"ha":910,"x_min":7,"x_max":903,"o":"m 7 0 l 360 903 q 400 971 379 951 q 453 990 421 990 q 508 971 486 990 q 547 904 529 951 l 903 0 l 865 0 l 749 294 l 160 294 l 44 0 l 7 0 m 172 326 l 736 326 l 514 892 q 489 940 501 922 q 453 958 476 958 q 417 941 429 958 q 393 892 406 924 l 172 326 m 261 1076 l 261 1108 l 650 1108 l 650 1076 l 261 1076 z "},"Ą":{"ha":910,"x_min":7,"x_max":903,"o":"m 847 -299 q 767 -270 800 -299 q 733 -196 733 -242 q 773 -95 733 -153 q 876 18 813 -37 l 903 0 q 800 -112 832 -64 q 768 -197 768 -160 q 792 -251 768 -233 q 849 -269 815 -269 q 874 -267 861 -269 q 901 -260 888 -265 l 901 -289 q 874 -297 888 -294 q 847 -299 861 -299 m 7 0 l 360 903 q 400 971 379 951 q 453 990 421 990 q 508 971 486 990 q 547 904 529 951 l 903 0 l 865 0 l 749 294 l 160 294 l 44 0 l 7 0 m 172 326 l 736 326 l 514 892 q 489 940 501 922 q 453 958 476 958 q 417 941 429 958 q 393 892 406 924 l 172 326 z "},"Å":{"ha":910,"x_min":7,"x_max":903,"o":"m 7 0 l 360 903 q 400 971 379 951 q 453 990 421 990 q 508 971 486 990 q 547 904 529 951 l 903 0 l 865 0 l 749 294 l 160 294 l 44 0 l 7 0 m 172 326 l 736 326 l 514 892 q 489 940 501 922 q 453 958 476 958 q 417 941 429 958 q 393 892 406 924 l 172 326 m 454 1049 q 360 1087 399 1049 q 322 1181 322 1125 q 360 1274 322 1236 q 454 1313 399 1313 q 548 1274 510 1313 q 586 1181 586 1236 q 548 1087 586 1125 q 454 1049 510 1049 m 454 1079 q 525 1108 496 1079 q 554 1181 554 1138 q 525 1253 554 1224 q 454 1282 496 1282 q 383 1253 413 1282 q 354 1181 354 1224 q 383 1108 354 1138 q 454 1079 413 1079 z "},"Ǻ":{"ha":910,"x_min":7,"x_max":903,"o":"m 7 0 l 360 903 q 400 971 379 951 q 453 990 421 990 q 508 971 486 990 q 547 904 529 951 l 903 0 l 865 0 l 749 294 l 160 294 l 44 0 l 7 0 m 172 326 l 736 326 l 514 892 q 489 940 501 922 q 453 958 476 958 q 417 941 429 958 q 393 892 406 924 l 172 326 m 454 1049 q 360 1087 399 1049 q 322 1181 322 1125 q 360 1274 322 1236 q 454 1313 399 1313 q 548 1274 510 1313 q 586 1181 586 1236 q 548 1087 586 1125 q 454 1049 510 1049 m 454 1079 q 525 1108 496 1079 q 554 1181 554 1138 q 525 1253 554 1224 q 454 1282 496 1282 q 383 1253 413 1282 q 354 1181 354 1224 q 383 1108 354 1138 q 454 1079 413 1079 m 447 1371 l 592 1542 l 631 1542 l 486 1371 l 447 1371 z "},"Ã":{"ha":910,"x_min":7,"x_max":903,"o":"m 7 0 l 360 903 q 400 971 379 951 q 453 990 421 990 q 508 971 486 990 q 547 904 529 951 l 903 0 l 865 0 l 749 294 l 160 294 l 44 0 l 7 0 m 172 326 l 736 326 l 514 892 q 489 940 501 922 q 453 958 476 958 q 417 941 429 958 q 393 892 406 924 l 172 326 m 561 1038 q 502 1052 525 1038 q 465 1088 479 1067 q 436 1131 450 1110 q 401 1175 421 1156 q 347 1194 382 1194 q 293 1165 317 1194 q 269 1082 269 1136 l 269 1051 l 236 1051 l 236 1082 q 271 1189 236 1153 q 347 1225 306 1225 q 422 1200 396 1225 q 465 1146 447 1175 q 503 1092 483 1117 q 561 1068 522 1068 q 617 1097 593 1068 q 640 1182 640 1126 l 640 1213 l 674 1213 l 674 1182 q 638 1074 674 1110 q 561 1038 603 1038 z "},"Æ":{"ha":1297,"x_min":7,"x_max":1276,"o":"m 7 0 l 360 903 q 400 971 379 951 q 453 990 421 990 q 508 970 486 990 q 547 904 529 950 l 600 772 q 624 872 597 826 q 708 945 651 918 q 846 972 764 972 l 1276 972 l 1276 940 l 836 940 q 696 901 747 940 q 632 797 644 861 q 644 658 619 733 l 703 511 l 1218 511 l 1218 479 l 715 479 l 854 128 q 908 60 869 89 q 1001 32 946 32 l 1276 32 l 1276 0 l 1000 0 q 889 32 936 0 q 822 113 842 64 l 750 294 l 160 294 l 44 0 l 7 0 m 172 326 l 738 326 l 514 892 q 489 940 501 922 q 453 958 476 958 q 417 941 429 958 q 393 892 406 924 l 172 326 z "},"Ǽ":{"ha":1297,"x_min":7,"x_max":1276,"o":"m 7 0 l 360 903 q 400 971 379 951 q 453 990 421 990 q 508 970 486 990 q 547 904 529 950 l 600 772 q 624 872 597 826 q 708 945 651 918 q 846 972 764 972 l 1276 972 l 1276 940 l 836 940 q 696 901 747 940 q 632 797 644 861 q 644 658 619 733 l 703 511 l 1218 511 l 1218 479 l 715 479 l 854 128 q 908 60 869 89 q 1001 32 946 32 l 1276 32 l 1276 0 l 1000 0 q 889 32 936 0 q 822 113 842 64 l 750 294 l 160 294 l 44 0 l 7 0 m 172 326 l 738 326 l 514 892 q 489 940 501 922 q 453 958 476 958 q 417 941 429 958 q 393 892 406 924 l 172 326 m 706 1051 l 850 1222 l 889 1222 l 744 1051 l 706 1051 z "},"B":{"ha":953,"x_min":118,"x_max":890,"o":"m 118 0 l 118 972 l 618 972 q 753 938 699 972 q 838 848 808 903 q 867 731 867 793 q 844 634 867 682 q 782 550 822 586 q 685 500 742 514 q 794 455 749 490 q 865 369 840 419 q 890 260 890 318 q 861 136 890 196 q 771 38 832 76 q 615 0 710 0 l 118 0 m 153 33 l 624 33 q 753 66 701 33 q 830 151 804 99 q 856 260 856 203 q 828 365 856 315 q 747 447 800 415 q 613 479 693 479 l 153 479 l 153 33 m 153 513 l 592 513 q 721 544 667 513 q 803 626 775 576 q 832 731 832 676 q 806 833 832 785 q 731 910 781 881 q 613 940 682 940 l 153 940 l 153 513 z "},"C":{"ha":665,"x_min":42,"x_max":624,"o":"m 538 0 q 338 38 429 0 q 181 144 247 76 q 78 299 114 211 q 42 488 42 388 q 78 675 42 588 q 181 829 114 763 q 338 934 247 896 q 538 972 429 972 l 624 972 l 624 940 l 542 940 q 360 906 444 940 q 214 810 276 871 q 116 666 151 749 q 81 488 81 583 q 116 308 81 390 q 214 163 151 225 q 360 67 276 101 q 542 33 444 33 l 624 33 l 624 0 l 538 0 z "},"Ć":{"ha":747,"x_min":42,"x_max":624,"o":"m 538 0 q 338 38 429 0 q 181 144 247 76 q 78 299 114 211 q 42 488 42 388 q 78 675 42 588 q 181 829 114 763 q 338 934 247 896 q 538 972 429 972 l 624 972 l 624 940 l 542 940 q 360 906 444 940 q 214 810 276 871 q 116 666 151 749 q 81 488 81 583 q 116 308 81 390 q 214 163 151 225 q 360 67 276 101 q 542 33 444 33 l 624 33 l 624 0 l 538 0 m 399 1051 l 543 1222 l 582 1222 l 438 1051 l 399 1051 z "},"Č":{"ha":747,"x_min":42,"x_max":624,"o":"m 538 0 q 338 38 429 0 q 181 144 247 76 q 78 299 114 211 q 42 488 42 388 q 78 675 42 588 q 181 829 114 763 q 338 934 247 896 q 538 972 429 972 l 624 972 l 624 940 l 542 940 q 360 906 444 940 q 214 810 276 871 q 116 666 151 749 q 81 488 81 583 q 116 308 81 390 q 214 163 151 225 q 360 67 276 101 q 542 33 444 33 l 624 33 l 624 0 l 538 0 m 408 1051 l 264 1222 l 303 1222 l 436 1069 l 569 1222 l 608 1222 l 464 1051 l 408 1051 z "},"Ç":{"ha":747,"x_min":42,"x_max":624,"o":"m 538 0 q 338 38 429 0 q 181 144 247 76 q 78 299 114 211 q 42 488 42 388 q 78 675 42 588 q 181 829 114 763 q 338 934 247 896 q 538 972 429 972 l 624 972 l 624 940 l 542 940 q 360 906 444 940 q 214 810 276 871 q 116 666 151 749 q 81 488 81 583 q 116 308 81 390 q 214 163 151 225 q 360 67 276 101 q 542 33 444 33 l 624 33 l 624 0 l 538 0 m 347 -282 l 471 19 l 511 19 l 382 -282 l 347 -282 z "},"Ĉ":{"ha":747,"x_min":42,"x_max":625,"o":"m 538 0 q 338 38 429 0 q 181 144 247 76 q 78 299 114 211 q 42 488 42 388 q 78 675 42 588 q 181 829 114 763 q 338 934 247 896 q 538 972 429 972 l 624 972 l 624 940 l 542 940 q 360 906 444 940 q 214 810 276 871 q 116 666 151 749 q 81 488 81 583 q 116 308 81 390 q 214 163 151 225 q 360 67 276 101 q 542 33 444 33 l 624 33 l 624 0 l 538 0 m 281 1051 l 425 1222 l 481 1222 l 625 1051 l 586 1051 l 453 1204 l 319 1051 l 281 1051 z "},"Ċ":{"ha":747,"x_min":42,"x_max":624,"o":"m 538 0 q 338 38 429 0 q 181 144 247 76 q 78 299 114 211 q 42 488 42 388 q 78 675 42 588 q 181 829 114 763 q 338 934 247 896 q 538 972 429 972 l 624 972 l 624 940 l 542 940 q 360 906 444 940 q 214 810 276 871 q 116 666 151 749 q 81 488 81 583 q 116 308 81 390 q 214 163 151 225 q 360 67 276 101 q 542 33 444 33 l 624 33 l 624 0 l 538 0 m 472 1067 q 447 1078 458 1067 q 436 1103 436 1089 q 447 1128 436 1118 q 472 1139 458 1139 q 498 1128 488 1139 q 508 1103 508 1118 q 498 1078 508 1089 q 472 1067 488 1067 z "},"D":{"ha":992,"x_min":118,"x_max":908,"o":"m 118 0 l 118 972 l 406 972 q 672 910 558 972 q 847 738 785 847 q 908 488 908 629 q 847 235 908 346 q 672 63 785 125 q 406 0 558 0 l 118 0 m 153 32 l 408 32 q 647 87 542 32 q 813 244 753 142 q 874 488 874 346 q 813 729 874 628 q 647 885 753 831 q 408 940 542 940 l 153 940 l 153 32 z "},"Ǆ":{"ha":1811,"x_min":118,"x_max":1753,"o":"m 118 0 l 118 972 l 406 972 q 672 910 558 972 q 847 738 785 847 q 908 488 908 629 q 847 235 908 346 q 672 63 785 125 q 406 0 558 0 l 118 0 m 153 32 l 408 32 q 647 87 542 32 q 813 244 753 142 q 874 488 874 346 q 813 729 874 628 q 647 885 753 831 q 408 940 542 940 l 153 940 l 153 32 m 1246 0 q 1115 51 1161 0 q 1068 168 1068 103 q 1095 261 1068 228 q 1181 338 1122 294 l 1622 660 q 1698 733 1678 700 q 1718 813 1718 765 q 1701 872 1718 843 q 1656 921 1685 901 q 1592 940 1628 940 l 1108 940 l 1108 972 l 1579 972 q 1675 949 1636 972 q 1733 888 1714 925 q 1753 811 1753 851 q 1722 708 1753 747 q 1635 628 1692 668 l 1204 313 q 1142 263 1164 283 q 1110 219 1119 242 q 1101 163 1101 197 q 1119 103 1101 133 q 1167 52 1136 72 q 1240 32 1199 32 l 1743 32 l 1743 0 l 1246 0 m 1392 1051 l 1247 1222 l 1286 1222 l 1419 1069 l 1553 1222 l 1592 1222 l 1447 1051 l 1392 1051 z "},"Ð":{"ha":992,"x_min":0,"x_max":908,"o":"m 118 0 l 118 481 l 0 481 l 0 513 l 118 513 l 118 972 l 406 972 q 672 910 558 972 q 847 738 785 847 q 908 488 908 629 q 847 235 908 346 q 672 63 785 125 q 406 0 558 0 l 118 0 m 153 32 l 408 32 q 647 87 542 32 q 813 244 753 142 q 874 488 874 346 q 813 729 874 628 q 647 885 753 831 q 408 940 542 940 l 153 940 l 153 513 l 442 513 l 442 481 l 153 481 l 153 32 z "},"Ď":{"ha":976,"x_min":118,"x_max":908,"o":"m 118 0 l 118 972 l 406 972 q 672 910 558 972 q 847 738 785 847 q 908 488 908 629 q 847 235 908 346 q 672 63 785 125 q 406 0 558 0 l 118 0 m 153 32 l 408 32 q 647 87 542 32 q 813 244 753 142 q 874 488 874 346 q 813 729 874 628 q 647 885 753 831 q 408 940 542 940 l 153 940 l 153 32 m 389 1051 l 244 1222 l 283 1222 l 417 1069 l 550 1222 l 589 1222 l 444 1051 l 389 1051 z "},"Đ":{"ha":976,"x_min":0,"x_max":908,"o":"m 118 0 l 118 481 l 0 481 l 0 513 l 118 513 l 118 972 l 406 972 q 672 910 558 972 q 847 738 785 847 q 908 488 908 629 q 847 235 908 346 q 672 63 785 125 q 406 0 558 0 l 118 0 m 153 32 l 408 32 q 647 87 542 32 q 813 244 753 142 q 874 488 874 346 q 813 729 874 628 q 647 885 753 831 q 408 940 542 940 l 153 940 l 153 513 l 442 513 l 442 481 l 153 481 l 153 32 z "},"ǅ":{"ha":1686,"x_min":118,"x_max":1613,"o":"m 118 0 l 118 972 l 406 972 q 672 910 558 972 q 847 738 785 847 q 908 488 908 629 q 847 235 908 346 q 672 63 785 125 q 406 0 558 0 l 118 0 m 153 32 l 408 32 q 647 87 542 32 q 813 244 753 142 q 874 488 874 346 q 813 729 874 628 q 647 885 753 831 q 408 940 542 940 l 153 940 l 153 32 m 1164 0 q 1095 17 1125 0 q 1049 63 1065 35 q 1032 122 1032 90 q 1051 197 1032 167 q 1121 256 1071 226 l 1501 481 q 1558 532 1546 507 q 1571 588 1571 557 q 1544 649 1571 621 q 1472 676 1518 676 l 1067 676 l 1067 708 l 1486 708 q 1552 691 1524 708 q 1597 646 1581 674 q 1613 586 1613 618 q 1594 512 1613 543 q 1526 453 1575 481 l 1147 228 q 1088 176 1101 201 q 1075 121 1075 151 q 1103 60 1075 88 q 1178 32 1131 32 l 1604 32 l 1604 0 l 1164 0 m 1313 801 l 1168 972 l 1207 972 l 1340 819 l 1474 972 l 1513 972 l 1368 801 l 1313 801 z "},"E":{"ha":763,"x_min":82,"x_max":693,"o":"m 331 0 q 194 37 250 0 q 110 132 139 74 q 82 253 82 190 q 124 399 82 331 q 250 494 165 468 q 128 590 167 528 q 90 719 90 651 q 122 846 90 789 q 209 937 154 903 q 332 971 264 971 l 693 971 l 693 939 l 336 939 q 226 910 274 939 q 152 831 179 881 q 125 719 125 781 q 154 616 125 664 q 233 540 183 568 q 344 511 282 511 l 638 511 l 638 479 l 354 479 q 222 446 275 479 q 143 360 169 413 q 117 251 117 308 q 142 146 117 196 q 217 64 167 96 q 340 32 267 32 l 693 32 l 693 0 l 331 0 z "},"É":{"ha":763,"x_min":82,"x_max":693,"o":"m 331 0 q 194 37 250 0 q 110 132 139 74 q 82 253 82 190 q 124 399 82 331 q 250 494 165 468 q 128 590 167 528 q 90 719 90 651 q 122 846 90 789 q 209 937 154 903 q 332 971 264 971 l 693 971 l 693 939 l 336 939 q 226 910 274 939 q 152 831 179 881 q 125 719 125 781 q 154 616 125 664 q 233 540 183 568 q 344 511 282 511 l 638 511 l 638 479 l 354 479 q 222 446 275 479 q 143 360 169 413 q 117 251 117 308 q 142 146 117 196 q 217 64 167 96 q 340 32 267 32 l 693 32 l 693 0 l 331 0 m 410 1051 l 554 1222 l 593 1222 l 449 1051 l 410 1051 z "},"Ĕ":{"ha":763,"x_min":82,"x_max":693,"o":"m 331 0 q 194 37 250 0 q 110 132 139 74 q 82 253 82 190 q 124 399 82 331 q 250 494 165 468 q 128 590 167 528 q 90 719 90 651 q 122 846 90 789 q 209 937 154 903 q 332 971 264 971 l 693 971 l 693 939 l 336 939 q 226 910 274 939 q 152 831 179 881 q 125 719 125 781 q 154 616 125 664 q 233 540 183 568 q 344 511 282 511 l 638 511 l 638 479 l 354 479 q 222 446 275 479 q 143 360 169 413 q 117 251 117 308 q 142 146 117 196 q 217 64 167 96 q 340 32 267 32 l 693 32 l 693 0 l 331 0 m 442 1044 q 363 1064 397 1044 q 309 1121 328 1083 q 290 1210 290 1158 l 324 1210 q 356 1108 324 1144 q 442 1071 389 1071 q 526 1108 494 1071 q 558 1210 558 1144 l 592 1210 q 573 1121 592 1158 q 520 1064 554 1083 q 442 1044 486 1044 z "},"Ě":{"ha":763,"x_min":82,"x_max":693,"o":"m 331 0 q 194 37 250 0 q 110 132 139 74 q 82 253 82 190 q 124 399 82 331 q 250 494 165 468 q 128 590 167 528 q 90 719 90 651 q 122 846 90 789 q 209 937 154 903 q 332 971 264 971 l 693 971 l 693 939 l 336 939 q 226 910 274 939 q 152 831 179 881 q 125 719 125 781 q 154 616 125 664 q 233 540 183 568 q 344 511 282 511 l 638 511 l 638 479 l 354 479 q 222 446 275 479 q 143 360 169 413 q 117 251 117 308 q 142 146 117 196 q 217 64 167 96 q 340 32 267 32 l 693 32 l 693 0 l 331 0 m 410 1051 l 265 1222 l 304 1222 l 438 1069 l 571 1222 l 610 1222 l 465 1051 l 410 1051 z "},"Ê":{"ha":763,"x_min":82,"x_max":693,"o":"m 331 0 q 194 37 250 0 q 110 132 139 74 q 82 253 82 190 q 124 399 82 331 q 250 494 165 468 q 128 590 167 528 q 90 719 90 651 q 122 846 90 789 q 209 937 154 903 q 332 971 264 971 l 693 971 l 693 939 l 336 939 q 226 910 274 939 q 152 831 179 881 q 125 719 125 781 q 154 616 125 664 q 233 540 183 568 q 344 511 282 511 l 638 511 l 638 479 l 354 479 q 222 446 275 479 q 143 360 169 413 q 117 251 117 308 q 142 146 117 196 q 217 64 167 96 q 340 32 267 32 l 693 32 l 693 0 l 331 0 m 278 1051 l 422 1222 l 478 1222 l 622 1051 l 583 1051 l 450 1204 l 317 1051 l 278 1051 z "},"Ế":{"ha":763,"x_min":82,"x_max":693,"o":"m 331 0 q 194 37 250 0 q 110 132 139 74 q 82 253 82 190 q 124 399 82 331 q 250 494 165 468 q 128 590 167 528 q 90 719 90 651 q 122 846 90 789 q 209 937 154 903 q 332 971 264 971 l 693 971 l 693 939 l 336 939 q 226 910 274 939 q 152 831 179 881 q 125 719 125 781 q 154 616 125 664 q 233 540 183 568 q 344 511 282 511 l 638 511 l 638 479 l 354 479 q 222 446 275 479 q 143 360 169 413 q 117 251 117 308 q 142 146 117 196 q 217 64 167 96 q 340 32 267 32 l 693 32 l 693 0 l 331 0 m 278 1051 l 422 1222 l 478 1222 l 622 1051 l 583 1051 l 450 1204 l 317 1051 l 278 1051 m 425 1285 l 569 1456 l 608 1456 l 464 1285 l 425 1285 z "},"Ệ":{"ha":763,"x_min":82,"x_max":693,"o":"m 331 0 q 194 37 250 0 q 110 132 139 74 q 82 253 82 190 q 124 399 82 331 q 250 494 165 468 q 128 590 167 528 q 90 719 90 651 q 122 846 90 789 q 209 937 154 903 q 332 971 264 971 l 693 971 l 693 939 l 336 939 q 226 910 274 939 q 152 831 179 881 q 125 719 125 781 q 154 616 125 664 q 233 540 183 568 q 344 511 282 511 l 638 511 l 638 479 l 354 479 q 222 446 275 479 q 143 360 169 413 q 117 251 117 308 q 142 146 117 196 q 217 64 167 96 q 340 32 267 32 l 693 32 l 693 0 l 331 0 m 415 -201 q 390 -190 401 -201 q 379 -165 379 -179 q 390 -140 379 -150 q 415 -129 401 -129 q 441 -140 431 -129 q 451 -165 451 -150 q 441 -190 451 -179 q 415 -201 431 -201 m 278 1051 l 422 1222 l 478 1222 l 622 1051 l 583 1051 l 450 1204 l 317 1051 l 278 1051 z "},"Ề":{"ha":763,"x_min":82,"x_max":693,"o":"m 331 0 q 194 37 250 0 q 110 132 139 74 q 82 253 82 190 q 124 399 82 331 q 250 494 165 468 q 128 590 167 528 q 90 719 90 651 q 122 846 90 789 q 209 937 154 903 q 332 971 264 971 l 693 971 l 693 939 l 336 939 q 226 910 274 939 q 152 831 179 881 q 125 719 125 781 q 154 616 125 664 q 233 540 183 568 q 344 511 282 511 l 638 511 l 638 479 l 354 479 q 222 446 275 479 q 143 360 169 413 q 117 251 117 308 q 142 146 117 196 q 217 64 167 96 q 340 32 267 32 l 693 32 l 693 0 l 331 0 m 278 1051 l 422 1222 l 478 1222 l 622 1051 l 583 1051 l 450 1204 l 317 1051 l 278 1051 m 397 1285 l 253 1456 l 292 1456 l 436 1285 l 397 1285 z "},"Ể":{"ha":763,"x_min":82,"x_max":693,"o":"m 331 0 q 194 37 250 0 q 110 132 139 74 q 82 253 82 190 q 124 399 82 331 q 250 494 165 468 q 128 590 167 528 q 90 719 90 651 q 122 846 90 789 q 209 937 154 903 q 332 971 264 971 l 693 971 l 693 939 l 336 939 q 226 910 274 939 q 152 831 179 881 q 125 719 125 781 q 154 616 125 664 q 233 540 183 568 q 344 511 282 511 l 638 511 l 638 479 l 354 479 q 222 446 275 479 q 143 360 169 413 q 117 251 117 308 q 142 146 117 196 q 217 64 167 96 q 340 32 267 32 l 693 32 l 693 0 l 331 0 m 278 1051 l 422 1222 l 478 1222 l 622 1051 l 583 1051 l 450 1204 l 317 1051 l 278 1051 m 381 1257 l 381 1285 q 449 1300 411 1285 q 514 1342 486 1315 q 542 1407 542 1369 q 513 1465 540 1439 q 418 1492 485 1492 q 368 1490 392 1492 q 335 1485 344 1488 l 335 1511 q 373 1517 350 1514 q 418 1519 396 1519 q 535 1490 496 1519 q 574 1408 574 1460 q 541 1326 574 1360 q 463 1274 508 1292 q 381 1257 418 1257 z "},"Ễ":{"ha":763,"x_min":82,"x_max":693,"o":"m 331 0 q 194 37 250 0 q 110 132 139 74 q 82 253 82 190 q 124 399 82 331 q 250 494 165 468 q 128 590 167 528 q 90 719 90 651 q 122 846 90 789 q 209 937 154 903 q 332 971 264 971 l 693 971 l 693 939 l 336 939 q 226 910 274 939 q 152 831 179 881 q 125 719 125 781 q 154 616 125 664 q 233 540 183 568 q 344 511 282 511 l 638 511 l 638 479 l 354 479 q 222 446 275 479 q 143 360 169 413 q 117 251 117 308 q 142 146 117 196 q 217 64 167 96 q 340 32 267 32 l 693 32 l 693 0 l 331 0 m 278 1051 l 422 1222 l 478 1222 l 622 1051 l 583 1051 l 450 1204 l 317 1051 l 278 1051 m 551 1282 q 492 1297 515 1282 q 455 1333 469 1311 q 426 1375 440 1354 q 392 1419 411 1400 q 338 1439 372 1439 q 283 1410 307 1439 q 260 1326 260 1381 l 260 1296 l 226 1296 l 226 1326 q 261 1433 226 1397 q 338 1469 296 1469 q 412 1444 386 1469 q 456 1390 438 1419 q 493 1337 474 1361 q 551 1313 513 1313 q 607 1342 583 1313 q 631 1426 631 1371 l 631 1457 l 664 1457 l 664 1426 q 628 1318 664 1354 q 551 1282 593 1282 z "},"Ȅ":{"ha":763,"x_min":82,"x_max":693,"o":"m 331 0 q 194 37 250 0 q 110 132 139 74 q 82 253 82 190 q 124 399 82 331 q 250 494 165 468 q 128 590 167 528 q 90 719 90 651 q 122 846 90 789 q 209 937 154 903 q 332 971 264 971 l 693 971 l 693 939 l 336 939 q 226 910 274 939 q 152 831 179 881 q 125 719 125 781 q 154 616 125 664 q 233 540 183 568 q 344 511 282 511 l 638 511 l 638 479 l 354 479 q 222 446 275 479 q 143 360 169 413 q 117 251 117 308 q 142 146 117 196 q 217 64 167 96 q 340 32 267 32 l 693 32 l 693 0 l 331 0 m 543 1051 l 392 1246 l 431 1246 l 582 1051 l 543 1051 m 349 1051 l 197 1246 l 236 1246 l 388 1051 l 349 1051 z "},"Ë":{"ha":763,"x_min":82,"x_max":693,"o":"m 331 0 q 194 37 250 0 q 110 132 139 74 q 82 253 82 190 q 124 399 82 331 q 250 494 165 468 q 128 590 167 528 q 90 719 90 651 q 122 846 90 789 q 209 937 154 903 q 332 971 264 971 l 693 971 l 693 939 l 336 939 q 226 910 274 939 q 152 831 179 881 q 125 719 125 781 q 154 616 125 664 q 233 540 183 568 q 344 511 282 511 l 638 511 l 638 479 l 354 479 q 222 446 275 479 q 143 360 169 413 q 117 251 117 308 q 142 146 117 196 q 217 64 167 96 q 340 32 267 32 l 693 32 l 693 0 l 331 0 m 550 1067 q 525 1078 536 1067 q 514 1103 514 1089 q 525 1128 514 1118 q 550 1139 536 1139 q 576 1128 565 1139 q 586 1103 586 1118 q 576 1078 586 1089 q 550 1067 565 1067 m 338 1067 q 313 1078 324 1067 q 301 1103 301 1089 q 313 1128 301 1118 q 338 1139 324 1139 q 363 1128 353 1139 q 374 1103 374 1118 q 363 1078 374 1089 q 338 1067 353 1067 z "},"Ė":{"ha":763,"x_min":82,"x_max":693,"o":"m 331 0 q 194 37 250 0 q 110 132 139 74 q 82 253 82 190 q 124 399 82 331 q 250 494 165 468 q 128 590 167 528 q 90 719 90 651 q 122 846 90 789 q 209 937 154 903 q 332 971 264 971 l 693 971 l 693 939 l 336 939 q 226 910 274 939 q 152 831 179 881 q 125 719 125 781 q 154 616 125 664 q 233 540 183 568 q 344 511 282 511 l 638 511 l 638 479 l 354 479 q 222 446 275 479 q 143 360 169 413 q 117 251 117 308 q 142 146 117 196 q 217 64 167 96 q 340 32 267 32 l 693 32 l 693 0 l 331 0 m 442 1067 q 417 1078 428 1067 q 406 1103 406 1089 q 417 1128 406 1118 q 442 1139 428 1139 q 467 1128 457 1139 q 478 1103 478 1118 q 467 1078 478 1089 q 442 1067 457 1067 z "},"Ẹ":{"ha":763,"x_min":82,"x_max":693,"o":"m 331 0 q 194 37 250 0 q 110 132 139 74 q 82 253 82 190 q 124 399 82 331 q 250 494 165 468 q 128 590 167 528 q 90 719 90 651 q 122 846 90 789 q 209 937 154 903 q 332 971 264 971 l 693 971 l 693 939 l 336 939 q 226 910 274 939 q 152 831 179 881 q 125 719 125 781 q 154 616 125 664 q 233 540 183 568 q 344 511 282 511 l 638 511 l 638 479 l 354 479 q 222 446 275 479 q 143 360 169 413 q 117 251 117 308 q 142 146 117 196 q 217 64 167 96 q 340 32 267 32 l 693 32 l 693 0 l 331 0 m 415 -201 q 390 -190 401 -201 q 379 -165 379 -179 q 390 -140 379 -150 q 415 -129 401 -129 q 441 -140 431 -129 q 451 -165 451 -150 q 441 -190 451 -179 q 415 -201 431 -201 z "},"È":{"ha":763,"x_min":82,"x_max":693,"o":"m 331 0 q 194 37 250 0 q 110 132 139 74 q 82 253 82 190 q 124 399 82 331 q 250 494 165 468 q 128 590 167 528 q 90 719 90 651 q 122 846 90 789 q 209 937 154 903 q 332 971 264 971 l 693 971 l 693 939 l 336 939 q 226 910 274 939 q 152 831 179 881 q 125 719 125 781 q 154 616 125 664 q 233 540 183 568 q 344 511 282 511 l 638 511 l 638 479 l 354 479 q 222 446 275 479 q 143 360 169 413 q 117 251 117 308 q 142 146 117 196 q 217 64 167 96 q 340 32 267 32 l 693 32 l 693 0 l 331 0 m 422 1051 l 278 1222 l 317 1222 l 461 1051 l 422 1051 z "},"Ẻ":{"ha":763,"x_min":82,"x_max":693,"o":"m 331 0 q 194 37 250 0 q 110 132 139 74 q 82 253 82 190 q 124 399 82 331 q 250 494 165 468 q 128 590 167 528 q 90 719 90 651 q 122 846 90 789 q 209 937 154 903 q 332 971 264 971 l 693 971 l 693 939 l 336 939 q 226 910 274 939 q 152 831 179 881 q 125 719 125 781 q 154 616 125 664 q 233 540 183 568 q 344 511 282 511 l 638 511 l 638 479 l 354 479 q 222 446 275 479 q 143 360 169 413 q 117 251 117 308 q 142 146 117 196 q 217 64 167 96 q 340 32 267 32 l 693 32 l 693 0 l 331 0 m 383 1039 l 383 1067 q 451 1082 414 1067 q 517 1124 489 1097 q 544 1189 544 1151 q 515 1247 543 1221 q 421 1274 488 1274 q 371 1272 394 1274 q 338 1267 347 1269 l 338 1293 q 376 1299 353 1296 q 421 1301 399 1301 q 538 1272 499 1301 q 576 1190 576 1242 q 544 1108 576 1142 q 466 1056 511 1074 q 383 1039 421 1039 z "},"Ȇ":{"ha":763,"x_min":82,"x_max":693,"o":"m 438 1204 q 516 1185 482 1204 q 569 1128 550 1165 q 588 1039 588 1092 l 554 1039 q 522 1141 554 1104 q 438 1178 490 1178 q 352 1141 385 1178 q 319 1039 319 1104 l 286 1039 q 305 1128 286 1092 q 358 1185 324 1165 q 438 1204 393 1204 m 331 0 q 194 37 250 0 q 110 132 139 74 q 82 253 82 190 q 124 399 82 331 q 250 494 165 468 q 128 590 167 528 q 90 719 90 651 q 122 846 90 789 q 209 937 154 903 q 332 971 264 971 l 693 971 l 693 939 l 336 939 q 226 910 274 939 q 152 831 179 881 q 125 719 125 781 q 154 616 125 664 q 233 540 183 568 q 344 511 282 511 l 638 511 l 638 479 l 354 479 q 222 446 275 479 q 143 360 169 413 q 117 251 117 308 q 142 146 117 196 q 217 64 167 96 q 340 32 267 32 l 693 32 l 693 0 l 331 0 z "},"Ē":{"ha":763,"x_min":82,"x_max":693,"o":"m 331 0 q 194 37 250 0 q 110 132 139 74 q 82 253 82 190 q 124 399 82 331 q 250 494 165 468 q 128 590 167 528 q 90 719 90 651 q 122 846 90 789 q 209 937 154 903 q 332 971 264 971 l 693 971 l 693 939 l 336 939 q 226 910 274 939 q 152 831 179 881 q 125 719 125 781 q 154 616 125 664 q 233 540 183 568 q 344 511 282 511 l 638 511 l 638 479 l 354 479 q 222 446 275 479 q 143 360 169 413 q 117 251 117 308 q 142 146 117 196 q 217 64 167 96 q 340 32 267 32 l 693 32 l 693 0 l 331 0 m 235 1094 l 235 1126 l 624 1126 l 624 1094 l 235 1094 z "},"Ę":{"ha":763,"x_min":82,"x_max":725,"o":"m 654 -303 q 531 -265 578 -303 q 485 -154 485 -226 q 506 -65 485 -110 q 553 19 526 -19 l 593 19 q 544 -66 567 -19 q 521 -157 521 -112 q 556 -240 521 -210 q 650 -269 590 -269 q 685 -266 667 -269 q 725 -257 703 -262 l 725 -292 q 701 -298 719 -293 q 654 -303 682 -303 m 331 0 q 194 37 250 0 q 110 132 139 74 q 82 253 82 190 q 124 399 82 331 q 250 494 165 468 q 128 590 167 528 q 90 719 90 651 q 122 846 90 789 q 209 937 154 903 q 332 971 264 971 l 693 971 l 693 939 l 336 939 q 226 910 274 939 q 152 831 179 881 q 125 719 125 781 q 154 616 125 664 q 233 540 183 568 q 344 511 282 511 l 638 511 l 638 479 l 354 479 q 222 446 275 479 q 143 360 169 413 q 117 251 117 308 q 142 146 117 196 q 217 64 167 96 q 340 32 267 32 l 693 32 l 693 0 l 331 0 z "},"Ẽ":{"ha":763,"x_min":82,"x_max":693,"o":"m 331 0 q 194 37 250 0 q 110 132 139 74 q 82 253 82 190 q 124 399 82 331 q 250 494 165 468 q 128 590 167 528 q 90 719 90 651 q 122 846 90 789 q 209 937 154 903 q 332 971 264 971 l 693 971 l 693 939 l 336 939 q 226 910 274 939 q 152 831 179 881 q 125 719 125 781 q 154 616 125 664 q 233 540 183 568 q 344 511 282 511 l 638 511 l 638 479 l 354 479 q 222 446 275 479 q 143 360 169 413 q 117 251 117 308 q 142 146 117 196 q 217 64 167 96 q 340 32 267 32 l 693 32 l 693 0 l 331 0 m 539 1038 q 480 1052 503 1038 q 442 1088 457 1067 q 414 1131 428 1110 q 379 1175 399 1156 q 325 1194 360 1194 q 271 1165 294 1194 q 247 1082 247 1136 l 247 1051 l 214 1051 l 214 1082 q 249 1189 214 1153 q 325 1225 283 1225 q 399 1200 374 1225 q 443 1146 425 1175 q 481 1092 461 1117 q 539 1068 500 1068 q 594 1097 571 1068 q 618 1182 618 1126 l 618 1213 l 651 1213 l 651 1182 q 616 1074 651 1110 q 539 1038 581 1038 z "},"Ə":{"ha":986,"x_min":63,"x_max":903,"o":"m 474 -18 q 258 38 349 -18 q 117 200 167 93 q 63 460 67 307 q 63 476 63 468 q 63 492 63 483 l 868 492 q 797 727 861 626 q 620 884 733 828 q 349 940 507 940 l 185 940 l 185 972 l 353 972 q 648 908 525 972 q 837 729 771 844 q 903 460 903 614 q 848 214 903 322 q 696 44 793 106 q 474 -18 599 -18 m 467 14 q 676 73 586 14 q 817 233 767 132 q 868 460 868 335 l 96 460 q 148 215 101 314 q 276 65 194 115 q 467 14 358 14 z "},"F":{"ha":711,"x_min":118,"x_max":663,"o":"m 118 0 l 118 765 q 143 876 118 829 q 215 947 168 922 q 326 972 261 972 l 663 972 l 663 940 l 329 940 q 199 892 244 940 q 153 765 153 843 l 153 507 l 607 507 l 607 475 l 153 475 l 153 0 l 118 0 z "},"G":{"ha":1199,"x_min":83,"x_max":1081,"o":"m 876 -311 q 776 -285 824 -311 q 697 -209 728 -260 q 667 -83 667 -158 q 668 -48 667 -67 q 672 -11 669 -29 q 453 -2 558 -28 q 264 89 347 24 q 132 254 181 154 q 83 486 83 354 q 119 682 83 590 q 219 843 154 774 q 377 951 285 913 q 582 990 469 990 q 788 951 696 990 q 944 843 879 913 q 1045 682 1010 774 q 1081 486 1081 590 l 1081 -83 q 1052 -212 1081 -162 q 977 -287 1024 -262 q 876 -311 931 -311 m 874 -276 q 994 -231 943 -276 q 1046 -87 1046 -185 l 1046 374 q 872 260 939 321 q 768 139 804 200 q 718 21 732 78 q 704 -82 704 -36 q 728 -188 704 -144 q 792 -254 753 -232 q 874 -276 831 -276 m 582 14 q 631 16 610 14 q 679 24 651 18 q 735 156 694 88 q 850 290 775 224 q 1046 415 925 357 l 1046 486 q 1011 674 1046 588 q 914 824 976 760 q 767 923 851 888 q 582 958 682 958 q 397 923 482 958 q 250 824 313 888 q 153 674 188 760 q 118 486 118 588 q 153 299 118 385 q 250 149 188 213 q 397 49 313 85 q 582 14 482 14 z "},"Ğ":{"ha":1199,"x_min":83,"x_max":1081,"o":"m 876 -311 q 776 -285 824 -311 q 697 -209 728 -260 q 667 -83 667 -158 q 668 -48 667 -67 q 672 -11 669 -29 q 453 -2 558 -28 q 264 89 347 24 q 132 254 181 154 q 83 486 83 354 q 119 682 83 590 q 219 843 154 774 q 377 951 285 913 q 582 990 469 990 q 788 951 696 990 q 944 843 879 913 q 1045 682 1010 774 q 1081 486 1081 590 l 1081 -83 q 1052 -212 1081 -162 q 977 -287 1024 -262 q 876 -311 931 -311 m 874 -276 q 994 -231 943 -276 q 1046 -87 1046 -185 l 1046 374 q 872 260 939 321 q 768 139 804 200 q 718 21 732 78 q 704 -82 704 -36 q 728 -188 704 -144 q 792 -254 753 -232 q 874 -276 831 -276 m 582 14 q 631 16 610 14 q 679 24 651 18 q 735 156 694 88 q 850 290 775 224 q 1046 415 925 357 l 1046 486 q 1011 674 1046 588 q 914 824 976 760 q 767 923 851 888 q 582 958 682 958 q 397 923 482 958 q 250 824 313 888 q 153 674 188 760 q 118 486 118 588 q 153 299 118 385 q 250 149 188 213 q 397 49 313 85 q 582 14 482 14 m 590 1046 q 511 1065 546 1046 q 458 1122 476 1085 q 439 1211 439 1160 l 472 1211 q 505 1109 472 1146 q 590 1072 538 1072 q 675 1109 643 1072 q 707 1211 707 1146 l 740 1211 q 722 1122 740 1160 q 669 1065 703 1085 q 590 1046 635 1046 z "},"Ǧ":{"ha":1199,"x_min":83,"x_max":1081,"o":"m 876 -311 q 776 -285 824 -311 q 697 -209 728 -260 q 667 -83 667 -158 q 668 -48 667 -67 q 672 -11 669 -29 q 453 -2 558 -28 q 264 89 347 24 q 132 254 181 154 q 83 486 83 354 q 119 682 83 590 q 219 843 154 774 q 377 951 285 913 q 582 990 469 990 q 788 951 696 990 q 944 843 879 913 q 1045 682 1010 774 q 1081 486 1081 590 l 1081 -83 q 1052 -212 1081 -162 q 977 -287 1024 -262 q 876 -311 931 -311 m 874 -276 q 994 -231 943 -276 q 1046 -87 1046 -185 l 1046 374 q 872 260 939 321 q 768 139 804 200 q 718 21 732 78 q 704 -82 704 -36 q 728 -188 704 -144 q 792 -254 753 -232 q 874 -276 831 -276 m 582 14 q 631 16 610 14 q 679 24 651 18 q 735 156 694 88 q 850 290 775 224 q 1046 415 925 357 l 1046 486 q 1011 674 1046 588 q 914 824 976 760 q 767 923 851 888 q 582 958 682 958 q 397 923 482 958 q 250 824 313 888 q 153 674 188 760 q 118 486 118 588 q 153 299 118 385 q 250 149 188 213 q 397 49 313 85 q 582 14 482 14 m 578 1051 l 433 1222 l 472 1222 l 606 1069 l 739 1222 l 778 1222 l 633 1051 l 578 1051 z "},"Ĝ":{"ha":1199,"x_min":83,"x_max":1081,"o":"m 876 -311 q 776 -285 824 -311 q 697 -209 728 -260 q 667 -83 667 -158 q 668 -48 667 -67 q 672 -11 669 -29 q 453 -2 558 -28 q 264 89 347 24 q 132 254 181 154 q 83 486 83 354 q 119 682 83 590 q 219 843 154 774 q 377 951 285 913 q 582 990 469 990 q 788 951 696 990 q 944 843 879 913 q 1045 682 1010 774 q 1081 486 1081 590 l 1081 -83 q 1052 -212 1081 -162 q 977 -287 1024 -262 q 876 -311 931 -311 m 874 -276 q 994 -231 943 -276 q 1046 -87 1046 -185 l 1046 374 q 872 260 939 321 q 768 139 804 200 q 718 21 732 78 q 704 -82 704 -36 q 728 -188 704 -144 q 792 -254 753 -232 q 874 -276 831 -276 m 582 14 q 631 16 610 14 q 679 24 651 18 q 735 156 694 88 q 850 290 775 224 q 1046 415 925 357 l 1046 486 q 1011 674 1046 588 q 914 824 976 760 q 767 923 851 888 q 582 958 682 958 q 397 923 482 958 q 250 824 313 888 q 153 674 188 760 q 118 486 118 588 q 153 299 118 385 q 250 149 188 213 q 397 49 313 85 q 582 14 482 14 m 433 1051 l 578 1222 l 633 1222 l 778 1051 l 739 1051 l 606 1204 l 472 1051 l 433 1051 z "},"Ģ":{"ha":1199,"x_min":83,"x_max":1081,"o":"m 876 -311 q 776 -285 824 -311 q 697 -209 728 -260 q 667 -83 667 -158 q 668 -48 667 -67 q 672 -11 669 -29 q 453 -2 558 -28 q 264 89 347 24 q 132 254 181 154 q 83 486 83 354 q 119 682 83 590 q 219 843 154 774 q 377 951 285 913 q 582 990 469 990 q 788 951 696 990 q 944 843 879 913 q 1045 682 1010 774 q 1081 486 1081 590 l 1081 -83 q 1052 -212 1081 -162 q 977 -287 1024 -262 q 876 -311 931 -311 m 874 -276 q 994 -231 943 -276 q 1046 -87 1046 -185 l 1046 374 q 872 260 939 321 q 768 139 804 200 q 718 21 732 78 q 704 -82 704 -36 q 728 -188 704 -144 q 792 -254 753 -232 q 874 -276 831 -276 m 582 14 q 631 16 610 14 q 679 24 651 18 q 735 156 694 88 q 850 290 775 224 q 1046 415 925 357 l 1046 486 q 1011 674 1046 588 q 914 824 976 760 q 767 923 851 888 q 582 958 682 958 q 397 923 482 958 q 250 824 313 888 q 153 674 188 760 q 118 486 118 588 q 153 299 118 385 q 250 149 188 213 q 397 49 313 85 q 582 14 482 14 m 472 -422 l 521 -235 q 501 -224 508 -232 q 493 -203 493 -215 q 503 -178 493 -187 q 526 -169 513 -169 q 550 -180 542 -169 q 558 -203 558 -190 q 551 -244 558 -219 l 506 -422 l 472 -422 z "},"Ġ":{"ha":1199,"x_min":83,"x_max":1081,"o":"m 876 -311 q 776 -285 824 -311 q 697 -209 728 -260 q 667 -83 667 -158 q 668 -48 667 -67 q 672 -11 669 -29 q 453 -2 558 -28 q 264 89 347 24 q 132 254 181 154 q 83 486 83 354 q 119 682 83 590 q 219 843 154 774 q 377 951 285 913 q 582 990 469 990 q 788 951 696 990 q 944 843 879 913 q 1045 682 1010 774 q 1081 486 1081 590 l 1081 -83 q 1052 -212 1081 -162 q 977 -287 1024 -262 q 876 -311 931 -311 m 874 -276 q 994 -231 943 -276 q 1046 -87 1046 -185 l 1046 374 q 872 260 939 321 q 768 139 804 200 q 718 21 732 78 q 704 -82 704 -36 q 728 -188 704 -144 q 792 -254 753 -232 q 874 -276 831 -276 m 582 14 q 631 16 610 14 q 679 24 651 18 q 735 156 694 88 q 850 290 775 224 q 1046 415 925 357 l 1046 486 q 1011 674 1046 588 q 914 824 976 760 q 767 923 851 888 q 582 958 682 958 q 397 923 482 958 q 250 824 313 888 q 153 674 188 760 q 118 486 118 588 q 153 299 118 385 q 250 149 188 213 q 397 49 313 85 q 582 14 482 14 m 575 1067 q 550 1078 561 1067 q 539 1103 539 1089 q 550 1128 539 1118 q 575 1139 561 1139 q 601 1128 590 1139 q 611 1103 611 1118 q 601 1078 611 1089 q 575 1067 590 1067 z "},"H":{"ha":950,"x_min":118,"x_max":832,"o":"m 118 0 l 118 971 l 153 971 l 153 511 l 797 511 l 797 971 l 832 971 l 832 0 l 797 0 l 797 479 l 153 479 l 153 0 l 118 0 z "},"Ħ":{"ha":950,"x_min":29,"x_max":921,"o":"m 29 721 l 29 753 l 921 753 l 921 721 l 29 721 m 118 0 l 118 971 l 153 971 l 153 511 l 797 511 l 797 971 l 832 971 l 832 0 l 797 0 l 797 479 l 153 479 l 153 0 l 118 0 z "},"Ĥ":{"ha":950,"x_min":118,"x_max":832,"o":"m 118 0 l 118 971 l 153 971 l 153 511 l 797 511 l 797 971 l 832 971 l 832 0 l 797 0 l 797 479 l 153 479 l 153 0 l 118 0 m 303 1051 l 447 1222 l 503 1222 l 647 1051 l 608 1051 l 475 1204 l 342 1051 l 303 1051 z "},"I":{"ha":589,"x_min":72,"x_max":517,"o":"m 72 0 l 72 32 l 278 32 l 278 940 l 72 940 l 72 972 l 517 972 l 517 940 l 313 940 l 313 32 l 517 32 l 517 0 l 72 0 z "},"Ĳ":{"ha":1128,"x_min":72,"x_max":1010,"o":"m 72 0 l 72 32 l 278 32 l 278 940 l 72 940 l 72 972 l 517 972 l 517 940 l 313 940 l 313 32 l 517 32 l 517 0 l 72 0 m 815 -300 q 724 -279 768 -300 q 651 -215 679 -258 q 624 -103 624 -171 q 651 39 624 -37 q 753 204 678 115 q 975 394 829 293 l 975 940 l 743 940 l 743 972 l 1010 972 l 1010 -83 q 981 -210 1010 -162 q 908 -278 953 -257 q 815 -300 864 -300 m 813 -268 q 892 -250 854 -268 q 952 -192 929 -232 q 975 -87 975 -151 l 975 353 q 774 177 842 260 q 682 24 706 94 q 658 -101 658 -46 q 706 -228 658 -187 q 813 -268 753 -268 z "},"Í":{"ha":589,"x_min":72,"x_max":517,"o":"m 72 0 l 72 32 l 278 32 l 278 940 l 72 940 l 72 972 l 517 972 l 517 940 l 313 940 l 313 32 l 517 32 l 517 0 l 72 0 m 304 1053 l 449 1224 l 488 1224 l 343 1053 l 304 1053 z "},"Ĭ":{"ha":589,"x_min":72,"x_max":517,"o":"m 72 0 l 72 32 l 278 32 l 278 940 l 72 940 l 72 972 l 517 972 l 517 940 l 313 940 l 313 32 l 517 32 l 517 0 l 72 0 m 304 1046 q 225 1065 260 1046 q 172 1122 190 1085 q 153 1211 153 1160 l 186 1211 q 219 1109 186 1146 q 304 1072 251 1072 q 389 1109 357 1072 q 421 1211 421 1146 l 454 1211 q 435 1122 454 1160 q 383 1065 417 1085 q 304 1046 349 1046 z "},"Ǐ":{"ha":589,"x_min":72,"x_max":517,"o":"m 72 0 l 72 32 l 278 32 l 278 940 l 72 940 l 72 972 l 517 972 l 517 940 l 313 940 l 313 32 l 517 32 l 517 0 l 72 0 m 267 1051 l 122 1222 l 161 1222 l 294 1069 l 428 1222 l 467 1222 l 322 1051 l 267 1051 z "},"Î":{"ha":589,"x_min":72,"x_max":517,"o":"m 72 0 l 72 32 l 278 32 l 278 940 l 72 940 l 72 972 l 517 972 l 517 940 l 313 940 l 313 32 l 517 32 l 517 0 l 72 0 m 122 1051 l 267 1222 l 322 1222 l 467 1051 l 428 1051 l 294 1204 l 161 1051 l 122 1051 z "},"Ȉ":{"ha":589,"x_min":58,"x_max":517,"o":"m 72 0 l 72 32 l 278 32 l 278 940 l 72 940 l 72 972 l 517 972 l 517 940 l 313 940 l 313 32 l 517 32 l 517 0 l 72 0 m 404 1051 l 253 1246 l 292 1246 l 443 1051 l 404 1051 m 210 1051 l 58 1246 l 97 1246 l 249 1051 l 210 1051 z "},"Ï":{"ha":589,"x_min":72,"x_max":517,"o":"m 72 0 l 72 32 l 278 32 l 278 940 l 72 940 l 72 972 l 517 972 l 517 940 l 313 940 l 313 32 l 517 32 l 517 0 l 72 0 m 401 1067 q 376 1078 388 1067 q 365 1103 365 1089 q 376 1128 365 1118 q 401 1139 388 1139 q 427 1128 417 1139 q 438 1103 438 1118 q 427 1078 438 1089 q 401 1067 417 1067 m 189 1067 q 164 1078 175 1067 q 153 1103 153 1089 q 164 1128 153 1118 q 189 1139 175 1139 q 215 1128 204 1139 q 225 1103 225 1118 q 215 1078 225 1089 q 189 1067 204 1067 z "},"İ":{"ha":589,"x_min":72,"x_max":517,"o":"m 72 0 l 72 32 l 278 32 l 278 940 l 72 940 l 72 972 l 517 972 l 517 940 l 313 940 l 313 32 l 517 32 l 517 0 l 72 0 m 296 1067 q 271 1078 282 1067 q 260 1103 260 1089 q 271 1128 260 1118 q 296 1139 282 1139 q 322 1128 311 1139 q 332 1103 332 1118 q 322 1078 332 1089 q 296 1067 311 1067 z "},"Ị":{"ha":589,"x_min":72,"x_max":517,"o":"m 72 0 l 72 32 l 278 32 l 278 940 l 72 940 l 72 972 l 517 972 l 517 940 l 313 940 l 313 32 l 517 32 l 517 0 l 72 0 m 299 -201 q 274 -190 285 -201 q 263 -165 263 -179 q 274 -140 263 -150 q 299 -129 285 -129 q 324 -140 314 -129 q 335 -165 335 -150 q 324 -190 335 -179 q 299 -201 314 -201 z "},"Ì":{"ha":589,"x_min":72,"x_max":517,"o":"m 72 0 l 72 32 l 278 32 l 278 940 l 72 940 l 72 972 l 517 972 l 517 940 l 313 940 l 313 32 l 517 32 l 517 0 l 72 0 m 278 1051 l 133 1222 l 172 1222 l 317 1051 l 278 1051 z "},"Ỉ":{"ha":589,"x_min":72,"x_max":517,"o":"m 72 0 l 72 32 l 278 32 l 278 940 l 72 940 l 72 972 l 517 972 l 517 940 l 313 940 l 313 32 l 517 32 l 517 0 l 72 0 m 244 1038 l 244 1065 q 313 1081 275 1065 q 378 1123 350 1096 q 406 1188 406 1150 q 376 1246 404 1219 q 282 1272 349 1272 q 232 1270 256 1272 q 199 1265 208 1268 l 199 1292 q 237 1297 214 1294 q 282 1300 260 1300 q 399 1270 360 1300 q 438 1189 438 1240 q 405 1106 438 1140 q 327 1055 372 1072 q 244 1038 282 1038 z "},"Ȋ":{"ha":589,"x_min":72,"x_max":517,"o":"m 296 1206 q 374 1186 340 1206 q 427 1130 408 1167 q 446 1040 446 1093 l 413 1040 q 381 1142 413 1106 q 296 1179 349 1179 q 210 1142 243 1179 q 178 1040 178 1106 l 144 1040 q 163 1130 144 1093 q 217 1186 182 1167 q 296 1206 251 1206 m 72 0 l 72 32 l 278 32 l 278 940 l 72 940 l 72 972 l 517 972 l 517 940 l 313 940 l 313 32 l 517 32 l 517 0 l 72 0 z "},"Ī":{"ha":589,"x_min":72,"x_max":517,"o":"m 72 0 l 72 32 l 278 32 l 278 940 l 72 940 l 72 972 l 517 972 l 517 940 l 313 940 l 313 32 l 517 32 l 517 0 l 72 0 m 100 1078 l 100 1110 l 489 1110 l 489 1078 l 100 1078 z "},"Į":{"ha":589,"x_min":72,"x_max":517,"o":"m 443 -303 q 346 -273 389 -303 q 303 -175 303 -243 q 321 -99 303 -136 q 367 -31 339 -62 q 424 25 394 1 l 444 0 q 372 -77 404 -31 q 339 -172 339 -124 q 370 -247 339 -224 q 440 -271 401 -271 q 476 -267 458 -271 q 517 -258 494 -264 l 517 -292 q 492 -298 511 -293 q 443 -303 472 -303 m 72 0 l 72 32 l 278 32 l 278 940 l 72 940 l 72 972 l 517 972 l 517 940 l 313 940 l 313 32 l 517 32 l 517 0 l 72 0 z "},"Ĩ":{"ha":589,"x_min":72,"x_max":517,"o":"m 72 0 l 72 32 l 278 32 l 278 940 l 72 940 l 72 972 l 517 972 l 517 940 l 313 940 l 313 32 l 517 32 l 517 0 l 72 0 m 403 1038 q 344 1052 367 1038 q 306 1088 321 1067 q 278 1131 292 1110 q 243 1175 263 1156 q 189 1194 224 1194 q 135 1165 158 1194 q 111 1082 111 1136 l 111 1051 l 78 1051 l 78 1082 q 113 1189 78 1153 q 189 1225 147 1225 q 263 1200 238 1225 q 307 1146 289 1175 q 344 1092 325 1117 q 403 1068 364 1068 q 458 1097 435 1068 q 482 1182 482 1126 l 482 1213 l 515 1213 l 515 1182 q 480 1074 515 1110 q 403 1038 444 1038 z "},"J":{"ha":539,"x_min":35,"x_max":421,"o":"m 226 -300 q 135 -279 179 -300 q 63 -215 90 -258 q 35 -103 35 -171 q 62 39 35 -37 q 165 204 89 115 q 386 394 240 293 l 386 940 l 154 940 l 154 972 l 421 972 l 421 -83 q 392 -210 421 -162 q 319 -278 364 -257 q 226 -300 275 -300 m 224 -268 q 303 -250 265 -268 q 363 -192 340 -232 q 386 -87 386 -151 l 386 353 q 185 177 253 260 q 93 24 117 94 q 69 -101 69 -46 q 117 -228 69 -187 q 224 -268 164 -268 z "},"Ĵ":{"ha":539,"x_min":35,"x_max":471,"o":"m 226 -300 q 135 -279 179 -300 q 63 -215 90 -258 q 35 -103 35 -171 q 62 39 35 -37 q 165 204 89 115 q 386 394 240 293 l 386 940 l 154 940 l 154 972 l 421 972 l 421 -83 q 392 -210 421 -162 q 319 -278 364 -257 q 226 -300 275 -300 m 224 -268 q 303 -250 265 -268 q 363 -192 340 -232 q 386 -87 386 -151 l 386 353 q 185 177 253 260 q 93 24 117 94 q 69 -101 69 -46 q 117 -228 69 -187 q 224 -268 164 -268 m 126 1053 l 271 1224 l 326 1224 l 471 1053 l 432 1053 l 299 1206 l 165 1053 l 126 1053 z "},"K":{"ha":944,"x_min":118,"x_max":900,"o":"m 118 0 l 118 972 l 153 972 l 153 483 l 507 483 q 647 510 585 483 q 745 588 708 538 q 782 710 782 639 l 782 972 l 817 972 l 817 713 q 764 557 817 621 q 622 468 711 493 l 763 114 q 802 52 781 71 q 867 33 824 33 l 900 33 l 900 0 l 863 0 q 781 24 814 0 q 729 99 749 49 l 589 460 q 547 453 568 456 q 503 451 526 451 l 153 451 l 153 0 l 118 0 z "},"Ķ":{"ha":944,"x_min":118,"x_max":900,"o":"m 118 0 l 118 972 l 153 972 l 153 483 l 507 483 q 647 510 585 483 q 745 588 708 538 q 782 710 782 639 l 782 972 l 817 972 l 817 713 q 764 557 817 621 q 622 468 711 493 l 763 114 q 802 52 781 71 q 867 33 824 33 l 900 33 l 900 0 l 863 0 q 781 24 814 0 q 729 99 749 49 l 589 460 q 547 453 568 456 q 503 451 526 451 l 153 451 l 153 0 l 118 0 m 386 -319 l 435 -132 q 415 -121 422 -129 q 407 -100 407 -112 q 417 -76 407 -85 q 440 -67 426 -67 q 464 -77 456 -67 q 472 -100 472 -87 q 465 -142 472 -117 l 419 -319 l 386 -319 z "},"L":{"ha":657,"x_min":118,"x_max":594,"o":"m 326 0 q 213 26 260 0 q 142 100 167 51 q 118 214 118 149 l 118 971 l 153 971 l 153 207 q 199 81 153 129 q 329 32 244 32 l 594 32 l 594 0 l 326 0 z "},"Ǉ":{"ha":993,"x_min":118,"x_max":817,"o":"m 326 0 q 213 26 260 0 q 142 100 167 51 q 118 214 118 149 l 118 972 l 153 972 l 153 207 q 199 81 153 129 q 329 32 244 32 l 468 32 l 468 0 l 326 0 m 622 -300 q 531 -279 575 -300 q 458 -215 486 -258 q 431 -103 431 -171 q 458 39 431 -37 q 560 204 485 115 q 782 394 636 293 l 782 940 l 550 940 l 550 972 l 817 972 l 817 -83 q 788 -210 817 -162 q 715 -278 760 -257 q 622 -300 671 -300 m 619 -268 q 699 -250 661 -268 q 759 -192 736 -232 q 782 -87 782 -151 l 782 353 q 581 177 649 260 q 489 24 513 94 q 465 -101 465 -46 q 513 -228 465 -187 q 619 -268 560 -268 z "},"Ĺ":{"ha":654,"x_min":118,"x_max":594,"o":"m 326 0 q 213 26 260 0 q 142 100 167 51 q 118 214 118 149 l 118 971 l 153 971 l 153 207 q 199 81 153 129 q 329 32 244 32 l 594 32 l 594 0 l 326 0 m 154 1053 l 299 1224 l 338 1224 l 193 1053 l 154 1053 z "},"Ľ":{"ha":654,"x_min":118,"x_max":594,"o":"m 326 0 q 213 26 260 0 q 142 100 167 51 q 118 214 118 149 l 118 971 l 153 971 l 153 207 q 199 81 153 129 q 329 32 244 32 l 594 32 l 594 0 l 326 0 m 293 871 l 342 1058 q 322 1069 329 1061 q 314 1090 314 1078 q 324 1115 314 1106 q 347 1124 333 1124 q 371 1113 363 1124 q 379 1090 379 1103 q 372 1049 379 1074 l 326 871 l 293 871 z "},"Ļ":{"ha":654,"x_min":118,"x_max":594,"o":"m 326 0 q 213 26 260 0 q 142 100 167 51 q 118 214 118 149 l 118 971 l 153 971 l 153 207 q 199 81 153 129 q 329 32 244 32 l 594 32 l 594 0 l 326 0 m 321 -319 l 369 -132 q 349 -121 357 -129 q 342 -100 342 -112 q 351 -76 342 -85 q 375 -67 361 -67 q 399 -77 390 -67 q 407 -100 407 -87 q 400 -142 407 -117 l 354 -319 l 321 -319 z "},"Ŀ":{"ha":596,"x_min":118,"x_max":474,"o":"m 438 531 q 413 542 424 531 q 401 567 401 553 q 413 592 401 582 q 438 603 424 603 q 463 592 453 603 q 474 567 474 582 q 463 542 474 553 q 438 531 453 531 m 326 0 q 213 26 260 0 q 142 100 167 51 q 118 214 118 149 l 118 972 l 153 972 l 153 207 q 199 81 153 129 q 329 32 244 32 l 385 32 l 385 0 l 326 0 z "},"ǈ":{"ha":788,"x_min":118,"x_max":669,"o":"m 326 0 q 213 26 260 0 q 142 100 167 51 q 118 214 118 149 l 118 972 l 153 972 l 153 207 q 199 81 153 129 q 329 32 244 32 l 385 32 l 385 0 l 326 0 m 390 -151 l 390 -119 l 440 -119 q 574 -72 531 -119 q 617 64 617 -25 l 617 708 l 651 708 l 651 50 q 597 -97 651 -43 q 449 -151 543 -151 l 390 -151 m 633 864 q 608 875 619 864 q 597 900 597 886 q 608 926 597 915 q 633 936 619 936 q 659 926 649 936 q 669 900 669 915 q 659 875 669 886 q 633 864 649 864 z "},"Ł":{"ha":675,"x_min":1,"x_max":594,"o":"m 1 482 l 1 515 l 450 622 l 450 589 l 1 482 m 326 0 q 213 26 260 0 q 142 100 167 51 q 118 214 118 149 l 118 971 l 153 971 l 153 207 q 199 81 153 129 q 329 32 244 32 l 594 32 l 594 0 l 326 0 z "},"M":{"ha":1519,"x_min":118,"x_max":1401,"o":"m 763 -18 q 648 12 699 -18 q 568 96 597 42 q 539 222 539 150 l 539 760 q 513 862 539 817 q 442 933 486 907 q 346 958 399 958 q 249 933 293 958 q 178 862 204 907 q 153 760 153 817 l 153 0 l 118 0 l 118 750 q 147 876 118 822 q 228 960 176 931 q 346 990 279 990 q 463 960 411 990 q 544 876 514 931 q 574 750 574 822 l 574 213 q 600 110 574 154 q 669 40 626 65 q 763 14 713 14 q 854 40 813 14 q 921 110 896 65 q 946 213 946 154 l 946 750 q 976 876 946 822 q 1057 960 1006 931 q 1175 990 1108 990 q 1292 960 1240 990 q 1372 876 1343 931 q 1401 750 1401 822 l 1401 0 l 1367 0 l 1367 760 q 1341 862 1367 817 q 1272 933 1315 907 q 1175 958 1229 958 q 1076 933 1121 958 q 1006 862 1032 907 q 981 760 981 817 l 981 222 q 953 96 981 150 q 876 12 925 42 q 763 -18 826 -18 z "},"N":{"ha":1097,"x_min":118,"x_max":979,"o":"m 763 -18 q 648 12 699 -18 q 568 96 597 42 q 539 222 539 150 l 539 760 q 513 862 539 817 q 442 933 486 907 q 346 958 399 958 q 249 933 293 958 q 178 862 204 907 q 153 760 153 817 l 153 0 l 118 0 l 118 750 q 147 876 118 822 q 228 960 176 931 q 346 990 279 990 q 463 960 411 990 q 544 876 514 931 q 574 750 574 822 l 574 213 q 600 110 574 154 q 669 40 626 65 q 763 14 713 14 q 854 40 813 14 q 920 110 896 65 q 944 213 944 154 l 944 972 l 979 972 l 979 222 q 951 96 979 150 q 875 12 924 42 q 763 -18 826 -18 z "},"Ǌ":{"ha":1724,"x_min":118,"x_max":1547,"o":"m 763 -18 q 648 12 699 -18 q 568 96 597 42 q 539 222 539 150 l 539 760 q 513 862 539 817 q 442 933 486 907 q 346 958 399 958 q 249 933 293 958 q 178 862 204 907 q 153 760 153 817 l 153 0 l 118 0 l 118 750 q 147 876 118 822 q 228 960 176 931 q 346 990 279 990 q 463 960 411 990 q 544 876 514 931 q 574 750 574 822 l 574 213 q 600 110 574 154 q 669 40 626 65 q 763 14 713 14 q 854 40 813 14 q 920 110 896 65 q 944 213 944 154 l 944 972 l 979 972 l 979 222 q 951 96 979 150 q 875 12 924 42 q 763 -18 826 -18 m 1353 -300 q 1261 -279 1306 -300 q 1189 -215 1217 -258 q 1161 -103 1161 -171 q 1188 39 1161 -37 q 1291 204 1215 115 q 1513 394 1367 293 l 1513 940 l 1281 940 l 1281 972 l 1547 972 l 1547 -83 q 1519 -210 1547 -162 q 1446 -278 1490 -257 q 1353 -300 1401 -300 m 1350 -268 q 1429 -250 1392 -268 q 1490 -192 1467 -232 q 1513 -87 1513 -151 l 1513 353 q 1311 177 1379 260 q 1219 24 1243 94 q 1196 -101 1196 -46 q 1243 -228 1196 -187 q 1350 -268 1290 -268 z "},"Ń":{"ha":1126,"x_min":118,"x_max":979,"o":"m 763 -18 q 648 12 699 -18 q 568 96 597 42 q 539 222 539 150 l 539 760 q 513 862 539 817 q 442 933 486 907 q 346 958 399 958 q 249 933 293 958 q 178 862 204 907 q 153 760 153 817 l 153 0 l 118 0 l 118 750 q 147 876 118 822 q 228 960 176 931 q 346 990 279 990 q 463 960 411 990 q 544 876 514 931 q 574 750 574 822 l 574 213 q 600 110 574 154 q 669 40 626 65 q 763 14 713 14 q 854 40 813 14 q 920 110 896 65 q 944 213 944 154 l 944 972 l 979 972 l 979 222 q 951 96 979 150 q 875 12 924 42 q 763 -18 826 -18 m 586 1053 l 731 1224 l 769 1224 l 625 1053 l 586 1053 z "},"Ň":{"ha":1097,"x_min":118,"x_max":979,"o":"m 763 -18 q 648 12 699 -18 q 568 96 597 42 q 539 222 539 150 l 539 760 q 513 862 539 817 q 442 933 486 907 q 346 958 399 958 q 249 933 293 958 q 178 862 204 907 q 153 760 153 817 l 153 0 l 118 0 l 118 750 q 147 876 118 822 q 228 960 176 931 q 346 990 279 990 q 463 960 411 990 q 544 876 514 931 q 574 750 574 822 l 574 213 q 600 110 574 154 q 669 40 626 65 q 763 14 713 14 q 854 40 813 14 q 920 110 896 65 q 944 213 944 154 l 944 972 l 979 972 l 979 222 q 951 96 979 150 q 875 12 924 42 q 763 -18 826 -18 m 535 1051 l 390 1222 l 429 1222 l 563 1069 l 696 1222 l 735 1222 l 590 1051 l 535 1051 z "},"Ņ":{"ha":1097,"x_min":118,"x_max":979,"o":"m 763 -18 q 648 12 699 -18 q 568 96 597 42 q 539 222 539 150 l 539 760 q 513 862 539 817 q 442 933 486 907 q 346 958 399 958 q 249 933 293 958 q 178 862 204 907 q 153 760 153 817 l 153 0 l 118 0 l 118 750 q 147 876 118 822 q 228 960 176 931 q 346 990 279 990 q 463 960 411 990 q 544 876 514 931 q 574 750 574 822 l 574 213 q 600 110 574 154 q 669 40 626 65 q 763 14 713 14 q 854 40 813 14 q 920 110 896 65 q 944 213 944 154 l 944 972 l 979 972 l 979 222 q 951 96 979 150 q 875 12 924 42 q 763 -18 826 -18 m 513 -319 l 561 -132 q 541 -121 549 -129 q 533 -100 533 -112 q 543 -76 533 -85 q 567 -67 553 -67 q 590 -77 582 -67 q 599 -100 599 -87 q 592 -142 599 -117 l 546 -319 l 513 -319 z "},"ǋ":{"ha":1415,"x_min":118,"x_max":1297,"o":"m 763 -18 q 648 12 699 -18 q 568 96 597 42 q 539 222 539 150 l 539 760 q 513 862 539 817 q 442 933 486 907 q 346 958 399 958 q 249 933 293 958 q 178 862 204 907 q 153 760 153 817 l 153 0 l 118 0 l 118 750 q 147 876 118 822 q 228 960 176 931 q 346 990 279 990 q 463 960 411 990 q 544 876 514 931 q 574 750 574 822 l 574 213 q 600 110 574 154 q 669 40 626 65 q 763 14 713 14 q 854 40 813 14 q 920 110 896 65 q 944 213 944 154 l 944 972 l 979 972 l 979 222 q 951 96 979 150 q 875 12 924 42 q 763 -18 826 -18 m 1018 -151 l 1018 -119 l 1068 -119 q 1201 -72 1158 -119 q 1244 64 1244 -25 l 1244 708 l 1279 708 l 1279 50 q 1225 -97 1279 -43 q 1076 -151 1171 -151 l 1018 -151 m 1261 864 q 1236 875 1247 864 q 1225 900 1225 886 q 1236 926 1225 915 q 1261 936 1247 936 q 1287 926 1276 936 q 1297 900 1297 915 q 1287 875 1297 886 q 1261 864 1276 864 z "},"Ñ":{"ha":1097,"x_min":118,"x_max":979,"o":"m 763 -18 q 648 12 699 -18 q 568 96 597 42 q 539 222 539 150 l 539 760 q 513 862 539 817 q 442 933 486 907 q 346 958 399 958 q 249 933 293 958 q 178 862 204 907 q 153 760 153 817 l 153 0 l 118 0 l 118 750 q 147 876 118 822 q 228 960 176 931 q 346 990 279 990 q 463 960 411 990 q 544 876 514 931 q 574 750 574 822 l 574 213 q 600 110 574 154 q 669 40 626 65 q 763 14 713 14 q 854 40 813 14 q 920 110 896 65 q 944 213 944 154 l 944 972 l 979 972 l 979 222 q 951 96 979 150 q 875 12 924 42 q 763 -18 826 -18 m 676 1038 q 617 1052 640 1038 q 580 1088 594 1067 q 551 1131 565 1110 q 517 1175 536 1156 q 463 1194 497 1194 q 408 1165 432 1194 q 385 1082 385 1136 l 385 1051 l 351 1051 l 351 1082 q 386 1189 351 1153 q 463 1225 421 1225 q 537 1200 511 1225 q 581 1146 563 1175 q 618 1092 599 1117 q 676 1068 638 1068 q 732 1097 708 1068 q 756 1182 756 1126 l 756 1213 l 789 1213 l 789 1182 q 753 1074 789 1110 q 676 1038 718 1038 z "},"Ŋ":{"ha":1097,"x_min":118,"x_max":979,"o":"m 718 -300 l 718 -268 l 768 -268 q 901 -221 858 -268 q 944 -85 944 -174 l 944 394 l 979 394 l 979 -99 q 955 -206 979 -161 q 885 -276 931 -251 q 776 -300 840 -300 l 718 -300 m 763 -18 q 648 12 699 -18 q 568 96 597 42 q 539 222 539 150 l 539 760 q 513 862 539 817 q 442 933 486 907 q 346 958 399 958 q 249 933 293 958 q 178 862 204 907 q 153 760 153 817 l 153 0 l 118 0 l 118 750 q 147 876 118 822 q 228 960 176 931 q 346 990 279 990 q 463 960 411 990 q 544 876 514 931 q 574 750 574 822 l 574 213 q 600 110 574 154 q 669 40 626 65 q 763 14 713 14 q 854 40 813 14 q 920 110 896 65 q 944 213 944 154 l 944 972 l 979 972 l 979 222 q 951 96 979 150 q 875 12 924 42 q 763 -18 826 -18 z "},"O":{"ha":1164,"x_min":83,"x_max":1081,"o":"m 582 -18 q 377 21 469 -18 q 219 129 285 60 q 119 290 154 199 q 83 486 83 382 q 119 682 83 590 q 219 843 154 774 q 377 951 285 913 q 582 990 469 990 q 788 951 696 990 q 944 843 879 913 q 1045 682 1010 774 q 1081 486 1081 590 q 1045 290 1081 382 q 944 129 1010 199 q 788 21 879 60 q 582 -18 696 -18 m 582 14 q 767 49 682 14 q 914 149 851 85 q 1011 299 976 213 q 1046 486 1046 385 q 1011 674 1046 588 q 914 824 976 760 q 767 923 851 888 q 582 958 682 958 q 397 923 482 958 q 250 824 313 888 q 153 674 188 760 q 118 486 118 588 q 153 299 118 385 q 250 149 188 213 q 397 49 313 85 q 582 14 482 14 z "},"Ó":{"ha":1164,"x_min":83,"x_max":1081,"o":"m 582 -18 q 377 21 469 -18 q 219 129 285 60 q 119 290 154 199 q 83 486 83 382 q 119 682 83 590 q 219 843 154 774 q 377 951 285 913 q 582 990 469 990 q 788 951 696 990 q 944 843 879 913 q 1045 682 1010 774 q 1081 486 1081 590 q 1045 290 1081 382 q 944 129 1010 199 q 788 21 879 60 q 582 -18 696 -18 m 582 14 q 767 49 682 14 q 914 149 851 85 q 1011 299 976 213 q 1046 486 1046 385 q 1011 674 1046 588 q 914 824 976 760 q 767 923 851 888 q 582 958 682 958 q 397 923 482 958 q 250 824 313 888 q 153 674 188 760 q 118 486 118 588 q 153 299 118 385 q 250 149 188 213 q 397 49 313 85 q 582 14 482 14 m 572 1051 l 717 1222 l 756 1222 l 611 1051 l 572 1051 z "},"Ŏ":{"ha":1164,"x_min":83,"x_max":1081,"o":"m 582 -18 q 377 21 469 -18 q 219 129 285 60 q 119 290 154 199 q 83 486 83 382 q 119 682 83 590 q 219 843 154 774 q 377 951 285 913 q 582 990 469 990 q 788 951 696 990 q 944 843 879 913 q 1045 682 1010 774 q 1081 486 1081 590 q 1045 290 1081 382 q 944 129 1010 199 q 788 21 879 60 q 582 -18 696 -18 m 582 14 q 767 49 682 14 q 914 149 851 85 q 1011 299 976 213 q 1046 486 1046 385 q 1011 674 1046 588 q 914 824 976 760 q 767 923 851 888 q 582 958 682 958 q 397 923 482 958 q 250 824 313 888 q 153 674 188 760 q 118 486 118 588 q 153 299 118 385 q 250 149 188 213 q 397 49 313 85 q 582 14 482 14 m 589 1044 q 510 1064 544 1044 q 456 1121 475 1083 q 438 1210 438 1158 l 471 1210 q 503 1108 471 1144 q 589 1071 536 1071 q 674 1108 642 1071 q 706 1210 706 1144 l 739 1210 q 720 1121 739 1158 q 667 1064 701 1083 q 589 1044 633 1044 z "},"Ǒ":{"ha":1164,"x_min":83,"x_max":1081,"o":"m 582 -18 q 377 21 469 -18 q 219 129 285 60 q 119 290 154 199 q 83 486 83 382 q 119 682 83 590 q 219 843 154 774 q 377 951 285 913 q 582 990 469 990 q 788 951 696 990 q 944 843 879 913 q 1045 682 1010 774 q 1081 486 1081 590 q 1045 290 1081 382 q 944 129 1010 199 q 788 21 879 60 q 582 -18 696 -18 m 582 14 q 767 49 682 14 q 914 149 851 85 q 1011 299 976 213 q 1046 486 1046 385 q 1011 674 1046 588 q 914 824 976 760 q 767 923 851 888 q 582 958 682 958 q 397 923 482 958 q 250 824 313 888 q 153 674 188 760 q 118 486 118 588 q 153 299 118 385 q 250 149 188 213 q 397 49 313 85 q 582 14 482 14 m 558 1051 l 414 1222 l 453 1222 l 586 1069 l 719 1222 l 758 1222 l 614 1051 l 558 1051 z "},"Ô":{"ha":1164,"x_min":83,"x_max":1081,"o":"m 582 -18 q 377 21 469 -18 q 219 129 285 60 q 119 290 154 199 q 83 486 83 382 q 119 682 83 590 q 219 843 154 774 q 377 951 285 913 q 582 990 469 990 q 788 951 696 990 q 944 843 879 913 q 1045 682 1010 774 q 1081 486 1081 590 q 1045 290 1081 382 q 944 129 1010 199 q 788 21 879 60 q 582 -18 696 -18 m 582 14 q 767 49 682 14 q 914 149 851 85 q 1011 299 976 213 q 1046 486 1046 385 q 1011 674 1046 588 q 914 824 976 760 q 767 923 851 888 q 582 958 682 958 q 397 923 482 958 q 250 824 313 888 q 153 674 188 760 q 118 486 118 588 q 153 299 118 385 q 250 149 188 213 q 397 49 313 85 q 582 14 482 14 m 408 1051 l 553 1222 l 608 1222 l 753 1051 l 714 1051 l 581 1204 l 447 1051 l 408 1051 z "},"Ố":{"ha":1164,"x_min":83,"x_max":1081,"o":"m 582 -18 q 377 21 469 -18 q 219 129 285 60 q 119 290 154 199 q 83 486 83 382 q 119 682 83 590 q 219 843 154 774 q 377 951 285 913 q 582 990 469 990 q 788 951 696 990 q 944 843 879 913 q 1045 682 1010 774 q 1081 486 1081 590 q 1045 290 1081 382 q 944 129 1010 199 q 788 21 879 60 q 582 -18 696 -18 m 582 14 q 767 49 682 14 q 914 149 851 85 q 1011 299 976 213 q 1046 486 1046 385 q 1011 674 1046 588 q 914 824 976 760 q 767 923 851 888 q 582 958 682 958 q 397 923 482 958 q 250 824 313 888 q 153 674 188 760 q 118 486 118 588 q 153 299 118 385 q 250 149 188 213 q 397 49 313 85 q 582 14 482 14 m 408 1051 l 553 1222 l 608 1222 l 753 1051 l 714 1051 l 581 1204 l 447 1051 l 408 1051 m 582 1264 l 726 1435 l 765 1435 l 621 1264 l 582 1264 z "},"Ộ":{"ha":1164,"x_min":83,"x_max":1081,"o":"m 582 -18 q 377 21 469 -18 q 219 129 285 60 q 119 290 154 199 q 83 486 83 382 q 119 682 83 590 q 219 843 154 774 q 377 951 285 913 q 582 990 469 990 q 788 951 696 990 q 944 843 879 913 q 1045 682 1010 774 q 1081 486 1081 590 q 1045 290 1081 382 q 944 129 1010 199 q 788 21 879 60 q 582 -18 696 -18 m 582 14 q 767 49 682 14 q 914 149 851 85 q 1011 299 976 213 q 1046 486 1046 385 q 1011 674 1046 588 q 914 824 976 760 q 767 923 851 888 q 582 958 682 958 q 397 923 482 958 q 250 824 313 888 q 153 674 188 760 q 118 486 118 588 q 153 299 118 385 q 250 149 188 213 q 397 49 313 85 q 582 14 482 14 m 408 1051 l 553 1222 l 608 1222 l 753 1051 l 714 1051 l 581 1204 l 447 1051 l 408 1051 m 583 -201 q 558 -190 569 -201 q 547 -165 547 -179 q 558 -140 547 -150 q 583 -129 569 -129 q 609 -140 599 -129 q 619 -165 619 -150 q 609 -190 619 -179 q 583 -201 599 -201 z "},"Ồ":{"ha":1164,"x_min":83,"x_max":1081,"o":"m 582 -18 q 377 21 469 -18 q 219 129 285 60 q 119 290 154 199 q 83 486 83 382 q 119 682 83 590 q 219 843 154 774 q 377 951 285 913 q 582 990 469 990 q 788 951 696 990 q 944 843 879 913 q 1045 682 1010 774 q 1081 486 1081 590 q 1045 290 1081 382 q 944 129 1010 199 q 788 21 879 60 q 582 -18 696 -18 m 582 14 q 767 49 682 14 q 914 149 851 85 q 1011 299 976 213 q 1046 486 1046 385 q 1011 674 1046 588 q 914 824 976 760 q 767 923 851 888 q 582 958 682 958 q 397 923 482 958 q 250 824 313 888 q 153 674 188 760 q 118 486 118 588 q 153 299 118 385 q 250 149 188 213 q 397 49 313 85 q 582 14 482 14 m 408 1051 l 553 1222 l 608 1222 l 753 1051 l 714 1051 l 581 1204 l 447 1051 l 408 1051 m 556 1282 l 411 1453 l 450 1453 l 594 1282 l 556 1282 z "},"Ổ":{"ha":1164,"x_min":83,"x_max":1081,"o":"m 582 -18 q 377 21 469 -18 q 219 129 285 60 q 119 290 154 199 q 83 486 83 382 q 119 682 83 590 q 219 843 154 774 q 377 951 285 913 q 582 990 469 990 q 788 951 696 990 q 944 843 879 913 q 1045 682 1010 774 q 1081 486 1081 590 q 1045 290 1081 382 q 944 129 1010 199 q 788 21 879 60 q 582 -18 696 -18 m 582 14 q 767 49 682 14 q 914 149 851 85 q 1011 299 976 213 q 1046 486 1046 385 q 1011 674 1046 588 q 914 824 976 760 q 767 923 851 888 q 582 958 682 958 q 397 923 482 958 q 250 824 313 888 q 153 674 188 760 q 118 486 118 588 q 153 299 118 385 q 250 149 188 213 q 397 49 313 85 q 582 14 482 14 m 408 1051 l 553 1222 l 608 1222 l 753 1051 l 714 1051 l 581 1204 l 447 1051 l 408 1051 m 525 1278 l 525 1306 q 593 1321 556 1306 q 658 1363 631 1336 q 686 1428 686 1390 q 657 1486 685 1460 q 563 1513 629 1513 q 513 1510 536 1513 q 479 1506 489 1508 l 479 1532 q 517 1538 494 1535 q 563 1540 540 1540 q 679 1510 640 1540 q 718 1429 718 1481 q 685 1347 718 1381 q 608 1295 653 1313 q 525 1278 563 1278 z "},"Ỗ":{"ha":1164,"x_min":83,"x_max":1081,"o":"m 582 -18 q 377 21 469 -18 q 219 129 285 60 q 119 290 154 199 q 83 486 83 382 q 119 682 83 590 q 219 843 154 774 q 377 951 285 913 q 582 990 469 990 q 788 951 696 990 q 944 843 879 913 q 1045 682 1010 774 q 1081 486 1081 590 q 1045 290 1081 382 q 944 129 1010 199 q 788 21 879 60 q 582 -18 696 -18 m 582 14 q 767 49 682 14 q 914 149 851 85 q 1011 299 976 213 q 1046 486 1046 385 q 1011 674 1046 588 q 914 824 976 760 q 767 923 851 888 q 582 958 682 958 q 397 923 482 958 q 250 824 313 888 q 153 674 188 760 q 118 486 118 588 q 153 299 118 385 q 250 149 188 213 q 397 49 313 85 q 582 14 482 14 m 408 1051 l 553 1222 l 608 1222 l 753 1051 l 714 1051 l 581 1204 l 447 1051 l 408 1051 m 693 1282 q 634 1297 657 1282 q 597 1333 611 1311 q 568 1375 582 1354 q 533 1419 553 1400 q 479 1439 514 1439 q 425 1410 449 1439 q 401 1326 401 1381 l 401 1296 l 368 1296 l 368 1326 q 403 1433 368 1397 q 479 1469 438 1469 q 553 1444 528 1469 q 597 1390 579 1419 q 635 1337 615 1361 q 693 1313 654 1313 q 749 1342 725 1313 q 772 1426 772 1371 l 772 1457 l 806 1457 l 806 1426 q 770 1318 806 1354 q 693 1282 735 1282 z "},"Ȍ":{"ha":1164,"x_min":83,"x_max":1081,"o":"m 582 -18 q 377 21 469 -18 q 219 129 285 60 q 119 290 154 199 q 83 486 83 382 q 119 682 83 590 q 219 843 154 774 q 377 951 285 913 q 582 990 469 990 q 788 951 696 990 q 944 843 879 913 q 1045 682 1010 774 q 1081 486 1081 590 q 1045 290 1081 382 q 944 129 1010 199 q 788 21 879 60 q 582 -18 696 -18 m 582 14 q 767 49 682 14 q 914 149 851 85 q 1011 299 976 213 q 1046 486 1046 385 q 1011 674 1046 588 q 914 824 976 760 q 767 923 851 888 q 582 958 682 958 q 397 923 482 958 q 250 824 313 888 q 153 674 188 760 q 118 486 118 588 q 153 299 118 385 q 250 149 188 213 q 397 49 313 85 q 582 14 482 14 m 689 1051 l 538 1246 l 576 1246 l 728 1051 l 689 1051 m 494 1051 l 343 1246 l 382 1246 l 533 1051 l 494 1051 z "},"Ö":{"ha":1164,"x_min":83,"x_max":1081,"o":"m 582 -18 q 377 21 469 -18 q 219 129 285 60 q 119 290 154 199 q 83 486 83 382 q 119 682 83 590 q 219 843 154 774 q 377 951 285 913 q 582 990 469 990 q 788 951 696 990 q 944 843 879 913 q 1045 682 1010 774 q 1081 486 1081 590 q 1045 290 1081 382 q 944 129 1010 199 q 788 21 879 60 q 582 -18 696 -18 m 582 14 q 767 49 682 14 q 914 149 851 85 q 1011 299 976 213 q 1046 486 1046 385 q 1011 674 1046 588 q 914 824 976 760 q 767 923 851 888 q 582 958 682 958 q 397 923 482 958 q 250 824 313 888 q 153 674 188 760 q 118 486 118 588 q 153 299 118 385 q 250 149 188 213 q 397 49 313 85 q 582 14 482 14 m 689 1067 q 664 1078 675 1067 q 653 1103 653 1089 q 664 1128 653 1118 q 689 1139 675 1139 q 715 1128 704 1139 q 725 1103 725 1118 q 715 1078 725 1089 q 689 1067 704 1067 m 476 1067 q 451 1078 463 1067 q 440 1103 440 1089 q 451 1128 440 1118 q 476 1139 463 1139 q 502 1128 492 1139 q 513 1103 513 1118 q 502 1078 513 1089 q 476 1067 492 1067 z "},"Ȫ":{"ha":1164,"x_min":83,"x_max":1081,"o":"m 582 -18 q 377 21 469 -18 q 219 129 285 60 q 119 290 154 199 q 83 486 83 382 q 119 682 83 590 q 219 843 154 774 q 377 951 285 913 q 582 990 469 990 q 788 951 696 990 q 944 843 879 913 q 1045 682 1010 774 q 1081 486 1081 590 q 1045 290 1081 382 q 944 129 1010 199 q 788 21 879 60 q 582 -18 696 -18 m 582 14 q 767 49 682 14 q 914 149 851 85 q 1011 299 976 213 q 1046 486 1046 385 q 1011 674 1046 588 q 914 824 976 760 q 767 923 851 888 q 582 958 682 958 q 397 923 482 958 q 250 824 313 888 q 153 674 188 760 q 118 486 118 588 q 153 299 118 385 q 250 149 188 213 q 397 49 313 85 q 582 14 482 14 m 689 1067 q 664 1078 675 1067 q 653 1103 653 1089 q 664 1128 653 1118 q 689 1139 675 1139 q 715 1128 704 1139 q 725 1103 725 1118 q 715 1078 725 1089 q 689 1067 704 1067 m 476 1067 q 451 1078 463 1067 q 440 1103 440 1089 q 451 1128 440 1118 q 476 1139 463 1139 q 502 1128 492 1139 q 513 1103 513 1118 q 502 1078 513 1089 q 476 1067 492 1067 m 388 1229 l 388 1261 l 776 1261 l 776 1229 l 388 1229 z "},"Ȱ":{"ha":1164,"x_min":83,"x_max":1081,"o":"m 582 -18 q 377 21 469 -18 q 219 129 285 60 q 119 290 154 199 q 83 486 83 382 q 119 682 83 590 q 219 843 154 774 q 377 951 285 913 q 582 990 469 990 q 788 951 696 990 q 944 843 879 913 q 1045 682 1010 774 q 1081 486 1081 590 q 1045 290 1081 382 q 944 129 1010 199 q 788 21 879 60 q 582 -18 696 -18 m 582 14 q 767 49 682 14 q 914 149 851 85 q 1011 299 976 213 q 1046 486 1046 385 q 1011 674 1046 588 q 914 824 976 760 q 767 923 851 888 q 582 958 682 958 q 397 923 482 958 q 250 824 313 888 q 153 674 188 760 q 118 486 118 588 q 153 299 118 385 q 250 149 188 213 q 397 49 313 85 q 582 14 482 14 m 582 1067 q 557 1078 568 1067 q 546 1103 546 1089 q 557 1128 546 1118 q 582 1139 568 1139 q 608 1128 597 1139 q 618 1103 618 1118 q 608 1078 618 1089 q 582 1067 597 1067 m 388 1229 l 388 1261 l 776 1261 l 776 1229 l 388 1229 z "},"Ọ":{"ha":1164,"x_min":83,"x_max":1081,"o":"m 582 -18 q 377 21 469 -18 q 219 129 285 60 q 119 290 154 199 q 83 486 83 382 q 119 682 83 590 q 219 843 154 774 q 377 951 285 913 q 582 990 469 990 q 788 951 696 990 q 944 843 879 913 q 1045 682 1010 774 q 1081 486 1081 590 q 1045 290 1081 382 q 944 129 1010 199 q 788 21 879 60 q 582 -18 696 -18 m 582 14 q 767 49 682 14 q 914 149 851 85 q 1011 299 976 213 q 1046 486 1046 385 q 1011 674 1046 588 q 914 824 976 760 q 767 923 851 888 q 582 958 682 958 q 397 923 482 958 q 250 824 313 888 q 153 674 188 760 q 118 486 118 588 q 153 299 118 385 q 250 149 188 213 q 397 49 313 85 q 582 14 482 14 m 583 -201 q 558 -190 569 -201 q 547 -165 547 -179 q 558 -140 547 -150 q 583 -129 569 -129 q 609 -140 599 -129 q 619 -165 619 -150 q 609 -190 619 -179 q 583 -201 599 -201 z "},"Ò":{"ha":1164,"x_min":83,"x_max":1081,"o":"m 582 -18 q 377 21 469 -18 q 219 129 285 60 q 119 290 154 199 q 83 486 83 382 q 119 682 83 590 q 219 843 154 774 q 377 951 285 913 q 582 990 469 990 q 788 951 696 990 q 944 843 879 913 q 1045 682 1010 774 q 1081 486 1081 590 q 1045 290 1081 382 q 944 129 1010 199 q 788 21 879 60 q 582 -18 696 -18 m 582 14 q 767 49 682 14 q 914 149 851 85 q 1011 299 976 213 q 1046 486 1046 385 q 1011 674 1046 588 q 914 824 976 760 q 767 923 851 888 q 582 958 682 958 q 397 923 482 958 q 250 824 313 888 q 153 674 188 760 q 118 486 118 588 q 153 299 118 385 q 250 149 188 213 q 397 49 313 85 q 582 14 482 14 m 571 1051 l 426 1222 l 465 1222 l 610 1051 l 571 1051 z "},"Ỏ":{"ha":1164,"x_min":83,"x_max":1081,"o":"m 582 -18 q 377 21 469 -18 q 219 129 285 60 q 119 290 154 199 q 83 486 83 382 q 119 682 83 590 q 219 843 154 774 q 377 951 285 913 q 582 990 469 990 q 788 951 696 990 q 944 843 879 913 q 1045 682 1010 774 q 1081 486 1081 590 q 1045 290 1081 382 q 944 129 1010 199 q 788 21 879 60 q 582 -18 696 -18 m 582 14 q 767 49 682 14 q 914 149 851 85 q 1011 299 976 213 q 1046 486 1046 385 q 1011 674 1046 588 q 914 824 976 760 q 767 923 851 888 q 582 958 682 958 q 397 923 482 958 q 250 824 313 888 q 153 674 188 760 q 118 486 118 588 q 153 299 118 385 q 250 149 188 213 q 397 49 313 85 q 582 14 482 14 m 511 1042 l 511 1069 q 579 1085 542 1069 q 644 1127 617 1100 q 672 1192 672 1154 q 643 1250 671 1224 q 549 1276 615 1276 q 499 1274 522 1276 q 465 1269 475 1272 l 465 1296 q 503 1301 481 1299 q 549 1304 526 1304 q 665 1274 626 1304 q 704 1193 704 1244 q 672 1110 704 1144 q 594 1059 639 1076 q 511 1042 549 1042 z "},"Ơ":{"ha":1164,"x_min":83,"x_max":1092,"o":"m 582 -18 q 377 21 469 -18 q 219 129 285 60 q 119 290 154 199 q 83 486 83 382 q 119 682 83 590 q 219 843 154 774 q 377 951 285 913 q 582 990 469 990 q 788 951 696 990 q 944 843 879 913 q 1045 682 1010 774 q 1081 486 1081 590 q 1045 290 1081 382 q 944 129 1010 199 q 788 21 879 60 q 582 -18 696 -18 m 582 14 q 767 49 682 14 q 914 149 851 85 q 1011 299 976 213 q 1046 486 1046 385 q 1011 674 1046 588 q 914 824 976 760 q 767 923 851 888 q 582 958 682 958 q 397 923 482 958 q 250 824 313 888 q 153 674 188 760 q 118 486 118 588 q 153 299 118 385 q 250 149 188 213 q 397 49 313 85 q 582 14 482 14 m 906 840 l 906 874 l 960 874 q 1030 901 1003 874 q 1057 988 1057 928 l 1057 990 l 1092 990 l 1092 988 q 1055 876 1092 911 q 949 840 1018 840 l 906 840 z "},"Ớ":{"ha":1164,"x_min":83,"x_max":1092,"o":"m 582 -18 q 377 21 469 -18 q 219 129 285 60 q 119 290 154 199 q 83 486 83 382 q 119 682 83 590 q 219 843 154 774 q 377 951 285 913 q 582 990 469 990 q 788 951 696 990 q 944 843 879 913 q 1045 682 1010 774 q 1081 486 1081 590 q 1045 290 1081 382 q 944 129 1010 199 q 788 21 879 60 q 582 -18 696 -18 m 582 14 q 767 49 682 14 q 914 149 851 85 q 1011 299 976 213 q 1046 486 1046 385 q 1011 674 1046 588 q 914 824 976 760 q 767 923 851 888 q 582 958 682 958 q 397 923 482 958 q 250 824 313 888 q 153 674 188 760 q 118 486 118 588 q 153 299 118 385 q 250 149 188 213 q 397 49 313 85 q 582 14 482 14 m 906 840 l 906 874 l 960 874 q 1030 901 1003 874 q 1057 988 1057 928 l 1057 990 l 1092 990 l 1092 988 q 1055 876 1092 911 q 949 840 1018 840 l 906 840 m 553 1050 l 697 1221 l 736 1221 l 592 1050 l 553 1050 z "},"Ợ":{"ha":1164,"x_min":83,"x_max":1092,"o":"m 582 -18 q 377 21 469 -18 q 219 129 285 60 q 119 290 154 199 q 83 486 83 382 q 119 682 83 590 q 219 843 154 774 q 377 951 285 913 q 582 990 469 990 q 788 951 696 990 q 944 843 879 913 q 1045 682 1010 774 q 1081 486 1081 590 q 1045 290 1081 382 q 944 129 1010 199 q 788 21 879 60 q 582 -18 696 -18 m 582 14 q 767 49 682 14 q 914 149 851 85 q 1011 299 976 213 q 1046 486 1046 385 q 1011 674 1046 588 q 914 824 976 760 q 767 923 851 888 q 582 958 682 958 q 397 923 482 958 q 250 824 313 888 q 153 674 188 760 q 118 486 118 588 q 153 299 118 385 q 250 149 188 213 q 397 49 313 85 q 582 14 482 14 m 906 840 l 906 874 l 960 874 q 1030 901 1003 874 q 1057 988 1057 928 l 1057 990 l 1092 990 l 1092 988 q 1055 876 1092 911 q 949 840 1018 840 l 906 840 m 583 -201 q 558 -190 569 -201 q 547 -165 547 -179 q 558 -140 547 -150 q 583 -129 569 -129 q 609 -140 599 -129 q 619 -165 619 -150 q 609 -190 619 -179 q 583 -201 599 -201 z "},"Ờ":{"ha":1164,"x_min":83,"x_max":1092,"o":"m 582 -18 q 377 21 469 -18 q 219 129 285 60 q 119 290 154 199 q 83 486 83 382 q 119 682 83 590 q 219 843 154 774 q 377 951 285 913 q 582 990 469 990 q 788 951 696 990 q 944 843 879 913 q 1045 682 1010 774 q 1081 486 1081 590 q 1045 290 1081 382 q 944 129 1010 199 q 788 21 879 60 q 582 -18 696 -18 m 582 14 q 767 49 682 14 q 914 149 851 85 q 1011 299 976 213 q 1046 486 1046 385 q 1011 674 1046 588 q 914 824 976 760 q 767 923 851 888 q 582 958 682 958 q 397 923 482 958 q 250 824 313 888 q 153 674 188 760 q 118 486 118 588 q 153 299 118 385 q 250 149 188 213 q 397 49 313 85 q 582 14 482 14 m 906 840 l 906 874 l 960 874 q 1030 901 1003 874 q 1057 988 1057 928 l 1057 990 l 1092 990 l 1092 988 q 1055 876 1092 911 q 949 840 1018 840 l 906 840 m 563 1051 l 418 1222 l 457 1222 l 601 1051 l 563 1051 z "},"Ở":{"ha":1164,"x_min":83,"x_max":1092,"o":"m 582 -18 q 377 21 469 -18 q 219 129 285 60 q 119 290 154 199 q 83 486 83 382 q 119 682 83 590 q 219 843 154 774 q 377 951 285 913 q 582 990 469 990 q 788 951 696 990 q 944 843 879 913 q 1045 682 1010 774 q 1081 486 1081 590 q 1045 290 1081 382 q 944 129 1010 199 q 788 21 879 60 q 582 -18 696 -18 m 582 14 q 767 49 682 14 q 914 149 851 85 q 1011 299 976 213 q 1046 486 1046 385 q 1011 674 1046 588 q 914 824 976 760 q 767 923 851 888 q 582 958 682 958 q 397 923 482 958 q 250 824 313 888 q 153 674 188 760 q 118 486 118 588 q 153 299 118 385 q 250 149 188 213 q 397 49 313 85 q 582 14 482 14 m 906 840 l 906 874 l 960 874 q 1030 901 1003 874 q 1057 988 1057 928 l 1057 990 l 1092 990 l 1092 988 q 1055 876 1092 911 q 949 840 1018 840 l 906 840 m 532 1053 l 532 1081 q 600 1096 563 1081 q 665 1138 638 1111 q 693 1203 693 1165 q 664 1261 692 1235 q 569 1288 636 1288 q 519 1285 543 1288 q 486 1281 496 1283 l 486 1307 q 524 1313 501 1310 q 569 1315 547 1315 q 686 1285 647 1315 q 725 1204 725 1256 q 692 1122 725 1156 q 615 1070 660 1088 q 532 1053 569 1053 z "},"Ỡ":{"ha":1164,"x_min":83,"x_max":1092,"o":"m 582 -18 q 377 21 469 -18 q 219 129 285 60 q 119 290 154 199 q 83 486 83 382 q 119 682 83 590 q 219 843 154 774 q 377 951 285 913 q 582 990 469 990 q 788 951 696 990 q 944 843 879 913 q 1045 682 1010 774 q 1081 486 1081 590 q 1045 290 1081 382 q 944 129 1010 199 q 788 21 879 60 q 582 -18 696 -18 m 582 14 q 767 49 682 14 q 914 149 851 85 q 1011 299 976 213 q 1046 486 1046 385 q 1011 674 1046 588 q 914 824 976 760 q 767 923 851 888 q 582 958 682 958 q 397 923 482 958 q 250 824 313 888 q 153 674 188 760 q 118 486 118 588 q 153 299 118 385 q 250 149 188 213 q 397 49 313 85 q 582 14 482 14 m 906 840 l 906 874 l 960 874 q 1030 901 1003 874 q 1057 988 1057 928 l 1057 990 l 1092 990 l 1092 988 q 1055 876 1092 911 q 949 840 1018 840 l 906 840 m 690 1039 q 631 1053 654 1039 q 594 1090 608 1068 q 565 1132 579 1111 q 531 1176 550 1157 q 476 1196 511 1196 q 422 1167 446 1196 q 399 1083 399 1138 l 399 1053 l 365 1053 l 365 1083 q 400 1190 365 1154 q 476 1226 435 1226 q 551 1201 525 1226 q 594 1147 576 1176 q 632 1094 613 1118 q 690 1069 651 1069 q 746 1099 722 1069 q 769 1183 769 1128 l 769 1214 l 803 1214 l 803 1183 q 767 1075 803 1111 q 690 1039 732 1039 z "},"Ő":{"ha":1164,"x_min":83,"x_max":1081,"o":"m 582 -18 q 377 21 469 -18 q 219 129 285 60 q 119 290 154 199 q 83 486 83 382 q 119 682 83 590 q 219 843 154 774 q 377 951 285 913 q 582 990 469 990 q 788 951 696 990 q 944 843 879 913 q 1045 682 1010 774 q 1081 486 1081 590 q 1045 290 1081 382 q 944 129 1010 199 q 788 21 879 60 q 582 -18 696 -18 m 582 14 q 767 49 682 14 q 914 149 851 85 q 1011 299 976 213 q 1046 486 1046 385 q 1011 674 1046 588 q 914 824 976 760 q 767 923 851 888 q 582 958 682 958 q 397 923 482 958 q 250 824 313 888 q 153 674 188 760 q 118 486 118 588 q 153 299 118 385 q 250 149 188 213 q 397 49 313 85 q 582 14 482 14 m 653 1051 l 783 1222 l 822 1222 l 692 1051 l 653 1051 m 457 1051 l 588 1222 l 626 1222 l 496 1051 l 457 1051 z "},"Ȏ":{"ha":1164,"x_min":83,"x_max":1081,"o":"m 582 1204 q 660 1185 626 1204 q 713 1128 694 1165 q 732 1039 732 1092 l 699 1039 q 667 1141 699 1104 q 582 1178 635 1178 q 497 1141 529 1178 q 464 1039 464 1104 l 431 1039 q 449 1128 431 1092 q 503 1185 468 1165 q 582 1204 538 1204 m 582 -18 q 377 21 469 -18 q 219 129 285 60 q 119 290 154 199 q 83 486 83 382 q 119 682 83 590 q 219 843 154 774 q 377 951 285 913 q 582 990 469 990 q 788 951 696 990 q 944 843 879 913 q 1045 682 1010 774 q 1081 486 1081 590 q 1045 290 1081 382 q 944 129 1010 199 q 788 21 879 60 q 582 -18 696 -18 m 582 14 q 767 49 682 14 q 914 149 851 85 q 1011 299 976 213 q 1046 486 1046 385 q 1011 674 1046 588 q 914 824 976 760 q 767 923 851 888 q 582 958 682 958 q 397 923 482 958 q 250 824 313 888 q 153 674 188 760 q 118 486 118 588 q 153 299 118 385 q 250 149 188 213 q 397 49 313 85 q 582 14 482 14 z "},"Ō":{"ha":1164,"x_min":83,"x_max":1081,"o":"m 582 -18 q 377 21 469 -18 q 219 129 285 60 q 119 290 154 199 q 83 486 83 382 q 119 682 83 590 q 219 843 154 774 q 377 951 285 913 q 582 990 469 990 q 788 951 696 990 q 944 843 879 913 q 1045 682 1010 774 q 1081 486 1081 590 q 1045 290 1081 382 q 944 129 1010 199 q 788 21 879 60 q 582 -18 696 -18 m 582 14 q 767 49 682 14 q 914 149 851 85 q 1011 299 976 213 q 1046 486 1046 385 q 1011 674 1046 588 q 914 824 976 760 q 767 923 851 888 q 582 958 682 958 q 397 923 482 958 q 250 824 313 888 q 153 674 188 760 q 118 486 118 588 q 153 299 118 385 q 250 149 188 213 q 397 49 313 85 q 582 14 482 14 m 392 1076 l 392 1108 l 781 1108 l 781 1076 l 392 1076 z "},"Ǫ":{"ha":1164,"x_min":83,"x_max":1081,"o":"m 713 -314 q 590 -276 636 -314 q 543 -165 543 -237 q 552 -110 543 -137 q 575 -54 561 -82 q 606 -1 589 -26 l 646 -1 q 599 -82 619 -37 q 579 -168 579 -126 q 614 -251 579 -221 q 708 -281 649 -281 q 743 -277 725 -281 q 783 -268 761 -274 l 783 -303 q 759 -309 778 -304 q 713 -314 740 -314 m 582 -18 q 377 21 469 -18 q 219 129 285 60 q 119 290 154 199 q 83 486 83 382 q 119 682 83 590 q 219 843 154 774 q 377 951 285 913 q 582 990 469 990 q 788 951 696 990 q 944 843 879 913 q 1045 682 1010 774 q 1081 486 1081 590 q 1045 290 1081 382 q 944 129 1010 199 q 788 21 879 60 q 582 -18 696 -18 m 582 14 q 767 49 682 14 q 914 149 851 85 q 1011 299 976 213 q 1046 486 1046 385 q 1011 674 1046 588 q 914 824 976 760 q 767 923 851 888 q 582 958 682 958 q 397 923 482 958 q 250 824 313 888 q 153 674 188 760 q 118 486 118 588 q 153 299 118 385 q 250 149 188 213 q 397 49 313 85 q 582 14 482 14 z "},"Ø":{"ha":1164,"x_min":72,"x_max":1093,"o":"m 582 -18 q 387 17 475 -18 q 233 115 299 53 l 118 0 l 72 0 l 211 139 q 117 296 150 207 q 83 486 83 385 q 119 682 83 590 q 219 843 154 774 q 377 951 285 913 q 582 990 469 990 q 777 955 689 990 q 929 858 865 919 l 1044 974 l 1093 974 l 953 833 q 1047 676 1014 765 q 1081 486 1081 588 q 1045 290 1081 382 q 944 129 1010 199 q 788 21 879 60 q 582 -18 696 -18 m 582 14 q 767 49 682 14 q 914 149 851 85 q 1011 299 976 213 q 1046 486 1046 385 q 1015 664 1046 582 q 928 808 985 746 l 258 140 q 402 47 319 81 q 582 14 485 14 m 236 164 l 904 833 q 761 925 843 892 q 582 958 679 958 q 397 923 482 958 q 250 824 313 888 q 153 674 188 760 q 118 486 118 588 q 149 309 118 392 q 236 164 181 226 z "},"Ǿ":{"ha":1164,"x_min":72,"x_max":1093,"o":"m 582 -18 q 387 17 475 -18 q 233 115 299 53 l 118 0 l 72 0 l 211 139 q 117 296 150 207 q 83 486 83 385 q 119 682 83 590 q 219 843 154 774 q 377 951 285 913 q 582 990 469 990 q 777 955 689 990 q 929 858 865 919 l 1044 974 l 1093 974 l 953 833 q 1047 676 1014 765 q 1081 486 1081 588 q 1045 290 1081 382 q 944 129 1010 199 q 788 21 879 60 q 582 -18 696 -18 m 582 14 q 767 49 682 14 q 914 149 851 85 q 1011 299 976 213 q 1046 486 1046 385 q 1015 664 1046 582 q 928 808 985 746 l 258 140 q 402 47 319 81 q 582 14 485 14 m 236 164 l 904 833 q 761 925 843 892 q 582 958 679 958 q 397 923 482 958 q 250 824 313 888 q 153 674 188 760 q 118 486 118 588 q 149 309 118 392 q 236 164 181 226 m 576 1051 l 721 1222 l 760 1222 l 615 1051 l 576 1051 z "},"Õ":{"ha":1164,"x_min":83,"x_max":1081,"o":"m 582 -18 q 377 21 469 -18 q 219 129 285 60 q 119 290 154 199 q 83 486 83 382 q 119 682 83 590 q 219 843 154 774 q 377 951 285 913 q 582 990 469 990 q 788 951 696 990 q 944 843 879 913 q 1045 682 1010 774 q 1081 486 1081 590 q 1045 290 1081 382 q 944 129 1010 199 q 788 21 879 60 q 582 -18 696 -18 m 582 14 q 767 49 682 14 q 914 149 851 85 q 1011 299 976 213 q 1046 486 1046 385 q 1011 674 1046 588 q 914 824 976 760 q 767 923 851 888 q 582 958 682 958 q 397 923 482 958 q 250 824 313 888 q 153 674 188 760 q 118 486 118 588 q 153 299 118 385 q 250 149 188 213 q 397 49 313 85 q 582 14 482 14 m 686 1038 q 627 1052 650 1038 q 590 1088 604 1067 q 561 1131 575 1110 q 526 1175 546 1156 q 472 1194 507 1194 q 418 1165 442 1194 q 394 1082 394 1136 l 394 1051 l 361 1051 l 361 1082 q 396 1189 361 1153 q 472 1225 431 1225 q 547 1200 521 1225 q 590 1146 572 1175 q 628 1092 608 1117 q 686 1068 647 1068 q 742 1097 718 1068 q 765 1182 765 1126 l 765 1213 l 799 1213 l 799 1182 q 763 1074 799 1110 q 686 1038 728 1038 z "},"Ȭ":{"ha":1164,"x_min":83,"x_max":1081,"o":"m 582 -18 q 377 21 469 -18 q 219 129 285 60 q 119 290 154 199 q 83 486 83 382 q 119 682 83 590 q 219 843 154 774 q 377 951 285 913 q 582 990 469 990 q 788 951 696 990 q 944 843 879 913 q 1045 682 1010 774 q 1081 486 1081 590 q 1045 290 1081 382 q 944 129 1010 199 q 788 21 879 60 q 582 -18 696 -18 m 582 14 q 767 49 682 14 q 914 149 851 85 q 1011 299 976 213 q 1046 486 1046 385 q 1011 674 1046 588 q 914 824 976 760 q 767 923 851 888 q 582 958 682 958 q 397 923 482 958 q 250 824 313 888 q 153 674 188 760 q 118 486 118 588 q 153 299 118 385 q 250 149 188 213 q 397 49 313 85 q 582 14 482 14 m 686 1038 q 627 1052 650 1038 q 590 1088 604 1067 q 561 1131 575 1110 q 526 1175 546 1156 q 472 1194 507 1194 q 418 1165 442 1194 q 394 1082 394 1136 l 394 1051 l 361 1051 l 361 1082 q 396 1189 361 1153 q 472 1225 431 1225 q 547 1200 521 1225 q 590 1146 572 1175 q 628 1092 608 1117 q 686 1068 647 1068 q 742 1097 718 1068 q 765 1182 765 1126 l 765 1213 l 799 1213 l 799 1182 q 763 1074 799 1110 q 686 1038 728 1038 m 388 1286 l 388 1318 l 776 1318 l 776 1286 l 388 1286 z "},"Œ":{"ha":1578,"x_min":83,"x_max":1508,"o":"m 582 -18 q 377 21 469 -18 q 219 129 285 60 q 119 290 154 199 q 83 486 83 382 q 119 682 83 590 q 219 843 154 774 q 377 951 285 913 q 582 990 469 990 q 784 952 693 990 q 939 849 875 914 q 1026 938 968 904 q 1147 971 1083 971 l 1508 971 l 1508 939 l 1151 939 q 1040 908 1092 939 q 963 822 989 876 q 1081 511 1072 693 l 1453 511 l 1453 479 l 1081 479 q 1047 296 1079 382 q 958 144 1015 210 q 1033 64 983 96 q 1156 32 1082 32 l 1508 32 l 1508 0 l 1146 0 q 1016 33 1069 0 q 932 117 963 65 q 779 18 868 54 q 582 -18 690 -18 m 582 14 q 767 49 682 14 q 914 149 851 85 q 1011 299 976 213 q 1046 486 1046 385 q 1011 674 1046 588 q 914 824 976 760 q 767 923 851 888 q 582 958 682 958 q 397 923 482 958 q 250 824 313 888 q 153 674 188 760 q 118 486 118 588 q 153 299 118 385 q 250 149 188 213 q 397 49 313 85 q 582 14 482 14 z "},"P":{"ha":924,"x_min":118,"x_max":840,"o":"m 118 0 l 118 972 l 532 972 q 687 935 617 972 q 799 830 757 897 q 840 672 840 763 q 801 519 840 586 q 690 413 761 451 q 524 375 619 375 l 153 375 l 153 0 l 118 0 m 153 407 l 521 407 q 665 438 600 407 q 767 529 729 469 q 806 672 806 589 q 767 817 806 757 q 665 908 729 876 q 526 940 601 940 l 153 940 l 153 407 z "},"Þ":{"ha":924,"x_min":118,"x_max":840,"o":"m 118 0 l 118 972 l 153 972 l 153 785 l 532 785 q 687 747 617 785 q 799 642 757 710 q 840 485 840 575 q 801 331 840 399 q 690 226 761 264 q 524 188 619 188 l 153 188 l 153 0 l 118 0 m 153 219 l 521 219 q 665 251 600 219 q 767 342 729 282 q 806 485 806 401 q 767 629 806 569 q 665 721 729 689 q 526 753 601 753 l 153 753 l 153 219 z "},"Q":{"ha":1164,"x_min":83,"x_max":1081,"o":"m 565 -282 l 565 0 l 600 0 l 600 -282 l 565 -282 m 582 -18 q 377 21 469 -18 q 219 129 285 60 q 119 290 154 199 q 83 486 83 382 q 119 682 83 590 q 219 843 154 774 q 377 951 285 913 q 582 990 469 990 q 788 951 696 990 q 944 843 879 913 q 1045 682 1010 774 q 1081 486 1081 590 q 1045 290 1081 382 q 944 129 1010 199 q 788 21 879 60 q 582 -18 696 -18 m 582 14 q 767 49 682 14 q 914 149 851 85 q 1011 299 976 213 q 1046 486 1046 385 q 1011 674 1046 588 q 914 824 976 760 q 767 923 851 888 q 582 958 682 958 q 397 923 482 958 q 250 824 313 888 q 153 674 188 760 q 118 486 118 588 q 153 299 118 385 q 250 149 188 213 q 397 49 313 85 q 582 14 482 14 z "},"R":{"ha":931,"x_min":118,"x_max":900,"o":"m 118 0 l 118 972 l 532 972 q 687 936 617 972 q 799 834 757 900 q 840 681 840 768 q 785 508 840 582 q 636 407 731 435 l 761 114 q 802 52 781 71 q 867 33 824 33 l 900 33 l 900 0 l 863 0 q 783 25 814 0 q 729 99 753 50 l 603 397 q 565 392 585 394 q 524 390 544 390 l 153 390 l 153 0 l 118 0 m 153 422 l 521 422 q 665 453 600 422 q 767 541 729 483 q 806 681 806 599 q 767 821 806 763 q 665 910 729 879 q 526 940 601 940 l 153 940 l 153 422 z "},"Ŕ":{"ha":931,"x_min":118,"x_max":900,"o":"m 118 0 l 118 972 l 532 972 q 687 936 617 972 q 799 834 757 900 q 840 681 840 768 q 785 508 840 582 q 636 407 731 435 l 761 114 q 802 52 781 71 q 867 33 824 33 l 900 33 l 900 0 l 863 0 q 783 25 814 0 q 729 99 753 50 l 603 397 q 565 392 585 394 q 524 390 544 390 l 153 390 l 153 0 l 118 0 m 153 422 l 521 422 q 665 453 600 422 q 767 541 729 483 q 806 681 806 599 q 767 821 806 763 q 665 910 729 879 q 526 940 601 940 l 153 940 l 153 422 m 417 1053 l 561 1224 l 600 1224 l 456 1053 l 417 1053 z "},"Ř":{"ha":931,"x_min":118,"x_max":900,"o":"m 118 0 l 118 972 l 532 972 q 687 936 617 972 q 799 834 757 900 q 840 681 840 768 q 785 508 840 582 q 636 407 731 435 l 761 114 q 802 52 781 71 q 867 33 824 33 l 900 33 l 900 0 l 863 0 q 783 25 814 0 q 729 99 753 50 l 603 397 q 565 392 585 394 q 524 390 544 390 l 153 390 l 153 0 l 118 0 m 153 422 l 521 422 q 665 453 600 422 q 767 541 729 483 q 806 681 806 599 q 767 821 806 763 q 665 910 729 879 q 526 940 601 940 l 153 940 l 153 422 m 429 1051 l 285 1222 l 324 1222 l 457 1069 l 590 1222 l 629 1222 l 485 1051 l 429 1051 z "},"Ŗ":{"ha":931,"x_min":118,"x_max":900,"o":"m 118 0 l 118 972 l 532 972 q 687 936 617 972 q 799 834 757 900 q 840 681 840 768 q 785 508 840 582 q 636 407 731 435 l 761 114 q 802 52 781 71 q 867 33 824 33 l 900 33 l 900 0 l 863 0 q 783 25 814 0 q 729 99 753 50 l 603 397 q 565 392 585 394 q 524 390 544 390 l 153 390 l 153 0 l 118 0 m 153 422 l 521 422 q 665 453 600 422 q 767 541 729 483 q 806 681 806 599 q 767 821 806 763 q 665 910 729 879 q 526 940 601 940 l 153 940 l 153 422 m 406 -319 l 454 -132 q 434 -121 442 -129 q 426 -100 426 -112 q 436 -76 426 -85 q 460 -67 446 -67 q 483 -77 475 -67 q 492 -100 492 -87 q 485 -142 492 -117 l 439 -319 l 406 -319 z "},"Ȑ":{"ha":931,"x_min":118,"x_max":900,"o":"m 118 0 l 118 972 l 532 972 q 687 936 617 972 q 799 834 757 900 q 840 681 840 768 q 785 508 840 582 q 636 407 731 435 l 761 114 q 802 52 781 71 q 867 33 824 33 l 900 33 l 900 0 l 863 0 q 783 25 814 0 q 729 99 753 50 l 603 397 q 565 392 585 394 q 524 390 544 390 l 153 390 l 153 0 l 118 0 m 153 422 l 521 422 q 665 453 600 422 q 767 541 729 483 q 806 681 806 599 q 767 821 806 763 q 665 910 729 879 q 526 940 601 940 l 153 940 l 153 422 m 529 1051 l 378 1246 l 417 1246 l 568 1051 l 529 1051 m 335 1051 l 183 1246 l 222 1246 l 374 1051 l 335 1051 z "},"Ȓ":{"ha":931,"x_min":118,"x_max":900,"o":"m 444 1204 q 523 1185 489 1204 q 576 1128 557 1165 q 594 1039 594 1092 l 561 1039 q 529 1141 561 1104 q 444 1178 497 1178 q 359 1141 392 1178 q 326 1039 326 1104 l 293 1039 q 312 1128 293 1092 q 365 1185 331 1165 q 444 1204 400 1204 m 118 0 l 118 972 l 532 972 q 687 936 617 972 q 799 834 757 900 q 840 681 840 768 q 785 508 840 582 q 636 407 731 435 l 761 114 q 802 52 781 71 q 867 33 824 33 l 900 33 l 900 0 l 863 0 q 783 25 814 0 q 729 99 753 50 l 603 397 q 565 392 585 394 q 524 390 544 390 l 153 390 l 153 0 l 118 0 m 153 422 l 521 422 q 665 453 600 422 q 767 541 729 483 q 806 681 806 599 q 767 821 806 763 q 665 910 729 879 q 526 940 601 940 l 153 940 l 153 422 z "},"S":{"ha":874,"x_min":76,"x_max":797,"o":"m 108 0 l 108 32 l 536 32 q 662 66 611 32 q 738 153 713 100 q 763 261 763 206 q 739 367 763 317 q 667 448 715 417 q 544 479 618 479 l 329 479 q 190 514 246 479 q 105 604 133 549 q 76 719 76 660 q 106 840 76 782 q 193 935 135 899 q 338 972 251 972 l 735 972 l 735 940 l 338 940 q 215 908 265 940 q 138 826 164 876 q 111 724 111 776 q 135 623 111 672 q 208 542 160 574 q 329 511 257 511 l 544 511 q 685 476 629 511 q 769 385 742 442 q 797 265 797 329 q 769 139 797 200 q 682 39 740 78 q 536 0 624 0 l 108 0 z "},"Ś":{"ha":874,"x_min":76,"x_max":797,"o":"m 108 0 l 108 32 l 536 32 q 662 66 611 32 q 738 153 713 100 q 763 261 763 206 q 739 367 763 317 q 667 448 715 417 q 544 479 618 479 l 329 479 q 190 514 246 479 q 105 604 133 549 q 76 719 76 660 q 106 840 76 782 q 193 935 135 899 q 338 972 251 972 l 735 972 l 735 940 l 338 940 q 215 908 265 940 q 138 826 164 876 q 111 724 111 776 q 135 623 111 672 q 208 542 160 574 q 329 511 257 511 l 544 511 q 685 476 629 511 q 769 385 742 442 q 797 265 797 329 q 769 139 797 200 q 682 39 740 78 q 536 0 624 0 l 108 0 m 406 1051 l 550 1222 l 589 1222 l 444 1051 l 406 1051 z "},"Š":{"ha":874,"x_min":76,"x_max":797,"o":"m 108 0 l 108 32 l 536 32 q 662 66 611 32 q 738 153 713 100 q 763 261 763 206 q 739 367 763 317 q 667 448 715 417 q 544 479 618 479 l 329 479 q 190 514 246 479 q 105 604 133 549 q 76 719 76 660 q 106 840 76 782 q 193 935 135 899 q 338 972 251 972 l 735 972 l 735 940 l 338 940 q 215 908 265 940 q 138 826 164 876 q 111 724 111 776 q 135 623 111 672 q 208 542 160 574 q 329 511 257 511 l 544 511 q 685 476 629 511 q 769 385 742 442 q 797 265 797 329 q 769 139 797 200 q 682 39 740 78 q 536 0 624 0 l 108 0 m 411 1051 l 267 1222 l 306 1222 l 439 1069 l 572 1222 l 611 1222 l 467 1051 l 411 1051 z "},"Ş":{"ha":869,"x_min":76,"x_max":797,"o":"m 108 0 l 108 32 l 536 32 q 662 66 611 32 q 738 153 713 100 q 763 261 763 206 q 739 367 763 317 q 667 448 715 417 q 544 479 618 479 l 329 479 q 190 514 246 479 q 105 604 133 549 q 76 719 76 660 q 106 840 76 782 q 193 935 135 899 q 338 972 251 972 l 735 972 l 735 940 l 338 940 q 215 908 265 940 q 138 826 164 876 q 111 724 111 776 q 135 623 111 672 q 208 542 160 574 q 329 511 257 511 l 544 511 q 685 476 629 511 q 769 385 742 442 q 797 265 797 329 q 769 139 797 200 q 682 39 740 78 q 536 0 624 0 l 108 0 m 322 -282 l 446 19 l 486 19 l 357 -282 l 322 -282 z "},"Ŝ":{"ha":869,"x_min":76,"x_max":797,"o":"m 108 0 l 108 32 l 536 32 q 662 66 611 32 q 738 153 713 100 q 763 261 763 206 q 739 367 763 317 q 667 448 715 417 q 544 479 618 479 l 329 479 q 190 514 246 479 q 105 604 133 549 q 76 719 76 660 q 106 840 76 782 q 193 935 135 899 q 338 972 251 972 l 735 972 l 735 940 l 338 940 q 215 908 265 940 q 138 826 164 876 q 111 724 111 776 q 135 623 111 672 q 208 542 160 574 q 329 511 257 511 l 544 511 q 685 476 629 511 q 769 385 742 442 q 797 265 797 329 q 769 139 797 200 q 682 39 740 78 q 536 0 624 0 l 108 0 m 267 1051 l 411 1222 l 467 1222 l 611 1051 l 572 1051 l 439 1204 l 306 1051 l 267 1051 z "},"Ș":{"ha":869,"x_min":76,"x_max":797,"o":"m 108 0 l 108 32 l 536 32 q 662 66 611 32 q 738 153 713 100 q 763 261 763 206 q 739 367 763 317 q 667 448 715 417 q 544 479 618 479 l 329 479 q 190 514 246 479 q 105 604 133 549 q 76 719 76 660 q 106 840 76 782 q 193 935 135 899 q 338 972 251 972 l 735 972 l 735 940 l 338 940 q 215 908 265 940 q 138 826 164 876 q 111 724 111 776 q 135 623 111 672 q 208 542 160 574 q 329 511 257 511 l 544 511 q 685 476 629 511 q 769 385 742 442 q 797 265 797 329 q 769 139 797 200 q 682 39 740 78 q 536 0 624 0 l 108 0 m 397 -319 l 446 -132 q 426 -121 433 -129 q 418 -100 418 -112 q 428 -76 418 -85 q 451 -67 438 -67 q 475 -77 467 -67 q 483 -100 483 -87 q 476 -142 483 -117 l 431 -319 l 397 -319 z "},"ẞ":{"ha":963,"x_min":118,"x_max":900,"o":"m 118 0 l 118 614 q 163 814 118 729 q 288 944 207 899 q 475 990 368 990 q 636 955 567 990 q 751 863 706 919 q 815 746 797 807 l 588 533 q 817 449 733 524 q 900 258 900 374 q 870 133 900 192 q 784 37 840 74 q 649 0 728 0 l 471 0 l 471 32 l 644 32 q 763 65 714 32 q 839 149 813 97 q 865 258 865 200 q 836 372 865 318 q 742 463 807 426 q 567 506 676 500 l 540 507 l 540 528 l 778 754 q 656 906 739 853 q 474 958 574 958 q 303 915 375 958 q 192 797 231 872 q 153 621 153 721 l 153 0 l 118 0 z "},"T":{"ha":799,"x_min":49,"x_max":750,"o":"m 590 0 q 477 26 524 0 q 406 100 431 51 q 382 214 382 149 l 382 940 l 49 940 l 49 972 l 750 972 l 750 940 l 417 940 l 417 207 q 463 81 417 129 q 593 32 508 32 l 649 32 l 649 0 l 590 0 z "},"Ŧ":{"ha":799,"x_min":49,"x_max":750,"o":"m 590 0 q 477 26 524 0 q 406 100 431 51 q 382 214 382 149 l 382 564 l 104 564 l 104 596 l 382 596 l 382 940 l 49 940 l 49 972 l 750 972 l 750 940 l 417 940 l 417 596 l 696 596 l 696 564 l 417 564 l 417 207 q 463 81 417 129 q 593 32 508 32 l 649 32 l 649 0 l 590 0 z "},"Ť":{"ha":799,"x_min":49,"x_max":750,"o":"m 590 0 q 477 26 524 0 q 406 100 431 51 q 382 214 382 149 l 382 940 l 49 940 l 49 972 l 750 972 l 750 940 l 417 940 l 417 207 q 463 81 417 129 q 593 32 508 32 l 649 32 l 649 0 l 590 0 m 378 1051 l 233 1222 l 272 1222 l 406 1069 l 539 1222 l 578 1222 l 433 1051 l 378 1051 z "},"Ţ":{"ha":799,"x_min":49,"x_max":750,"o":"m 492 -282 l 615 19 l 649 14 l 649 0 l 526 -282 l 492 -282 m 590 0 q 477 26 524 0 q 406 100 431 51 q 382 214 382 149 l 382 940 l 49 940 l 49 972 l 750 972 l 750 940 l 417 940 l 417 207 q 463 81 417 129 q 593 32 508 32 l 649 32 l 649 0 l 590 0 z "},"Ț":{"ha":799,"x_min":49,"x_max":750,"o":"m 590 0 q 477 26 524 0 q 406 100 431 51 q 382 214 382 149 l 382 940 l 49 940 l 49 972 l 750 972 l 750 940 l 417 940 l 417 207 q 463 81 417 129 q 593 32 508 32 l 649 32 l 649 0 l 590 0 m 426 -339 l 475 -151 q 455 -140 463 -149 q 447 -119 447 -132 q 457 -95 447 -104 q 481 -86 467 -86 q 504 -97 496 -86 q 513 -119 513 -107 q 506 -161 513 -136 l 460 -339 l 426 -339 z "},"U":{"ha":951,"x_min":118,"x_max":833,"o":"m 476 -18 q 291 28 372 -18 q 164 162 210 75 q 118 367 118 249 l 118 972 l 153 972 l 153 351 q 192 183 153 260 q 304 61 232 107 q 476 15 376 15 q 649 61 576 15 q 760 183 721 107 q 799 351 799 260 l 799 972 l 833 972 l 833 367 q 788 162 833 249 q 661 28 742 75 q 476 -18 581 -18 z "},"Ú":{"ha":951,"x_min":118,"x_max":833,"o":"m 476 -18 q 291 28 372 -18 q 164 162 210 75 q 118 367 118 249 l 118 972 l 153 972 l 153 351 q 192 183 153 260 q 304 61 232 107 q 476 15 376 15 q 649 61 576 15 q 760 183 721 107 q 799 351 799 260 l 799 972 l 833 972 l 833 367 q 788 162 833 249 q 661 28 742 75 q 476 -18 581 -18 m 463 1051 l 607 1222 l 646 1222 l 501 1051 l 463 1051 z "},"Ŭ":{"ha":951,"x_min":118,"x_max":833,"o":"m 476 -18 q 291 28 372 -18 q 164 162 210 75 q 118 367 118 249 l 118 972 l 153 972 l 153 351 q 192 183 153 260 q 304 61 232 107 q 476 15 376 15 q 649 61 576 15 q 760 183 721 107 q 799 351 799 260 l 799 972 l 833 972 l 833 367 q 788 162 833 249 q 661 28 742 75 q 476 -18 581 -18 m 482 1058 q 403 1078 438 1058 q 349 1135 368 1097 q 331 1224 331 1172 l 364 1224 q 397 1122 364 1158 q 482 1085 429 1085 q 567 1122 535 1085 q 599 1224 599 1158 l 632 1224 q 613 1135 632 1172 q 560 1078 594 1097 q 482 1058 526 1058 z "},"Ǔ":{"ha":951,"x_min":118,"x_max":833,"o":"m 476 -18 q 291 28 372 -18 q 164 162 210 75 q 118 367 118 249 l 118 972 l 153 972 l 153 351 q 192 183 153 260 q 304 61 232 107 q 476 15 376 15 q 649 61 576 15 q 760 183 721 107 q 799 351 799 260 l 799 972 l 833 972 l 833 367 q 788 162 833 249 q 661 28 742 75 q 476 -18 581 -18 m 449 1051 l 304 1222 l 343 1222 l 476 1069 l 610 1222 l 649 1222 l 504 1051 l 449 1051 z "},"Û":{"ha":951,"x_min":118,"x_max":833,"o":"m 476 -18 q 291 28 372 -18 q 164 162 210 75 q 118 367 118 249 l 118 972 l 153 972 l 153 351 q 192 183 153 260 q 304 61 232 107 q 476 15 376 15 q 649 61 576 15 q 760 183 721 107 q 799 351 799 260 l 799 972 l 833 972 l 833 367 q 788 162 833 249 q 661 28 742 75 q 476 -18 581 -18 m 304 1051 l 449 1222 l 504 1222 l 649 1051 l 610 1051 l 476 1204 l 343 1051 l 304 1051 z "},"Ȕ":{"ha":951,"x_min":118,"x_max":833,"o":"m 476 -18 q 291 28 372 -18 q 164 162 210 75 q 118 367 118 249 l 118 972 l 153 972 l 153 351 q 192 183 153 260 q 304 61 232 107 q 476 15 376 15 q 649 61 576 15 q 760 183 721 107 q 799 351 799 260 l 799 972 l 833 972 l 833 367 q 788 162 833 249 q 661 28 742 75 q 476 -18 581 -18 m 585 1051 l 433 1246 l 472 1246 l 624 1051 l 585 1051 m 390 1051 l 239 1246 l 278 1246 l 429 1051 l 390 1051 z "},"Ü":{"ha":951,"x_min":118,"x_max":833,"o":"m 476 -18 q 291 28 372 -18 q 164 162 210 75 q 118 367 118 249 l 118 972 l 153 972 l 153 351 q 192 183 153 260 q 304 61 232 107 q 476 15 376 15 q 649 61 576 15 q 760 183 721 107 q 799 351 799 260 l 799 972 l 833 972 l 833 367 q 788 162 833 249 q 661 28 742 75 q 476 -18 581 -18 m 582 1067 q 557 1078 568 1067 q 546 1103 546 1089 q 557 1128 546 1118 q 582 1139 568 1139 q 608 1128 597 1139 q 618 1103 618 1118 q 608 1078 618 1089 q 582 1067 597 1067 m 369 1067 q 344 1078 356 1067 q 333 1103 333 1089 q 344 1128 333 1118 q 369 1139 356 1139 q 395 1128 385 1139 q 406 1103 406 1118 q 395 1078 406 1089 q 369 1067 385 1067 z "},"Ǘ":{"ha":951,"x_min":118,"x_max":833,"o":"m 476 -18 q 291 28 372 -18 q 164 162 210 75 q 118 367 118 249 l 118 972 l 153 972 l 153 351 q 192 183 153 260 q 304 61 232 107 q 476 15 376 15 q 649 61 576 15 q 760 183 721 107 q 799 351 799 260 l 799 972 l 833 972 l 833 367 q 788 162 833 249 q 661 28 742 75 q 476 -18 581 -18 m 582 1067 q 557 1078 568 1067 q 546 1103 546 1089 q 557 1128 546 1118 q 582 1139 568 1139 q 608 1128 597 1139 q 618 1103 618 1118 q 608 1078 618 1089 q 582 1067 597 1067 m 369 1067 q 344 1078 356 1067 q 333 1103 333 1089 q 344 1128 333 1118 q 369 1139 356 1139 q 395 1128 385 1139 q 406 1103 406 1118 q 395 1078 406 1089 q 369 1067 385 1067 m 458 1224 l 603 1394 l 642 1394 l 497 1224 l 458 1224 z "},"Ǚ":{"ha":951,"x_min":118,"x_max":833,"o":"m 476 -18 q 291 28 372 -18 q 164 162 210 75 q 118 367 118 249 l 118 972 l 153 972 l 153 351 q 192 183 153 260 q 304 61 232 107 q 476 15 376 15 q 649 61 576 15 q 760 183 721 107 q 799 351 799 260 l 799 972 l 833 972 l 833 367 q 788 162 833 249 q 661 28 742 75 q 476 -18 581 -18 m 582 1067 q 557 1078 568 1067 q 546 1103 546 1089 q 557 1128 546 1118 q 582 1139 568 1139 q 608 1128 597 1139 q 618 1103 618 1118 q 608 1078 618 1089 q 582 1067 597 1067 m 369 1067 q 344 1078 356 1067 q 333 1103 333 1089 q 344 1128 333 1118 q 369 1139 356 1139 q 395 1128 385 1139 q 406 1103 406 1118 q 395 1078 406 1089 q 369 1067 385 1067 m 451 1224 l 307 1394 l 346 1394 l 479 1242 l 613 1394 l 651 1394 l 507 1224 l 451 1224 z "},"Ǜ":{"ha":951,"x_min":118,"x_max":833,"o":"m 476 -18 q 291 28 372 -18 q 164 162 210 75 q 118 367 118 249 l 118 972 l 153 972 l 153 351 q 192 183 153 260 q 304 61 232 107 q 476 15 376 15 q 649 61 576 15 q 760 183 721 107 q 799 351 799 260 l 799 972 l 833 972 l 833 367 q 788 162 833 249 q 661 28 742 75 q 476 -18 581 -18 m 582 1067 q 557 1078 568 1067 q 546 1103 546 1089 q 557 1128 546 1118 q 582 1139 568 1139 q 608 1128 597 1139 q 618 1103 618 1118 q 608 1078 618 1089 q 582 1067 597 1067 m 369 1067 q 344 1078 356 1067 q 333 1103 333 1089 q 344 1128 333 1118 q 369 1139 356 1139 q 395 1128 385 1139 q 406 1103 406 1118 q 395 1078 406 1089 q 369 1067 385 1067 m 443 1222 l 299 1393 l 338 1393 l 482 1222 l 443 1222 z "},"Ǖ":{"ha":951,"x_min":118,"x_max":833,"o":"m 476 -18 q 291 28 372 -18 q 164 162 210 75 q 118 367 118 249 l 118 972 l 153 972 l 153 351 q 192 183 153 260 q 304 61 232 107 q 476 15 376 15 q 649 61 576 15 q 760 183 721 107 q 799 351 799 260 l 799 972 l 833 972 l 833 367 q 788 162 833 249 q 661 28 742 75 q 476 -18 581 -18 m 582 1067 q 557 1078 568 1067 q 546 1103 546 1089 q 557 1128 546 1118 q 582 1139 568 1139 q 608 1128 597 1139 q 618 1103 618 1118 q 608 1078 618 1089 q 582 1067 597 1067 m 369 1067 q 344 1078 356 1067 q 333 1103 333 1089 q 344 1128 333 1118 q 369 1139 356 1139 q 395 1128 385 1139 q 406 1103 406 1118 q 395 1078 406 1089 q 369 1067 385 1067 m 271 1231 l 271 1263 l 660 1263 l 660 1231 l 271 1231 z "},"Ụ":{"ha":951,"x_min":118,"x_max":833,"o":"m 476 -18 q 291 28 372 -18 q 164 162 210 75 q 118 367 118 249 l 118 972 l 153 972 l 153 351 q 192 183 153 260 q 304 61 232 107 q 476 15 376 15 q 649 61 576 15 q 760 183 721 107 q 799 351 799 260 l 799 972 l 833 972 l 833 367 q 788 162 833 249 q 661 28 742 75 q 476 -18 581 -18 m 478 -201 q 453 -190 464 -201 q 442 -165 442 -179 q 453 -140 442 -150 q 478 -129 464 -129 q 503 -140 493 -129 q 514 -165 514 -150 q 503 -190 514 -179 q 478 -201 493 -201 z "},"Ù":{"ha":951,"x_min":118,"x_max":833,"o":"m 476 -18 q 291 28 372 -18 q 164 162 210 75 q 118 367 118 249 l 118 972 l 153 972 l 153 351 q 192 183 153 260 q 304 61 232 107 q 476 15 376 15 q 649 61 576 15 q 760 183 721 107 q 799 351 799 260 l 799 972 l 833 972 l 833 367 q 788 162 833 249 q 661 28 742 75 q 476 -18 581 -18 m 463 1051 l 318 1222 l 357 1222 l 501 1051 l 463 1051 z "},"Ủ":{"ha":951,"x_min":118,"x_max":833,"o":"m 476 -18 q 291 28 372 -18 q 164 162 210 75 q 118 367 118 249 l 118 972 l 153 972 l 153 351 q 192 183 153 260 q 304 61 232 107 q 476 15 376 15 q 649 61 576 15 q 760 183 721 107 q 799 351 799 260 l 799 972 l 833 972 l 833 367 q 788 162 833 249 q 661 28 742 75 q 476 -18 581 -18 m 446 1043 l 446 1071 q 514 1086 476 1071 q 579 1128 551 1101 q 607 1193 607 1156 q 578 1251 606 1225 q 483 1278 550 1278 q 433 1276 457 1278 q 400 1271 410 1274 l 400 1297 q 438 1303 415 1300 q 483 1306 461 1306 q 600 1276 561 1306 q 639 1194 639 1246 q 606 1112 639 1146 q 528 1060 574 1078 q 446 1043 483 1043 z "},"Ư":{"ha":1008,"x_min":118,"x_max":985,"o":"m 476 -18 q 291 28 372 -18 q 164 162 210 75 q 118 367 118 249 l 118 972 l 153 972 l 153 351 q 192 183 153 260 q 304 61 232 107 q 476 15 376 15 q 649 61 576 15 q 760 183 721 107 q 799 351 799 260 l 799 972 l 833 972 l 833 367 q 788 162 833 249 q 661 28 742 75 q 476 -18 581 -18 m 799 939 l 799 972 l 853 972 q 923 999 896 972 q 950 1086 950 1026 l 950 1089 l 985 1089 l 985 1086 q 948 974 985 1010 q 842 939 911 939 l 799 939 z "},"Ứ":{"ha":1008,"x_min":118,"x_max":985,"o":"m 476 -18 q 291 28 372 -18 q 164 162 210 75 q 118 367 118 249 l 118 972 l 153 972 l 153 351 q 192 183 153 260 q 304 61 232 107 q 476 15 376 15 q 649 61 576 15 q 760 183 721 107 q 799 351 799 260 l 799 972 l 833 972 l 833 367 q 788 162 833 249 q 661 28 742 75 q 476 -18 581 -18 m 799 939 l 799 972 l 853 972 q 923 999 896 972 q 950 1086 950 1026 l 950 1089 l 985 1089 l 985 1086 q 948 974 985 1010 q 842 939 911 939 l 799 939 m 464 1051 l 608 1222 l 647 1222 l 503 1051 l 464 1051 z "},"Ự":{"ha":1008,"x_min":118,"x_max":985,"o":"m 476 -18 q 291 28 372 -18 q 164 162 210 75 q 118 367 118 249 l 118 972 l 153 972 l 153 351 q 192 183 153 260 q 304 61 232 107 q 476 15 376 15 q 649 61 576 15 q 760 183 721 107 q 799 351 799 260 l 799 972 l 833 972 l 833 367 q 788 162 833 249 q 661 28 742 75 q 476 -18 581 -18 m 799 939 l 799 972 l 853 972 q 923 999 896 972 q 950 1086 950 1026 l 950 1089 l 985 1089 l 985 1086 q 948 974 985 1010 q 842 939 911 939 l 799 939 m 482 -201 q 457 -190 468 -201 q 446 -165 446 -179 q 457 -140 446 -150 q 482 -129 468 -129 q 508 -140 497 -129 q 518 -165 518 -150 q 508 -190 518 -179 q 482 -201 497 -201 z "},"Ừ":{"ha":1008,"x_min":118,"x_max":985,"o":"m 476 -18 q 291 28 372 -18 q 164 162 210 75 q 118 367 118 249 l 118 972 l 153 972 l 153 351 q 192 183 153 260 q 304 61 232 107 q 476 15 376 15 q 649 61 576 15 q 760 183 721 107 q 799 351 799 260 l 799 972 l 833 972 l 833 367 q 788 162 833 249 q 661 28 742 75 q 476 -18 581 -18 m 799 939 l 799 972 l 853 972 q 923 999 896 972 q 950 1086 950 1026 l 950 1089 l 985 1089 l 985 1086 q 948 974 985 1010 q 842 939 911 939 l 799 939 m 469 1051 l 325 1222 l 364 1222 l 508 1051 l 469 1051 z "},"Ử":{"ha":1008,"x_min":118,"x_max":985,"o":"m 476 -18 q 291 28 372 -18 q 164 162 210 75 q 118 367 118 249 l 118 972 l 153 972 l 153 351 q 192 183 153 260 q 304 61 232 107 q 476 15 376 15 q 649 61 576 15 q 760 183 721 107 q 799 351 799 260 l 799 972 l 833 972 l 833 367 q 788 162 833 249 q 661 28 742 75 q 476 -18 581 -18 m 799 939 l 799 972 l 853 972 q 923 999 896 972 q 950 1086 950 1026 l 950 1089 l 985 1089 l 985 1086 q 948 974 985 1010 q 842 939 911 939 l 799 939 m 446 1038 l 446 1065 q 514 1081 476 1065 q 579 1123 551 1096 q 607 1188 607 1150 q 578 1246 606 1219 q 483 1272 550 1272 q 433 1270 457 1272 q 400 1265 410 1268 l 400 1292 q 438 1297 415 1294 q 483 1300 461 1300 q 600 1270 561 1300 q 639 1189 639 1240 q 606 1106 639 1140 q 528 1055 574 1072 q 446 1038 483 1038 z "},"Ữ":{"ha":1008,"x_min":118,"x_max":985,"o":"m 476 -18 q 291 28 372 -18 q 164 162 210 75 q 118 367 118 249 l 118 972 l 153 972 l 153 351 q 192 183 153 260 q 304 61 232 107 q 476 15 376 15 q 649 61 576 15 q 760 183 721 107 q 799 351 799 260 l 799 972 l 833 972 l 833 367 q 788 162 833 249 q 661 28 742 75 q 476 -18 581 -18 m 799 939 l 799 972 l 853 972 q 923 999 896 972 q 950 1086 950 1026 l 950 1089 l 985 1089 l 985 1086 q 948 974 985 1010 q 842 939 911 939 l 799 939 m 583 1038 q 524 1052 547 1038 q 487 1088 501 1067 q 458 1131 472 1110 q 424 1175 443 1156 q 369 1194 404 1194 q 315 1165 339 1194 q 292 1082 292 1136 l 292 1051 l 258 1051 l 258 1082 q 293 1189 258 1153 q 369 1225 328 1225 q 444 1200 418 1225 q 488 1146 469 1175 q 525 1092 506 1117 q 583 1068 544 1068 q 639 1097 615 1068 q 663 1182 663 1126 l 663 1213 l 696 1213 l 696 1182 q 660 1074 696 1110 q 583 1038 625 1038 z "},"Ű":{"ha":951,"x_min":118,"x_max":833,"o":"m 476 -18 q 291 28 372 -18 q 164 162 210 75 q 118 367 118 249 l 118 972 l 153 972 l 153 351 q 192 183 153 260 q 304 61 232 107 q 476 15 376 15 q 649 61 576 15 q 760 183 721 107 q 799 351 799 260 l 799 972 l 833 972 l 833 367 q 788 162 833 249 q 661 28 742 75 q 476 -18 581 -18 m 522 1051 l 653 1222 l 692 1222 l 561 1051 l 522 1051 m 326 1051 l 457 1222 l 496 1222 l 365 1051 l 326 1051 z "},"Ȗ":{"ha":951,"x_min":118,"x_max":833,"o":"m 476 1204 q 555 1185 521 1204 q 608 1128 589 1165 q 626 1039 626 1092 l 593 1039 q 561 1141 593 1104 q 476 1178 529 1178 q 391 1141 424 1178 q 358 1039 358 1104 l 325 1039 q 344 1128 325 1092 q 397 1185 363 1165 q 476 1204 432 1204 m 476 -18 q 291 28 372 -18 q 164 162 210 75 q 118 367 118 249 l 118 972 l 153 972 l 153 351 q 192 183 153 260 q 304 61 232 107 q 476 15 376 15 q 649 61 576 15 q 760 183 721 107 q 799 351 799 260 l 799 972 l 833 972 l 833 367 q 788 162 833 249 q 661 28 742 75 q 476 -18 581 -18 z "},"Ū":{"ha":951,"x_min":118,"x_max":833,"o":"m 476 -18 q 291 28 372 -18 q 164 162 210 75 q 118 367 118 249 l 118 972 l 153 972 l 153 351 q 192 183 153 260 q 304 61 232 107 q 476 15 376 15 q 649 61 576 15 q 760 183 721 107 q 799 351 799 260 l 799 972 l 833 972 l 833 367 q 788 162 833 249 q 661 28 742 75 q 476 -18 581 -18 m 282 1076 l 282 1108 l 671 1108 l 671 1076 l 282 1076 z "},"Ų":{"ha":951,"x_min":118,"x_max":833,"o":"m 476 -18 q 291 28 372 -18 q 164 162 210 75 q 118 367 118 249 l 118 972 l 153 972 l 153 351 q 192 183 153 260 q 304 61 232 107 q 476 15 376 15 q 649 61 576 15 q 760 183 721 107 q 799 351 799 260 l 799 972 l 833 972 l 833 367 q 788 162 833 249 q 661 28 742 75 q 476 -18 581 -18 m 746 -303 q 623 -265 669 -303 q 576 -154 576 -226 q 598 -63 576 -110 q 648 23 619 -17 q 699 89 676 63 q 726 119 722 115 l 753 103 q 727 73 749 99 q 678 10 706 47 q 632 -72 651 -28 q 613 -157 613 -115 q 647 -240 613 -210 q 742 -269 682 -269 q 776 -266 758 -269 q 817 -257 794 -262 l 817 -292 q 792 -298 811 -293 q 746 -303 774 -303 z "},"Ů":{"ha":951,"x_min":118,"x_max":833,"o":"m 476 -18 q 291 28 372 -18 q 164 162 210 75 q 118 367 118 249 l 118 972 l 153 972 l 153 351 q 192 183 153 260 q 304 61 232 107 q 476 15 376 15 q 649 61 576 15 q 760 183 721 107 q 799 351 799 260 l 799 972 l 833 972 l 833 367 q 788 162 833 249 q 661 28 742 75 q 476 -18 581 -18 m 467 1039 q 373 1077 411 1039 q 335 1171 335 1115 q 373 1265 335 1226 q 467 1303 411 1303 q 560 1265 522 1303 q 599 1171 599 1226 q 560 1077 599 1115 q 467 1039 522 1039 m 467 1069 q 538 1099 508 1069 q 567 1171 567 1128 q 538 1243 567 1214 q 467 1272 508 1272 q 396 1243 425 1272 q 367 1171 367 1214 q 396 1099 367 1128 q 467 1069 425 1069 z "},"Ũ":{"ha":951,"x_min":118,"x_max":833,"o":"m 476 -18 q 291 28 372 -18 q 164 162 210 75 q 118 367 118 249 l 118 972 l 153 972 l 153 351 q 192 183 153 260 q 304 61 232 107 q 476 15 376 15 q 649 61 576 15 q 760 183 721 107 q 799 351 799 260 l 799 972 l 833 972 l 833 367 q 788 162 833 249 q 661 28 742 75 q 476 -18 581 -18 m 582 1039 q 523 1053 546 1039 q 485 1090 500 1068 q 457 1132 471 1111 q 422 1176 442 1157 q 368 1196 403 1196 q 314 1167 338 1196 q 290 1083 290 1138 l 290 1053 l 257 1053 l 257 1083 q 292 1190 257 1154 q 368 1226 326 1226 q 442 1201 417 1226 q 486 1147 468 1176 q 524 1094 504 1118 q 582 1069 543 1069 q 638 1099 614 1069 q 661 1183 661 1128 l 661 1214 l 694 1214 l 694 1183 q 659 1075 694 1111 q 582 1039 624 1039 z "},"V":{"ha":910,"x_min":7,"x_max":903,"o":"m 453 -18 q 408 1 426 -18 q 368 71 389 21 l 7 972 l 42 972 l 394 83 q 424 26 413 40 q 453 13 435 13 q 483 26 472 13 q 513 83 494 40 l 868 972 l 903 972 l 539 69 q 500 1 519 21 q 453 -18 481 -18 z "},"W":{"ha":1606,"x_min":118,"x_max":1488,"o":"m 469 -18 q 287 25 367 -18 q 163 149 207 68 q 118 339 118 229 l 118 972 l 153 972 l 153 335 q 191 174 153 247 q 301 58 229 101 q 469 14 372 14 q 638 58 567 14 q 747 174 708 101 q 786 335 786 247 l 786 972 l 821 972 l 821 335 q 860 174 821 247 q 969 58 899 101 q 1138 14 1040 14 q 1306 58 1235 14 q 1415 174 1376 101 q 1453 335 1453 247 l 1453 972 l 1488 972 l 1488 339 q 1443 149 1488 229 q 1319 25 1399 68 q 1138 -18 1240 -18 q 994 8 1064 -18 q 875 89 925 33 q 804 231 825 144 q 733 90 785 144 q 612 8 681 35 q 469 -18 543 -18 z "},"Ẃ":{"ha":1606,"x_min":118,"x_max":1488,"o":"m 469 -18 q 287 25 367 -18 q 163 149 207 68 q 118 339 118 229 l 118 972 l 153 972 l 153 335 q 191 174 153 247 q 301 58 229 101 q 469 14 372 14 q 638 58 567 14 q 747 174 708 101 q 786 335 786 247 l 786 972 l 821 972 l 821 335 q 860 174 821 247 q 969 58 899 101 q 1138 14 1040 14 q 1306 58 1235 14 q 1415 174 1376 101 q 1453 335 1453 247 l 1453 972 l 1488 972 l 1488 339 q 1443 149 1488 229 q 1319 25 1399 68 q 1138 -18 1240 -18 q 994 8 1064 -18 q 875 89 925 33 q 804 231 825 144 q 733 90 785 144 q 612 8 681 35 q 469 -18 543 -18 m 799 1051 l 943 1222 l 982 1222 l 838 1051 l 799 1051 z "},"Ŵ":{"ha":1606,"x_min":118,"x_max":1488,"o":"m 469 -18 q 287 25 367 -18 q 163 149 207 68 q 118 339 118 229 l 118 972 l 153 972 l 153 335 q 191 174 153 247 q 301 58 229 101 q 469 14 372 14 q 638 58 567 14 q 747 174 708 101 q 786 335 786 247 l 786 972 l 821 972 l 821 335 q 860 174 821 247 q 969 58 899 101 q 1138 14 1040 14 q 1306 58 1235 14 q 1415 174 1376 101 q 1453 335 1453 247 l 1453 972 l 1488 972 l 1488 339 q 1443 149 1488 229 q 1319 25 1399 68 q 1138 -18 1240 -18 q 994 8 1064 -18 q 875 89 925 33 q 804 231 825 144 q 733 90 785 144 q 612 8 681 35 q 469 -18 543 -18 m 633 1051 l 778 1222 l 833 1222 l 978 1051 l 939 1051 l 806 1204 l 672 1051 l 633 1051 z "},"Ẅ":{"ha":1606,"x_min":118,"x_max":1488,"o":"m 469 -18 q 287 25 367 -18 q 163 149 207 68 q 118 339 118 229 l 118 972 l 153 972 l 153 335 q 191 174 153 247 q 301 58 229 101 q 469 14 372 14 q 638 58 567 14 q 747 174 708 101 q 786 335 786 247 l 786 972 l 821 972 l 821 335 q 860 174 821 247 q 969 58 899 101 q 1138 14 1040 14 q 1306 58 1235 14 q 1415 174 1376 101 q 1453 335 1453 247 l 1453 972 l 1488 972 l 1488 339 q 1443 149 1488 229 q 1319 25 1399 68 q 1138 -18 1240 -18 q 994 8 1064 -18 q 875 89 925 33 q 804 231 825 144 q 733 90 785 144 q 612 8 681 35 q 469 -18 543 -18 m 910 1067 q 885 1078 896 1067 q 874 1103 874 1089 q 885 1128 874 1118 q 910 1139 896 1139 q 935 1128 925 1139 q 946 1103 946 1118 q 935 1078 946 1089 q 910 1067 925 1067 m 697 1067 q 672 1078 683 1067 q 661 1103 661 1089 q 672 1128 661 1118 q 697 1139 683 1139 q 723 1128 713 1139 q 733 1103 733 1118 q 723 1078 733 1089 q 697 1067 713 1067 z "},"Ẁ":{"ha":1606,"x_min":118,"x_max":1488,"o":"m 469 -18 q 287 25 367 -18 q 163 149 207 68 q 118 339 118 229 l 118 972 l 153 972 l 153 335 q 191 174 153 247 q 301 58 229 101 q 469 14 372 14 q 638 58 567 14 q 747 174 708 101 q 786 335 786 247 l 786 972 l 821 972 l 821 335 q 860 174 821 247 q 969 58 899 101 q 1138 14 1040 14 q 1306 58 1235 14 q 1415 174 1376 101 q 1453 335 1453 247 l 1453 972 l 1488 972 l 1488 339 q 1443 149 1488 229 q 1319 25 1399 68 q 1138 -18 1240 -18 q 994 8 1064 -18 q 875 89 925 33 q 804 231 825 144 q 733 90 785 144 q 612 8 681 35 q 469 -18 543 -18 m 763 1039 l 618 1210 l 657 1210 l 801 1039 l 763 1039 z "},"X":{"ha":907,"x_min":83,"x_max":824,"o":"m 83 0 l 435 490 q 278 539 351 497 q 160 656 206 581 q 115 833 115 731 l 115 972 l 150 972 l 150 815 q 190 674 150 742 q 299 565 231 607 q 456 521 368 522 l 779 972 l 821 972 l 497 521 q 682 473 610 517 q 789 359 754 429 q 824 206 824 289 l 824 0 l 789 0 l 789 211 q 706 409 789 332 q 475 489 624 486 l 125 0 l 83 0 z "},"Y":{"ha":951,"x_min":118,"x_max":833,"o":"m 457 0 l 457 301 q 265 361 340 307 q 154 502 190 415 q 118 689 118 589 l 118 971 l 153 971 l 153 681 q 190 510 153 589 q 299 382 226 431 q 476 333 371 333 q 653 382 582 333 q 762 510 725 431 q 799 681 799 589 l 799 971 l 833 971 l 833 689 q 797 502 833 589 q 684 360 760 415 q 492 301 608 306 l 492 0 l 457 0 z "},"Ý":{"ha":951,"x_min":118,"x_max":833,"o":"m 457 0 l 457 301 q 265 361 340 307 q 154 502 190 415 q 118 689 118 589 l 118 971 l 153 971 l 153 681 q 190 510 153 589 q 299 382 226 431 q 476 333 371 333 q 653 382 582 333 q 762 510 725 431 q 799 681 799 589 l 799 971 l 833 971 l 833 689 q 797 502 833 589 q 684 360 760 415 q 492 301 608 306 l 492 0 l 457 0 m 467 1051 l 611 1222 l 650 1222 l 506 1051 l 467 1051 z "},"Ŷ":{"ha":951,"x_min":118,"x_max":833,"o":"m 457 0 l 457 301 q 265 361 340 307 q 154 502 190 415 q 118 689 118 589 l 118 971 l 153 971 l 153 681 q 190 510 153 589 q 299 382 226 431 q 476 333 371 333 q 653 382 582 333 q 762 510 725 431 q 799 681 799 589 l 799 971 l 833 971 l 833 689 q 797 502 833 589 q 684 360 760 415 q 492 301 608 306 l 492 0 l 457 0 m 304 1051 l 449 1222 l 504 1222 l 649 1051 l 610 1051 l 476 1204 l 343 1051 l 304 1051 z "},"Ÿ":{"ha":951,"x_min":118,"x_max":833,"o":"m 457 0 l 457 301 q 265 361 340 307 q 154 502 190 415 q 118 689 118 589 l 118 971 l 153 971 l 153 681 q 190 510 153 589 q 299 382 226 431 q 476 333 371 333 q 653 382 582 333 q 762 510 725 431 q 799 681 799 589 l 799 971 l 833 971 l 833 689 q 797 502 833 589 q 684 360 760 415 q 492 301 608 306 l 492 0 l 457 0 m 582 1067 q 557 1078 568 1067 q 546 1103 546 1089 q 557 1128 546 1118 q 582 1139 568 1139 q 608 1128 597 1139 q 618 1103 618 1118 q 608 1078 618 1089 q 582 1067 597 1067 m 369 1067 q 344 1078 356 1067 q 333 1103 333 1089 q 344 1128 333 1118 q 369 1139 356 1139 q 395 1128 385 1139 q 406 1103 406 1118 q 395 1078 406 1089 q 369 1067 385 1067 z "},"Ỵ":{"ha":951,"x_min":118,"x_max":833,"o":"m 457 0 l 457 301 q 265 361 340 307 q 154 502 190 415 q 118 689 118 589 l 118 971 l 153 971 l 153 681 q 190 510 153 589 q 299 382 226 431 q 476 333 371 333 q 653 382 582 333 q 762 510 725 431 q 799 681 799 589 l 799 971 l 833 971 l 833 689 q 797 502 833 589 q 684 360 760 415 q 492 301 608 306 l 492 0 l 457 0 m 475 -201 q 450 -190 461 -201 q 439 -165 439 -179 q 450 -140 439 -150 q 475 -129 461 -129 q 501 -140 490 -129 q 511 -165 511 -150 q 501 -190 511 -179 q 475 -201 490 -201 z "},"Ỳ":{"ha":951,"x_min":118,"x_max":833,"o":"m 457 0 l 457 301 q 265 361 340 307 q 154 502 190 415 q 118 689 118 589 l 118 971 l 153 971 l 153 681 q 190 510 153 589 q 299 382 226 431 q 476 333 371 333 q 653 382 582 333 q 762 510 725 431 q 799 681 799 589 l 799 971 l 833 971 l 833 689 q 797 502 833 589 q 684 360 760 415 q 492 301 608 306 l 492 0 l 457 0 m 457 1049 l 313 1219 l 351 1219 l 496 1049 l 457 1049 z "},"Ỷ":{"ha":951,"x_min":118,"x_max":833,"o":"m 457 0 l 457 301 q 265 361 340 307 q 154 502 190 415 q 118 689 118 589 l 118 971 l 153 971 l 153 681 q 190 510 153 589 q 299 382 226 431 q 476 333 371 333 q 653 382 582 333 q 762 510 725 431 q 799 681 799 589 l 799 971 l 833 971 l 833 689 q 797 502 833 589 q 684 360 760 415 q 492 301 608 306 l 492 0 l 457 0 m 442 1036 l 442 1064 q 510 1079 472 1064 q 575 1122 547 1094 q 603 1186 603 1149 q 574 1244 601 1218 q 479 1271 546 1271 q 429 1269 453 1271 q 396 1264 406 1267 l 396 1290 q 434 1296 411 1293 q 479 1299 457 1299 q 596 1269 557 1299 q 635 1188 635 1239 q 602 1105 635 1139 q 524 1053 569 1071 q 442 1036 479 1036 z "},"Ȳ":{"ha":951,"x_min":118,"x_max":833,"o":"m 457 0 l 457 301 q 265 361 340 307 q 154 502 190 415 q 118 689 118 589 l 118 971 l 153 971 l 153 681 q 190 510 153 589 q 299 382 226 431 q 476 333 371 333 q 653 382 582 333 q 762 510 725 431 q 799 681 799 589 l 799 971 l 833 971 l 833 689 q 797 502 833 589 q 684 360 760 415 q 492 301 608 306 l 492 0 l 457 0 m 251 1076 l 251 1108 l 640 1108 l 640 1076 l 251 1076 z "},"Ỹ":{"ha":951,"x_min":118,"x_max":833,"o":"m 457 0 l 457 301 q 265 361 340 307 q 154 502 190 415 q 118 689 118 589 l 118 971 l 153 971 l 153 681 q 190 510 153 589 q 299 382 226 431 q 476 333 371 333 q 653 382 582 333 q 762 510 725 431 q 799 681 799 589 l 799 971 l 833 971 l 833 689 q 797 502 833 589 q 684 360 760 415 q 492 301 608 306 l 492 0 l 457 0 m 575 1038 q 516 1052 539 1038 q 478 1088 493 1067 q 450 1131 464 1110 q 415 1175 435 1156 q 361 1194 396 1194 q 307 1165 331 1194 q 283 1082 283 1136 l 283 1051 l 250 1051 l 250 1082 q 285 1189 250 1153 q 361 1225 319 1225 q 435 1200 410 1225 q 479 1146 461 1175 q 517 1092 497 1117 q 575 1068 536 1068 q 631 1097 607 1068 q 654 1182 654 1126 l 654 1213 l 688 1213 l 688 1182 q 652 1074 688 1110 q 575 1038 617 1038 z "},"Z":{"ha":865,"x_min":90,"x_max":775,"o":"m 268 0 q 137 51 183 0 q 90 168 90 103 q 117 261 90 228 q 203 338 144 294 l 644 660 q 720 733 700 700 q 740 813 740 765 q 724 872 740 843 q 678 921 707 901 q 614 940 650 940 l 131 940 l 131 972 l 601 972 q 697 949 658 972 q 756 888 736 925 q 775 811 775 851 q 744 708 775 747 q 657 628 714 668 l 226 313 q 164 263 186 283 q 133 219 142 242 q 124 163 124 197 q 141 103 124 133 q 190 52 158 72 q 263 32 221 32 l 765 32 l 765 0 l 268 0 z "},"Ź":{"ha":865,"x_min":90,"x_max":775,"o":"m 268 0 q 137 51 183 0 q 90 168 90 103 q 117 261 90 228 q 203 338 144 294 l 644 660 q 720 733 700 700 q 740 813 740 765 q 724 872 740 843 q 678 921 707 901 q 614 940 650 940 l 131 940 l 131 972 l 601 972 q 697 949 658 972 q 756 888 736 925 q 775 811 775 851 q 744 708 775 747 q 657 628 714 668 l 226 313 q 164 263 186 283 q 133 219 142 242 q 124 163 124 197 q 141 103 124 133 q 190 52 158 72 q 263 32 221 32 l 765 32 l 765 0 l 268 0 m 421 1051 l 565 1222 l 604 1222 l 460 1051 l 421 1051 z "},"Ž":{"ha":865,"x_min":90,"x_max":775,"o":"m 268 0 q 137 51 183 0 q 90 168 90 103 q 117 261 90 228 q 203 338 144 294 l 644 660 q 720 733 700 700 q 740 813 740 765 q 724 872 740 843 q 678 921 707 901 q 614 940 650 940 l 131 940 l 131 972 l 601 972 q 697 949 658 972 q 756 888 736 925 q 775 811 775 851 q 744 708 775 747 q 657 628 714 668 l 226 313 q 164 263 186 283 q 133 219 142 242 q 124 163 124 197 q 141 103 124 133 q 190 52 158 72 q 263 32 221 32 l 765 32 l 765 0 l 268 0 m 414 1051 l 269 1222 l 308 1222 l 442 1069 l 575 1222 l 614 1222 l 469 1051 l 414 1051 z "},"Ż":{"ha":865,"x_min":90,"x_max":775,"o":"m 268 0 q 137 51 183 0 q 90 168 90 103 q 117 261 90 228 q 203 338 144 294 l 644 660 q 720 733 700 700 q 740 813 740 765 q 724 872 740 843 q 678 921 707 901 q 614 940 650 940 l 131 940 l 131 972 l 601 972 q 697 949 658 972 q 756 888 736 925 q 775 811 775 851 q 744 708 775 747 q 657 628 714 668 l 226 313 q 164 263 186 283 q 133 219 142 242 q 124 163 124 197 q 141 103 124 133 q 190 52 158 72 q 263 32 221 32 l 765 32 l 765 0 l 268 0 m 439 1067 q 414 1078 425 1067 q 403 1103 403 1089 q 414 1128 403 1118 q 439 1139 425 1139 q 465 1128 454 1139 q 475 1103 475 1118 q 465 1078 475 1089 q 439 1067 454 1067 z "},"a":{"ha":913,"x_min":83,"x_max":794,"o":"m 436 -18 q 244 31 324 -18 q 124 165 165 81 q 83 356 83 250 q 127 544 83 461 q 252 676 171 628 q 446 725 333 725 q 627 678 549 725 q 750 550 706 631 q 794 367 794 469 l 794 0 l 760 0 l 760 185 l 756 185 q 693 93 736 140 q 585 14 650 46 q 436 -18 521 -18 m 436 13 q 601 57 528 13 q 716 180 674 101 q 758 358 758 258 q 719 531 758 456 q 610 651 681 607 q 443 694 539 694 q 269 649 342 694 q 158 526 197 604 q 119 347 119 447 q 156 179 119 256 q 264 58 193 103 q 436 13 335 13 z "},"á":{"ha":886,"x_min":83,"x_max":794,"o":"m 436 -18 q 244 31 324 -18 q 124 165 165 81 q 83 356 83 250 q 127 544 83 461 q 252 676 171 628 q 446 725 333 725 q 627 678 549 725 q 750 550 706 631 q 794 367 794 469 l 794 0 l 760 0 l 760 185 l 756 185 q 693 93 736 140 q 585 14 650 46 q 436 -18 521 -18 m 436 13 q 601 57 528 13 q 716 180 674 101 q 758 358 758 258 q 719 531 758 456 q 610 651 681 607 q 443 694 539 694 q 269 649 342 694 q 158 526 197 604 q 119 347 119 447 q 156 179 119 256 q 264 58 193 103 q 436 13 335 13 m 440 801 l 585 972 l 624 972 l 479 801 l 440 801 z "},"ă":{"ha":886,"x_min":83,"x_max":794,"o":"m 436 -18 q 244 31 324 -18 q 124 165 165 81 q 83 356 83 250 q 127 544 83 461 q 252 676 171 628 q 446 725 333 725 q 627 678 549 725 q 750 550 706 631 q 794 367 794 469 l 794 0 l 760 0 l 760 185 l 756 185 q 693 93 736 140 q 585 14 650 46 q 436 -18 521 -18 m 436 13 q 601 57 528 13 q 716 180 674 101 q 758 358 758 258 q 719 531 758 456 q 610 651 681 607 q 443 694 539 694 q 269 649 342 694 q 158 526 197 604 q 119 347 119 447 q 156 179 119 256 q 264 58 193 103 q 436 13 335 13 m 443 799 q 364 818 399 799 q 310 875 329 838 q 292 964 292 913 l 325 964 q 358 862 325 899 q 443 825 390 825 q 528 862 496 825 q 560 964 560 899 l 593 964 q 574 875 593 913 q 522 818 556 838 q 443 799 488 799 z "},"ắ":{"ha":886,"x_min":83,"x_max":794,"o":"m 436 -18 q 244 31 324 -18 q 124 165 165 81 q 83 356 83 250 q 127 544 83 461 q 252 676 171 628 q 446 725 333 725 q 627 678 549 725 q 750 550 706 631 q 794 367 794 469 l 794 0 l 760 0 l 760 185 l 756 185 q 693 93 736 140 q 585 14 650 46 q 436 -18 521 -18 m 436 13 q 601 57 528 13 q 716 180 674 101 q 758 358 758 258 q 719 531 758 456 q 610 651 681 607 q 443 694 539 694 q 269 649 342 694 q 158 526 197 604 q 119 347 119 447 q 156 179 119 256 q 264 58 193 103 q 436 13 335 13 m 443 799 q 364 818 399 799 q 310 875 329 838 q 292 964 292 913 l 325 964 q 358 862 325 899 q 443 825 390 825 q 528 862 496 825 q 560 964 560 899 l 593 964 q 574 875 593 913 q 522 818 556 838 q 443 799 488 799 m 435 1025 l 579 1196 l 618 1196 l 474 1025 l 435 1025 z "},"ặ":{"ha":886,"x_min":83,"x_max":794,"o":"m 436 -18 q 244 31 324 -18 q 124 165 165 81 q 83 356 83 250 q 127 544 83 461 q 252 676 171 628 q 446 725 333 725 q 627 678 549 725 q 750 550 706 631 q 794 367 794 469 l 794 0 l 760 0 l 760 185 l 756 185 q 693 93 736 140 q 585 14 650 46 q 436 -18 521 -18 m 436 13 q 601 57 528 13 q 716 180 674 101 q 758 358 758 258 q 719 531 758 456 q 610 651 681 607 q 443 694 539 694 q 269 649 342 694 q 158 526 197 604 q 119 347 119 447 q 156 179 119 256 q 264 58 193 103 q 436 13 335 13 m 443 799 q 364 818 399 799 q 310 875 329 838 q 292 964 292 913 l 325 964 q 358 862 325 899 q 443 825 390 825 q 528 862 496 825 q 560 964 560 899 l 593 964 q 574 875 593 913 q 522 818 556 838 q 443 799 488 799 m 449 -201 q 424 -190 435 -201 q 413 -165 413 -179 q 424 -140 413 -150 q 449 -129 435 -129 q 474 -140 464 -129 q 485 -165 485 -150 q 474 -190 485 -179 q 449 -201 464 -201 z "},"ằ":{"ha":886,"x_min":83,"x_max":794,"o":"m 436 -18 q 244 31 324 -18 q 124 165 165 81 q 83 356 83 250 q 127 544 83 461 q 252 676 171 628 q 446 725 333 725 q 627 678 549 725 q 750 550 706 631 q 794 367 794 469 l 794 0 l 760 0 l 760 185 l 756 185 q 693 93 736 140 q 585 14 650 46 q 436 -18 521 -18 m 436 13 q 601 57 528 13 q 716 180 674 101 q 758 358 758 258 q 719 531 758 456 q 610 651 681 607 q 443 694 539 694 q 269 649 342 694 q 158 526 197 604 q 119 347 119 447 q 156 179 119 256 q 264 58 193 103 q 436 13 335 13 m 443 799 q 364 818 399 799 q 310 875 329 838 q 292 964 292 913 l 325 964 q 358 862 325 899 q 443 825 390 825 q 528 862 496 825 q 560 964 560 899 l 593 964 q 574 875 593 913 q 522 818 556 838 q 443 799 488 799 m 419 1025 l 275 1196 l 314 1196 l 458 1025 l 419 1025 z "},"ẳ":{"ha":886,"x_min":83,"x_max":794,"o":"m 436 -18 q 244 31 324 -18 q 124 165 165 81 q 83 356 83 250 q 127 544 83 461 q 252 676 171 628 q 446 725 333 725 q 627 678 549 725 q 750 550 706 631 q 794 367 794 469 l 794 0 l 760 0 l 760 185 l 756 185 q 693 93 736 140 q 585 14 650 46 q 436 -18 521 -18 m 436 13 q 601 57 528 13 q 716 180 674 101 q 758 358 758 258 q 719 531 758 456 q 610 651 681 607 q 443 694 539 694 q 269 649 342 694 q 158 526 197 604 q 119 347 119 447 q 156 179 119 256 q 264 58 193 103 q 436 13 335 13 m 443 799 q 364 818 399 799 q 310 875 329 838 q 292 964 292 913 l 325 964 q 358 862 325 899 q 443 825 390 825 q 528 862 496 825 q 560 964 560 899 l 593 964 q 574 875 593 913 q 522 818 556 838 q 443 799 488 799 m 390 1010 l 390 1038 q 458 1053 421 1038 q 524 1095 496 1068 q 551 1160 551 1122 q 522 1218 550 1192 q 428 1244 494 1244 q 378 1242 401 1244 q 344 1238 354 1240 l 344 1264 q 383 1269 360 1267 q 428 1272 406 1272 q 544 1242 506 1272 q 583 1161 583 1213 q 551 1078 583 1113 q 473 1027 518 1044 q 390 1010 428 1010 z "},"ẵ":{"ha":886,"x_min":83,"x_max":794,"o":"m 436 -18 q 244 31 324 -18 q 124 165 165 81 q 83 356 83 250 q 127 544 83 461 q 252 676 171 628 q 446 725 333 725 q 627 678 549 725 q 750 550 706 631 q 794 367 794 469 l 794 0 l 760 0 l 760 185 l 756 185 q 693 93 736 140 q 585 14 650 46 q 436 -18 521 -18 m 436 13 q 601 57 528 13 q 716 180 674 101 q 758 358 758 258 q 719 531 758 456 q 610 651 681 607 q 443 694 539 694 q 269 649 342 694 q 158 526 197 604 q 119 347 119 447 q 156 179 119 256 q 264 58 193 103 q 436 13 335 13 m 443 799 q 364 818 399 799 q 310 875 329 838 q 292 964 292 913 l 325 964 q 358 862 325 899 q 443 825 390 825 q 528 862 496 825 q 560 964 560 899 l 593 964 q 574 875 593 913 q 522 818 556 838 q 443 799 488 799 m 547 1038 q 488 1052 511 1038 q 451 1088 465 1067 q 422 1131 436 1110 q 388 1175 407 1156 q 333 1194 368 1194 q 279 1165 303 1194 q 256 1082 256 1136 l 256 1051 l 222 1051 l 222 1082 q 257 1189 222 1153 q 333 1225 292 1225 q 408 1200 382 1225 q 451 1146 433 1175 q 489 1092 469 1117 q 547 1068 508 1068 q 603 1097 579 1068 q 626 1182 626 1126 l 626 1213 l 660 1213 l 660 1182 q 624 1074 660 1110 q 547 1038 589 1038 z "},"ǎ":{"ha":886,"x_min":83,"x_max":794,"o":"m 436 -18 q 244 31 324 -18 q 124 165 165 81 q 83 356 83 250 q 127 544 83 461 q 252 676 171 628 q 446 725 333 725 q 627 678 549 725 q 750 550 706 631 q 794 367 794 469 l 794 0 l 760 0 l 760 185 l 756 185 q 693 93 736 140 q 585 14 650 46 q 436 -18 521 -18 m 436 13 q 601 57 528 13 q 716 180 674 101 q 758 358 758 258 q 719 531 758 456 q 610 651 681 607 q 443 694 539 694 q 269 649 342 694 q 158 526 197 604 q 119 347 119 447 q 156 179 119 256 q 264 58 193 103 q 436 13 335 13 m 415 801 l 271 972 l 310 972 l 443 819 l 576 972 l 615 972 l 471 801 l 415 801 z "},"â":{"ha":886,"x_min":83,"x_max":794,"o":"m 436 -18 q 244 31 324 -18 q 124 165 165 81 q 83 356 83 250 q 127 544 83 461 q 252 676 171 628 q 446 725 333 725 q 627 678 549 725 q 750 550 706 631 q 794 367 794 469 l 794 0 l 760 0 l 760 185 l 756 185 q 693 93 736 140 q 585 14 650 46 q 436 -18 521 -18 m 436 13 q 601 57 528 13 q 716 180 674 101 q 758 358 758 258 q 719 531 758 456 q 610 651 681 607 q 443 694 539 694 q 269 649 342 694 q 158 526 197 604 q 119 347 119 447 q 156 179 119 256 q 264 58 193 103 q 436 13 335 13 m 269 801 l 414 972 l 469 972 l 614 801 l 575 801 l 442 954 l 308 801 l 269 801 z "},"ấ":{"ha":886,"x_min":83,"x_max":794,"o":"m 436 -18 q 244 31 324 -18 q 124 165 165 81 q 83 356 83 250 q 127 544 83 461 q 252 676 171 628 q 446 725 333 725 q 627 678 549 725 q 750 550 706 631 q 794 367 794 469 l 794 0 l 760 0 l 760 185 l 756 185 q 693 93 736 140 q 585 14 650 46 q 436 -18 521 -18 m 436 13 q 601 57 528 13 q 716 180 674 101 q 758 358 758 258 q 719 531 758 456 q 610 651 681 607 q 443 694 539 694 q 269 649 342 694 q 158 526 197 604 q 119 347 119 447 q 156 179 119 256 q 264 58 193 103 q 436 13 335 13 m 269 801 l 414 972 l 469 972 l 614 801 l 575 801 l 442 954 l 308 801 l 269 801 m 446 1039 l 590 1210 l 629 1210 l 485 1039 l 446 1039 z "},"ậ":{"ha":886,"x_min":83,"x_max":794,"o":"m 436 -18 q 244 31 324 -18 q 124 165 165 81 q 83 356 83 250 q 127 544 83 461 q 252 676 171 628 q 446 725 333 725 q 627 678 549 725 q 750 550 706 631 q 794 367 794 469 l 794 0 l 760 0 l 760 185 l 756 185 q 693 93 736 140 q 585 14 650 46 q 436 -18 521 -18 m 436 13 q 601 57 528 13 q 716 180 674 101 q 758 358 758 258 q 719 531 758 456 q 610 651 681 607 q 443 694 539 694 q 269 649 342 694 q 158 526 197 604 q 119 347 119 447 q 156 179 119 256 q 264 58 193 103 q 436 13 335 13 m 269 801 l 414 972 l 469 972 l 614 801 l 575 801 l 442 954 l 308 801 l 269 801 m 440 -201 q 415 -190 426 -201 q 404 -165 404 -179 q 415 -140 404 -150 q 440 -129 426 -129 q 466 -140 456 -129 q 476 -165 476 -150 q 466 -190 476 -179 q 440 -201 456 -201 z "},"ầ":{"ha":886,"x_min":83,"x_max":794,"o":"m 436 -18 q 244 31 324 -18 q 124 165 165 81 q 83 356 83 250 q 127 544 83 461 q 252 676 171 628 q 446 725 333 725 q 627 678 549 725 q 750 550 706 631 q 794 367 794 469 l 794 0 l 760 0 l 760 185 l 756 185 q 693 93 736 140 q 585 14 650 46 q 436 -18 521 -18 m 436 13 q 601 57 528 13 q 716 180 674 101 q 758 358 758 258 q 719 531 758 456 q 610 651 681 607 q 443 694 539 694 q 269 649 342 694 q 158 526 197 604 q 119 347 119 447 q 156 179 119 256 q 264 58 193 103 q 436 13 335 13 m 269 801 l 414 972 l 469 972 l 614 801 l 575 801 l 442 954 l 308 801 l 269 801 m 411 1039 l 267 1210 l 306 1210 l 450 1039 l 411 1039 z "},"ẩ":{"ha":886,"x_min":83,"x_max":794,"o":"m 436 -18 q 244 31 324 -18 q 124 165 165 81 q 83 356 83 250 q 127 544 83 461 q 252 676 171 628 q 446 725 333 725 q 627 678 549 725 q 750 550 706 631 q 794 367 794 469 l 794 0 l 760 0 l 760 185 l 756 185 q 693 93 736 140 q 585 14 650 46 q 436 -18 521 -18 m 436 13 q 601 57 528 13 q 716 180 674 101 q 758 358 758 258 q 719 531 758 456 q 610 651 681 607 q 443 694 539 694 q 269 649 342 694 q 158 526 197 604 q 119 347 119 447 q 156 179 119 256 q 264 58 193 103 q 436 13 335 13 m 269 801 l 414 972 l 469 972 l 614 801 l 575 801 l 442 954 l 308 801 l 269 801 m 392 1025 l 392 1053 q 460 1068 422 1053 q 525 1110 497 1083 q 553 1175 553 1138 q 524 1233 551 1207 q 429 1260 496 1260 q 379 1258 403 1260 q 346 1253 356 1256 l 346 1279 q 384 1285 361 1282 q 429 1288 407 1288 q 546 1258 507 1288 q 585 1176 585 1228 q 552 1094 585 1128 q 474 1042 519 1060 q 392 1025 429 1025 z "},"ẫ":{"ha":886,"x_min":83,"x_max":794,"o":"m 436 -18 q 244 31 324 -18 q 124 165 165 81 q 83 356 83 250 q 127 544 83 461 q 252 676 171 628 q 446 725 333 725 q 627 678 549 725 q 750 550 706 631 q 794 367 794 469 l 794 0 l 760 0 l 760 185 l 756 185 q 693 93 736 140 q 585 14 650 46 q 436 -18 521 -18 m 436 13 q 601 57 528 13 q 716 180 674 101 q 758 358 758 258 q 719 531 758 456 q 610 651 681 607 q 443 694 539 694 q 269 649 342 694 q 158 526 197 604 q 119 347 119 447 q 156 179 119 256 q 264 58 193 103 q 436 13 335 13 m 269 801 l 414 972 l 469 972 l 614 801 l 575 801 l 442 954 l 308 801 l 269 801 m 554 1038 q 495 1052 518 1038 q 458 1088 472 1067 q 429 1131 443 1110 q 394 1175 414 1156 q 340 1194 375 1194 q 286 1165 310 1194 q 263 1082 263 1136 l 263 1051 l 229 1051 l 229 1082 q 264 1189 229 1153 q 340 1225 299 1225 q 415 1200 389 1225 q 458 1146 440 1175 q 496 1092 476 1117 q 554 1068 515 1068 q 610 1097 586 1068 q 633 1182 633 1126 l 633 1213 l 667 1213 l 667 1182 q 631 1074 667 1110 q 554 1038 596 1038 z "},"ȁ":{"ha":886,"x_min":83,"x_max":794,"o":"m 436 -18 q 244 31 324 -18 q 124 165 165 81 q 83 356 83 250 q 127 544 83 461 q 252 676 171 628 q 446 725 333 725 q 627 678 549 725 q 750 550 706 631 q 794 367 794 469 l 794 0 l 760 0 l 760 185 l 756 185 q 693 93 736 140 q 585 14 650 46 q 436 -18 521 -18 m 436 13 q 601 57 528 13 q 716 180 674 101 q 758 358 758 258 q 719 531 758 456 q 610 651 681 607 q 443 694 539 694 q 269 649 342 694 q 158 526 197 604 q 119 347 119 447 q 156 179 119 256 q 264 58 193 103 q 436 13 335 13 m 543 801 l 392 996 l 431 996 l 582 801 l 543 801 m 349 801 l 197 996 l 236 996 l 388 801 l 349 801 z "},"ä":{"ha":886,"x_min":83,"x_max":794,"o":"m 436 -18 q 244 31 324 -18 q 124 165 165 81 q 83 356 83 250 q 127 544 83 461 q 252 676 171 628 q 446 725 333 725 q 627 678 549 725 q 750 550 706 631 q 794 367 794 469 l 794 0 l 760 0 l 760 185 l 756 185 q 693 93 736 140 q 585 14 650 46 q 436 -18 521 -18 m 436 13 q 601 57 528 13 q 716 180 674 101 q 758 358 758 258 q 719 531 758 456 q 610 651 681 607 q 443 694 539 694 q 269 649 342 694 q 158 526 197 604 q 119 347 119 447 q 156 179 119 256 q 264 58 193 103 q 436 13 335 13 m 556 863 q 531 874 542 863 q 519 899 519 885 q 531 924 519 914 q 556 935 542 935 q 581 924 571 935 q 592 899 592 914 q 581 874 592 885 q 556 863 571 863 m 343 863 q 318 874 329 863 q 307 899 307 885 q 318 924 307 914 q 343 935 329 935 q 369 924 358 935 q 379 899 379 914 q 369 874 379 885 q 343 863 358 863 z "},"ạ":{"ha":886,"x_min":83,"x_max":794,"o":"m 436 -18 q 244 31 324 -18 q 124 165 165 81 q 83 356 83 250 q 127 544 83 461 q 252 676 171 628 q 446 725 333 725 q 627 678 549 725 q 750 550 706 631 q 794 367 794 469 l 794 0 l 760 0 l 760 185 l 756 185 q 693 93 736 140 q 585 14 650 46 q 436 -18 521 -18 m 436 13 q 601 57 528 13 q 716 180 674 101 q 758 358 758 258 q 719 531 758 456 q 610 651 681 607 q 443 694 539 694 q 269 649 342 694 q 158 526 197 604 q 119 347 119 447 q 156 179 119 256 q 264 58 193 103 q 436 13 335 13 m 457 -201 q 432 -190 443 -201 q 421 -165 421 -179 q 432 -140 421 -150 q 457 -129 443 -129 q 483 -140 472 -129 q 493 -165 493 -150 q 483 -190 493 -179 q 457 -201 472 -201 z "},"à":{"ha":886,"x_min":83,"x_max":794,"o":"m 436 -18 q 244 31 324 -18 q 124 165 165 81 q 83 356 83 250 q 127 544 83 461 q 252 676 171 628 q 446 725 333 725 q 627 678 549 725 q 750 550 706 631 q 794 367 794 469 l 794 0 l 760 0 l 760 185 l 756 185 q 693 93 736 140 q 585 14 650 46 q 436 -18 521 -18 m 436 13 q 601 57 528 13 q 716 180 674 101 q 758 358 758 258 q 719 531 758 456 q 610 651 681 607 q 443 694 539 694 q 269 649 342 694 q 158 526 197 604 q 119 347 119 447 q 156 179 119 256 q 264 58 193 103 q 436 13 335 13 m 411 801 l 267 972 l 306 972 l 450 801 l 411 801 z "},"ả":{"ha":886,"x_min":83,"x_max":794,"o":"m 436 -18 q 244 31 324 -18 q 124 165 165 81 q 83 356 83 250 q 127 544 83 461 q 252 676 171 628 q 446 725 333 725 q 627 678 549 725 q 750 550 706 631 q 794 367 794 469 l 794 0 l 760 0 l 760 185 l 756 185 q 693 93 736 140 q 585 14 650 46 q 436 -18 521 -18 m 436 13 q 601 57 528 13 q 716 180 674 101 q 758 358 758 258 q 719 531 758 456 q 610 651 681 607 q 443 694 539 694 q 269 649 342 694 q 158 526 197 604 q 119 347 119 447 q 156 179 119 256 q 264 58 193 103 q 436 13 335 13 m 378 790 l 378 818 q 446 833 408 818 q 511 876 483 849 q 539 940 539 903 q 510 999 538 972 q 415 1025 482 1025 q 365 1023 389 1025 q 332 1018 342 1021 l 332 1044 q 370 1050 347 1047 q 415 1053 393 1053 q 532 1023 493 1053 q 571 942 571 993 q 538 859 571 893 q 460 808 506 825 q 378 790 415 790 z "},"ȃ":{"ha":886,"x_min":83,"x_max":794,"o":"m 444 967 q 523 947 489 967 q 576 891 557 928 q 594 801 594 854 l 561 801 q 529 903 561 867 q 444 940 497 940 q 359 903 392 940 q 326 801 326 867 l 293 801 q 312 891 293 854 q 365 947 331 928 q 444 967 400 967 m 436 -18 q 244 31 324 -18 q 124 165 165 81 q 83 356 83 250 q 127 544 83 461 q 252 676 171 628 q 446 725 333 725 q 627 678 549 725 q 750 550 706 631 q 794 367 794 469 l 794 0 l 760 0 l 760 185 l 756 185 q 693 93 736 140 q 585 14 650 46 q 436 -18 521 -18 m 436 13 q 601 57 528 13 q 716 180 674 101 q 758 358 758 258 q 719 531 758 456 q 610 651 681 607 q 443 694 539 694 q 269 649 342 694 q 158 526 197 604 q 119 347 119 447 q 156 179 119 256 q 264 58 193 103 q 436 13 335 13 z "},"ā":{"ha":886,"x_min":83,"x_max":794,"o":"m 436 -18 q 244 31 324 -18 q 124 165 165 81 q 83 356 83 250 q 127 544 83 461 q 252 676 171 628 q 446 725 333 725 q 627 678 549 725 q 750 550 706 631 q 794 367 794 469 l 794 0 l 760 0 l 760 185 l 756 185 q 693 93 736 140 q 585 14 650 46 q 436 -18 521 -18 m 436 13 q 601 57 528 13 q 716 180 674 101 q 758 358 758 258 q 719 531 758 456 q 610 651 681 607 q 443 694 539 694 q 269 649 342 694 q 158 526 197 604 q 119 347 119 447 q 156 179 119 256 q 264 58 193 103 q 436 13 335 13 m 256 867 l 256 899 l 644 899 l 644 867 l 256 867 z "},"ą":{"ha":886,"x_min":83,"x_max":799,"o":"m 736 -303 q 641 -272 676 -303 q 606 -186 606 -242 q 628 -109 606 -146 q 683 -44 651 -72 q 738 3 714 -15 q 767 22 763 21 l 794 0 q 767 -19 790 -3 q 713 -60 743 -35 q 662 -117 683 -85 q 640 -183 640 -149 q 665 -247 640 -224 q 732 -269 689 -269 q 760 -266 744 -269 q 799 -257 776 -262 l 799 -292 q 775 -298 793 -293 q 736 -303 757 -303 m 436 -18 q 244 31 324 -18 q 124 165 165 81 q 83 356 83 250 q 127 544 83 461 q 252 676 171 628 q 446 725 333 725 q 627 678 549 725 q 750 550 706 631 q 794 367 794 469 l 794 0 l 760 0 l 760 185 l 756 185 q 693 93 736 140 q 585 14 650 46 q 436 -18 521 -18 m 436 13 q 601 57 528 13 q 716 180 674 101 q 758 358 758 258 q 719 531 758 456 q 610 651 681 607 q 443 694 539 694 q 269 649 342 694 q 158 526 197 604 q 119 347 119 447 q 156 179 119 256 q 264 58 193 103 q 436 13 335 13 z "},"å":{"ha":886,"x_min":83,"x_max":794,"o":"m 436 -18 q 244 31 324 -18 q 124 165 165 81 q 83 356 83 250 q 127 544 83 461 q 252 676 171 628 q 446 725 333 725 q 627 678 549 725 q 750 550 706 631 q 794 367 794 469 l 794 0 l 760 0 l 760 185 l 756 185 q 693 93 736 140 q 585 14 650 46 q 436 -18 521 -18 m 436 13 q 601 57 528 13 q 716 180 674 101 q 758 358 758 258 q 719 531 758 456 q 610 651 681 607 q 443 694 539 694 q 269 649 342 694 q 158 526 197 604 q 119 347 119 447 q 156 179 119 256 q 264 58 193 103 q 436 13 335 13 m 428 789 q 334 827 372 789 q 296 921 296 865 q 334 1015 296 976 q 428 1053 372 1053 q 522 1015 483 1053 q 560 921 560 976 q 522 827 560 865 q 428 789 483 789 m 428 819 q 499 849 469 819 q 528 921 528 878 q 499 993 528 964 q 428 1022 469 1022 q 357 993 386 1022 q 328 921 328 964 q 357 849 328 878 q 428 819 386 819 z "},"ǻ":{"ha":886,"x_min":83,"x_max":794,"o":"m 436 -18 q 244 31 324 -18 q 124 165 165 81 q 83 356 83 250 q 127 544 83 461 q 252 676 171 628 q 446 725 333 725 q 627 678 549 725 q 750 550 706 631 q 794 367 794 469 l 794 0 l 760 0 l 760 185 l 756 185 q 693 93 736 140 q 585 14 650 46 q 436 -18 521 -18 m 436 13 q 601 57 528 13 q 716 180 674 101 q 758 358 758 258 q 719 531 758 456 q 610 651 681 607 q 443 694 539 694 q 269 649 342 694 q 158 526 197 604 q 119 347 119 447 q 156 179 119 256 q 264 58 193 103 q 436 13 335 13 m 428 789 q 334 827 372 789 q 296 921 296 865 q 334 1015 296 976 q 428 1053 372 1053 q 522 1015 483 1053 q 560 921 560 976 q 522 827 560 865 q 428 789 483 789 m 428 819 q 499 849 469 819 q 528 921 528 878 q 499 993 528 964 q 428 1022 469 1022 q 357 993 386 1022 q 328 921 328 964 q 357 849 328 878 q 428 819 386 819 m 401 1114 l 546 1285 l 585 1285 l 440 1114 l 401 1114 z "},"ã":{"ha":886,"x_min":83,"x_max":794,"o":"m 436 -18 q 244 31 324 -18 q 124 165 165 81 q 83 356 83 250 q 127 544 83 461 q 252 676 171 628 q 446 725 333 725 q 627 678 549 725 q 750 550 706 631 q 794 367 794 469 l 794 0 l 760 0 l 760 185 l 756 185 q 693 93 736 140 q 585 14 650 46 q 436 -18 521 -18 m 436 13 q 601 57 528 13 q 716 180 674 101 q 758 358 758 258 q 719 531 758 456 q 610 651 681 607 q 443 694 539 694 q 269 649 342 694 q 158 526 197 604 q 119 347 119 447 q 156 179 119 256 q 264 58 193 103 q 436 13 335 13 m 546 815 q 487 830 510 815 q 449 866 464 844 q 421 908 435 888 q 386 953 406 933 q 332 972 367 972 q 278 943 301 972 q 254 860 254 914 l 254 829 l 221 829 l 221 860 q 256 967 221 931 q 332 1003 290 1003 q 406 978 381 1003 q 450 924 432 953 q 488 870 468 894 q 546 846 507 846 q 601 875 578 846 q 625 960 625 904 l 625 990 l 658 990 l 658 960 q 623 851 658 888 q 546 815 588 815 z "},"æ":{"ha":1365,"x_min":69,"x_max":1282,"o":"m 247 0 q 157 26 197 0 q 93 99 117 53 q 69 204 69 144 q 93 304 69 263 q 158 369 117 346 q 249 392 199 392 l 639 392 l 639 528 q 599 635 639 593 q 490 678 558 678 l 135 678 l 135 708 l 494 708 q 624 655 575 708 q 674 519 674 601 q 785 667 710 608 q 968 725 861 725 q 1133 682 1063 725 q 1243 565 1204 639 q 1282 399 1282 492 q 1281 369 1282 383 q 1278 339 1281 354 l 678 339 q 727 170 678 239 q 856 67 776 101 q 1028 32 936 32 l 1194 32 l 1194 0 l 1039 0 q 817 49 915 0 q 674 197 719 99 q 621 57 674 114 q 483 0 568 0 l 247 0 m 253 31 l 482 31 q 594 78 547 31 q 640 194 640 125 l 640 361 l 260 361 q 144 315 183 361 q 104 203 104 268 q 122 122 104 163 q 174 56 140 82 q 253 31 207 31 m 678 371 l 1244 371 q 1243 440 1247 399 q 1223 524 1239 481 q 1175 606 1207 568 q 1092 669 1143 644 q 964 693 1040 693 q 844 665 897 693 q 754 589 792 636 q 697 485 717 542 q 678 371 678 428 z "},"ǽ":{"ha":1365,"x_min":69,"x_max":1282,"o":"m 247 0 q 157 26 197 0 q 93 99 117 53 q 69 204 69 144 q 93 304 69 263 q 158 369 117 346 q 249 392 199 392 l 639 392 l 639 528 q 599 635 639 593 q 490 678 558 678 l 135 678 l 135 708 l 494 708 q 624 655 575 708 q 674 519 674 601 q 785 667 710 608 q 968 725 861 725 q 1133 682 1063 725 q 1243 565 1204 639 q 1282 399 1282 492 q 1281 369 1282 383 q 1278 339 1281 354 l 678 339 q 727 170 678 239 q 856 67 776 101 q 1028 32 936 32 l 1194 32 l 1194 0 l 1039 0 q 817 49 915 0 q 674 197 719 99 q 621 57 674 114 q 483 0 568 0 l 247 0 m 253 31 l 482 31 q 594 78 547 31 q 640 194 640 125 l 640 361 l 260 361 q 144 315 183 361 q 104 203 104 268 q 122 122 104 163 q 174 56 140 82 q 253 31 207 31 m 678 371 l 1244 371 q 1243 440 1247 399 q 1223 524 1239 481 q 1175 606 1207 568 q 1092 669 1143 644 q 964 693 1040 693 q 844 665 897 693 q 754 589 792 636 q 697 485 717 542 q 678 371 678 428 m 660 801 l 804 972 l 843 972 l 699 801 l 660 801 z "},"b":{"ha":900,"x_min":118,"x_max":817,"o":"m 465 -18 q 299 22 379 -18 q 169 143 219 63 q 118 343 118 224 l 118 1014 l 153 1014 l 153 524 l 157 524 q 229 627 182 582 q 338 699 276 672 q 467 725 399 725 q 637 682 557 725 q 767 556 717 639 q 817 354 817 474 q 787 191 817 261 q 706 74 757 121 q 593 5 656 28 q 465 -18 531 -18 m 464 14 q 616 52 543 14 q 735 166 689 90 q 782 354 782 242 q 736 537 782 461 q 619 653 690 613 q 468 693 547 693 q 317 655 389 693 q 199 541 244 617 q 153 351 153 465 q 198 164 153 239 q 315 51 243 89 q 464 14 386 14 z "},"c":{"ha":589,"x_min":83,"x_max":540,"o":"m 465 0 q 269 47 356 0 q 133 174 183 94 q 83 354 83 254 q 133 534 83 454 q 269 661 183 614 q 465 708 356 708 l 540 708 l 540 676 l 454 676 q 289 633 365 676 q 165 517 213 590 q 118 354 118 444 q 165 191 118 264 q 289 75 213 118 q 454 32 365 32 l 540 32 l 540 0 l 465 0 z "},"ć":{"ha":603,"x_min":83,"x_max":540,"o":"m 465 0 q 269 47 356 0 q 133 174 183 94 q 83 354 83 254 q 133 534 83 454 q 269 661 183 614 q 465 708 356 708 l 540 708 l 540 676 l 454 676 q 289 633 365 676 q 165 517 213 590 q 118 354 118 444 q 165 191 118 264 q 289 75 213 118 q 454 32 365 32 l 540 32 l 540 0 l 465 0 m 349 801 l 493 972 l 532 972 l 388 801 l 349 801 z "},"č":{"ha":603,"x_min":83,"x_max":544,"o":"m 465 0 q 269 47 356 0 q 133 174 183 94 q 83 354 83 254 q 133 534 83 454 q 269 661 183 614 q 465 708 356 708 l 540 708 l 540 676 l 454 676 q 289 633 365 676 q 165 517 213 590 q 118 354 118 444 q 165 191 118 264 q 289 75 213 118 q 454 32 365 32 l 540 32 l 540 0 l 465 0 m 344 801 l 200 972 l 239 972 l 372 819 l 506 972 l 544 972 l 400 801 l 344 801 z "},"ç":{"ha":603,"x_min":83,"x_max":540,"o":"m 465 0 q 269 47 356 0 q 133 174 183 94 q 83 354 83 254 q 133 534 83 454 q 269 661 183 614 q 465 708 356 708 l 540 708 l 540 676 l 454 676 q 289 633 365 676 q 165 517 213 590 q 118 354 118 444 q 165 191 118 264 q 289 75 213 118 q 454 32 365 32 l 540 32 l 540 0 l 465 0 m 268 -282 l 392 19 l 432 19 l 303 -282 l 268 -282 z "},"ĉ":{"ha":603,"x_min":83,"x_max":540,"o":"m 465 0 q 269 47 356 0 q 133 174 183 94 q 83 354 83 254 q 133 534 83 454 q 269 661 183 614 q 465 708 356 708 l 540 708 l 540 676 l 454 676 q 289 633 365 676 q 165 517 213 590 q 118 354 118 444 q 165 191 118 264 q 289 75 213 118 q 454 32 365 32 l 540 32 l 540 0 l 465 0 m 193 801 l 338 972 l 393 972 l 538 801 l 499 801 l 365 954 l 232 801 l 193 801 z "},"ċ":{"ha":603,"x_min":83,"x_max":540,"o":"m 465 0 q 269 47 356 0 q 133 174 183 94 q 83 354 83 254 q 133 534 83 454 q 269 661 183 614 q 465 708 356 708 l 540 708 l 540 676 l 454 676 q 289 633 365 676 q 165 517 213 590 q 118 354 118 444 q 165 191 118 264 q 289 75 213 118 q 454 32 365 32 l 540 32 l 540 0 l 465 0 m 410 863 q 385 874 396 863 q 374 899 374 885 q 385 924 374 914 q 410 935 396 935 q 435 924 425 935 q 446 899 446 914 q 435 874 446 885 q 410 863 425 863 z "},"d":{"ha":900,"x_min":83,"x_max":782,"o":"m 435 -18 q 307 5 369 -18 q 194 74 244 28 q 113 191 143 121 q 83 354 83 261 q 133 556 83 474 q 263 682 183 639 q 433 725 343 725 q 563 699 501 725 q 671 627 624 672 q 743 524 718 582 l 747 524 l 747 1014 l 782 1014 l 782 343 q 731 143 782 224 q 601 22 681 63 q 435 -18 522 -18 m 436 14 q 585 51 514 14 q 702 164 657 89 q 747 351 747 239 q 701 541 747 465 q 584 655 656 617 q 432 693 513 693 q 281 653 353 693 q 164 537 210 613 q 118 354 118 461 q 165 166 118 242 q 284 52 211 90 q 436 14 357 14 z "},"ð":{"ha":900,"x_min":83,"x_max":782,"o":"m 435 -18 q 307 5 369 -18 q 194 74 244 28 q 113 191 143 121 q 83 354 83 261 q 133 556 83 474 q 263 682 183 639 q 433 725 343 725 q 533 710 486 725 q 619 668 581 696 l 621 669 l 493 868 l 247 829 l 247 858 l 475 894 l 397 1017 l 436 1017 l 511 900 l 647 922 l 647 892 l 529 874 l 721 578 q 761 490 749 531 q 778 416 774 450 q 782 351 782 382 q 731 145 782 228 q 601 22 681 63 q 435 -18 522 -18 m 436 14 q 585 51 514 14 q 702 164 657 89 q 747 351 747 239 q 701 541 747 465 q 584 655 656 617 q 432 693 513 693 q 281 653 353 693 q 164 537 210 613 q 118 354 118 461 q 165 166 118 242 q 284 52 211 90 q 436 14 357 14 z "},"ď":{"ha":1000,"x_min":83,"x_max":983,"o":"m 435 -18 q 307 5 369 -18 q 194 74 244 28 q 113 191 143 121 q 83 354 83 261 q 133 556 83 474 q 263 682 183 639 q 433 725 343 725 q 563 699 501 725 q 671 627 624 672 q 743 524 718 582 l 747 524 l 747 1014 l 782 1014 l 782 343 q 731 143 782 224 q 601 22 681 63 q 435 -18 522 -18 m 436 14 q 585 51 514 14 q 702 164 657 89 q 747 351 747 239 q 701 541 747 465 q 584 655 656 617 q 432 693 513 693 q 281 653 353 693 q 164 537 210 613 q 118 354 118 461 q 165 166 118 242 q 284 52 211 90 q 436 14 357 14 m 897 736 l 946 924 q 926 935 933 926 q 918 956 918 943 q 928 980 918 971 q 951 989 938 989 q 975 978 967 989 q 983 956 983 968 q 976 914 983 939 l 931 736 l 897 736 z "},"đ":{"ha":900,"x_min":83,"x_max":892,"o":"m 347 856 l 347 885 l 892 885 l 892 856 l 347 856 m 435 -18 q 307 5 369 -18 q 194 74 244 28 q 113 191 143 121 q 83 354 83 261 q 133 556 83 474 q 263 682 183 639 q 433 725 343 725 q 563 699 501 725 q 671 627 624 672 q 743 524 718 582 l 747 524 l 747 1014 l 782 1014 l 782 343 q 731 143 782 224 q 601 22 681 63 q 435 -18 522 -18 m 436 14 q 585 51 514 14 q 702 164 657 89 q 747 351 747 239 q 701 541 747 465 q 584 655 656 617 q 432 693 513 693 q 281 653 353 693 q 164 537 210 613 q 118 354 118 461 q 165 166 118 242 q 284 52 211 90 q 436 14 357 14 z "},"ǆ":{"ha":1619,"x_min":83,"x_max":1536,"o":"m 435 -18 q 307 5 369 -18 q 194 74 244 28 q 113 191 143 121 q 83 354 83 261 q 133 556 83 474 q 263 682 183 639 q 433 725 343 725 q 563 699 501 725 q 671 627 624 672 q 743 524 718 582 l 747 524 l 747 1014 l 782 1014 l 782 343 q 731 143 782 224 q 601 22 681 63 q 435 -18 522 -18 m 436 14 q 585 51 514 14 q 702 164 657 89 q 747 351 747 239 q 701 541 747 465 q 584 655 656 617 q 432 693 513 693 q 281 653 353 693 q 164 537 210 613 q 118 354 118 461 q 165 166 118 242 q 284 52 211 90 q 436 14 357 14 m 1088 0 q 1019 17 1049 0 q 972 63 989 35 q 956 122 956 90 q 975 197 956 167 q 1044 256 994 226 l 1425 481 q 1482 532 1469 507 q 1494 588 1494 557 q 1468 649 1494 621 q 1396 676 1442 676 l 990 676 l 990 708 l 1410 708 q 1476 691 1447 708 q 1520 646 1504 674 q 1536 586 1536 618 q 1517 512 1536 543 q 1450 453 1499 481 l 1071 228 q 1012 176 1025 201 q 999 121 999 151 q 1026 60 999 88 q 1101 32 1054 32 l 1528 32 l 1528 0 l 1088 0 m 1236 801 l 1092 972 l 1131 972 l 1264 819 l 1397 972 l 1436 972 l 1292 801 l 1236 801 z "},"e":{"ha":807,"x_min":83,"x_max":724,"o":"m 481 0 q 281 40 371 0 q 137 158 190 79 q 83 354 83 236 q 122 535 83 450 q 234 672 161 619 q 410 725 307 725 q 575 682 504 725 q 685 565 646 639 q 724 399 724 492 q 723 369 724 383 q 719 339 722 354 l 119 339 q 169 170 119 239 q 298 67 218 101 q 469 32 378 32 l 636 32 l 636 0 l 481 0 m 119 371 l 686 371 q 685 440 689 399 q 665 524 681 481 q 617 606 649 568 q 533 669 585 644 q 406 693 482 693 q 286 665 339 693 q 196 589 233 636 q 139 485 158 542 q 119 371 119 428 z "},"é":{"ha":807,"x_min":83,"x_max":724,"o":"m 481 0 q 281 40 371 0 q 137 158 190 79 q 83 354 83 236 q 122 535 83 450 q 234 672 161 619 q 410 725 307 725 q 575 682 504 725 q 685 565 646 639 q 724 399 724 492 q 723 369 724 383 q 719 339 722 354 l 119 339 q 169 170 119 239 q 298 67 218 101 q 469 32 378 32 l 636 32 l 636 0 l 481 0 m 119 371 l 686 371 q 685 440 689 399 q 665 524 681 481 q 617 606 649 568 q 533 669 585 644 q 406 693 482 693 q 286 665 339 693 q 196 589 233 636 q 139 485 158 542 q 119 371 119 428 m 404 801 l 549 972 l 588 972 l 443 801 l 404 801 z "},"ĕ":{"ha":807,"x_min":83,"x_max":724,"o":"m 481 0 q 281 40 371 0 q 137 158 190 79 q 83 354 83 236 q 122 535 83 450 q 234 672 161 619 q 410 725 307 725 q 575 682 504 725 q 685 565 646 639 q 724 399 724 492 q 723 369 724 383 q 719 339 722 354 l 119 339 q 169 170 119 239 q 298 67 218 101 q 469 32 378 32 l 636 32 l 636 0 l 481 0 m 119 371 l 686 371 q 685 440 689 399 q 665 524 681 481 q 617 606 649 568 q 533 669 585 644 q 406 693 482 693 q 286 665 339 693 q 196 589 233 636 q 139 485 158 542 q 119 371 119 428 m 419 799 q 340 818 375 799 q 287 875 306 838 q 268 964 268 913 l 301 964 q 334 862 301 899 q 419 825 367 825 q 504 862 472 825 q 536 964 536 899 l 569 964 q 551 875 569 913 q 498 818 532 838 q 419 799 464 799 z "},"ě":{"ha":807,"x_min":83,"x_max":724,"o":"m 481 0 q 281 40 371 0 q 137 158 190 79 q 83 354 83 236 q 122 535 83 450 q 234 672 161 619 q 410 725 307 725 q 575 682 504 725 q 685 565 646 639 q 724 399 724 492 q 723 369 724 383 q 719 339 722 354 l 119 339 q 169 170 119 239 q 298 67 218 101 q 469 32 378 32 l 636 32 l 636 0 l 481 0 m 119 371 l 686 371 q 685 440 689 399 q 665 524 681 481 q 617 606 649 568 q 533 669 585 644 q 406 693 482 693 q 286 665 339 693 q 196 589 233 636 q 139 485 158 542 q 119 371 119 428 m 386 801 l 242 972 l 281 972 l 414 819 l 547 972 l 586 972 l 442 801 l 386 801 z "},"ê":{"ha":807,"x_min":83,"x_max":724,"o":"m 481 0 q 281 40 371 0 q 137 158 190 79 q 83 354 83 236 q 122 535 83 450 q 234 672 161 619 q 410 725 307 725 q 575 682 504 725 q 685 565 646 639 q 724 399 724 492 q 723 369 724 383 q 719 339 722 354 l 119 339 q 169 170 119 239 q 298 67 218 101 q 469 32 378 32 l 636 32 l 636 0 l 481 0 m 119 371 l 686 371 q 685 440 689 399 q 665 524 681 481 q 617 606 649 568 q 533 669 585 644 q 406 693 482 693 q 286 665 339 693 q 196 589 233 636 q 139 485 158 542 q 119 371 119 428 m 249 801 l 393 972 l 449 972 l 593 801 l 554 801 l 421 954 l 288 801 l 249 801 z "},"ế":{"ha":807,"x_min":83,"x_max":724,"o":"m 481 0 q 281 40 371 0 q 137 158 190 79 q 83 354 83 236 q 122 535 83 450 q 234 672 161 619 q 410 725 307 725 q 575 682 504 725 q 685 565 646 639 q 724 399 724 492 q 723 369 724 383 q 719 339 722 354 l 119 339 q 169 170 119 239 q 298 67 218 101 q 469 32 378 32 l 636 32 l 636 0 l 481 0 m 119 371 l 686 371 q 685 440 689 399 q 665 524 681 481 q 617 606 649 568 q 533 669 585 644 q 406 693 482 693 q 286 665 339 693 q 196 589 233 636 q 139 485 158 542 q 119 371 119 428 m 249 801 l 393 972 l 449 972 l 593 801 l 554 801 l 421 954 l 288 801 l 249 801 m 428 1051 l 572 1222 l 611 1222 l 467 1051 l 428 1051 z "},"ệ":{"ha":807,"x_min":83,"x_max":724,"o":"m 481 0 q 281 40 371 0 q 137 158 190 79 q 83 354 83 236 q 122 535 83 450 q 234 672 161 619 q 410 725 307 725 q 575 682 504 725 q 685 565 646 639 q 724 399 724 492 q 723 369 724 383 q 719 339 722 354 l 119 339 q 169 170 119 239 q 298 67 218 101 q 469 32 378 32 l 636 32 l 636 0 l 481 0 m 119 371 l 686 371 q 685 440 689 399 q 665 524 681 481 q 617 606 649 568 q 533 669 585 644 q 406 693 482 693 q 286 665 339 693 q 196 589 233 636 q 139 485 158 542 q 119 371 119 428 m 249 801 l 393 972 l 449 972 l 593 801 l 554 801 l 421 954 l 288 801 l 249 801 m 411 -201 q 386 -190 397 -201 q 375 -165 375 -179 q 386 -140 375 -150 q 411 -129 397 -129 q 437 -140 426 -129 q 447 -165 447 -150 q 437 -190 447 -179 q 411 -201 426 -201 z "},"ề":{"ha":807,"x_min":83,"x_max":724,"o":"m 481 0 q 281 40 371 0 q 137 158 190 79 q 83 354 83 236 q 122 535 83 450 q 234 672 161 619 q 410 725 307 725 q 575 682 504 725 q 685 565 646 639 q 724 399 724 492 q 723 369 724 383 q 719 339 722 354 l 119 339 q 169 170 119 239 q 298 67 218 101 q 469 32 378 32 l 636 32 l 636 0 l 481 0 m 119 371 l 686 371 q 685 440 689 399 q 665 524 681 481 q 617 606 649 568 q 533 669 585 644 q 406 693 482 693 q 286 665 339 693 q 196 589 233 636 q 139 485 158 542 q 119 371 119 428 m 249 801 l 393 972 l 449 972 l 593 801 l 554 801 l 421 954 l 288 801 l 249 801 m 396 1051 l 251 1222 l 290 1222 l 435 1051 l 396 1051 z "},"ể":{"ha":807,"x_min":83,"x_max":724,"o":"m 481 0 q 281 40 371 0 q 137 158 190 79 q 83 354 83 236 q 122 535 83 450 q 234 672 161 619 q 410 725 307 725 q 575 682 504 725 q 685 565 646 639 q 724 399 724 492 q 723 369 724 383 q 719 339 722 354 l 119 339 q 169 170 119 239 q 298 67 218 101 q 469 32 378 32 l 636 32 l 636 0 l 481 0 m 119 371 l 686 371 q 685 440 689 399 q 665 524 681 481 q 617 606 649 568 q 533 669 585 644 q 406 693 482 693 q 286 665 339 693 q 196 589 233 636 q 139 485 158 542 q 119 371 119 428 m 249 801 l 393 972 l 449 972 l 593 801 l 554 801 l 421 954 l 288 801 l 249 801 m 361 1038 l 361 1065 q 429 1081 392 1065 q 494 1123 467 1096 q 522 1188 522 1150 q 493 1246 521 1219 q 399 1272 465 1272 q 349 1270 372 1272 q 315 1265 325 1268 l 315 1292 q 353 1297 331 1294 q 399 1300 376 1300 q 515 1270 476 1300 q 554 1189 554 1240 q 522 1106 554 1140 q 444 1055 489 1072 q 361 1038 399 1038 z "},"ễ":{"ha":807,"x_min":83,"x_max":724,"o":"m 481 0 q 281 40 371 0 q 137 158 190 79 q 83 354 83 236 q 122 535 83 450 q 234 672 161 619 q 410 725 307 725 q 575 682 504 725 q 685 565 646 639 q 724 399 724 492 q 723 369 724 383 q 719 339 722 354 l 119 339 q 169 170 119 239 q 298 67 218 101 q 469 32 378 32 l 636 32 l 636 0 l 481 0 m 119 371 l 686 371 q 685 440 689 399 q 665 524 681 481 q 617 606 649 568 q 533 669 585 644 q 406 693 482 693 q 286 665 339 693 q 196 589 233 636 q 139 485 158 542 q 119 371 119 428 m 249 801 l 393 972 l 449 972 l 593 801 l 554 801 l 421 954 l 288 801 l 249 801 m 526 1038 q 467 1052 490 1038 q 430 1088 444 1067 q 401 1131 415 1110 q 367 1175 386 1156 q 313 1194 347 1194 q 258 1165 282 1194 q 235 1082 235 1136 l 235 1051 l 201 1051 l 201 1082 q 236 1189 201 1153 q 313 1225 271 1225 q 387 1200 361 1225 q 431 1146 413 1175 q 468 1092 449 1117 q 526 1068 488 1068 q 582 1097 558 1068 q 606 1182 606 1126 l 606 1213 l 639 1213 l 639 1182 q 603 1074 639 1110 q 526 1038 568 1038 z "},"ȅ":{"ha":807,"x_min":83,"x_max":724,"o":"m 481 0 q 281 40 371 0 q 137 158 190 79 q 83 354 83 236 q 122 535 83 450 q 234 672 161 619 q 410 725 307 725 q 575 682 504 725 q 685 565 646 639 q 724 399 724 492 q 723 369 724 383 q 719 339 722 354 l 119 339 q 169 170 119 239 q 298 67 218 101 q 469 32 378 32 l 636 32 l 636 0 l 481 0 m 119 371 l 686 371 q 685 440 689 399 q 665 524 681 481 q 617 606 649 568 q 533 669 585 644 q 406 693 482 693 q 286 665 339 693 q 196 589 233 636 q 139 485 158 542 q 119 371 119 428 m 522 801 l 371 996 l 410 996 l 561 801 l 522 801 m 328 801 l 176 996 l 215 996 l 367 801 l 328 801 z "},"ë":{"ha":807,"x_min":83,"x_max":724,"o":"m 481 0 q 281 40 371 0 q 137 158 190 79 q 83 354 83 236 q 122 535 83 450 q 234 672 161 619 q 410 725 307 725 q 575 682 504 725 q 685 565 646 639 q 724 399 724 492 q 723 369 724 383 q 719 339 722 354 l 119 339 q 169 170 119 239 q 298 67 218 101 q 469 32 378 32 l 636 32 l 636 0 l 481 0 m 119 371 l 686 371 q 685 440 689 399 q 665 524 681 481 q 617 606 649 568 q 533 669 585 644 q 406 693 482 693 q 286 665 339 693 q 196 589 233 636 q 139 485 158 542 q 119 371 119 428 m 526 863 q 501 874 513 863 q 490 899 490 885 q 501 924 490 914 q 526 935 513 935 q 552 924 542 935 q 563 899 563 914 q 552 874 563 885 q 526 863 542 863 m 314 863 q 289 874 300 863 q 278 899 278 885 q 289 924 278 914 q 314 935 300 935 q 340 924 329 935 q 350 899 350 914 q 340 874 350 885 q 314 863 329 863 z "},"ė":{"ha":807,"x_min":83,"x_max":724,"o":"m 481 0 q 281 40 371 0 q 137 158 190 79 q 83 354 83 236 q 122 535 83 450 q 234 672 161 619 q 410 725 307 725 q 575 682 504 725 q 685 565 646 639 q 724 399 724 492 q 723 369 724 383 q 719 339 722 354 l 119 339 q 169 170 119 239 q 298 67 218 101 q 469 32 378 32 l 636 32 l 636 0 l 481 0 m 119 371 l 686 371 q 685 440 689 399 q 665 524 681 481 q 617 606 649 568 q 533 669 585 644 q 406 693 482 693 q 286 665 339 693 q 196 589 233 636 q 139 485 158 542 q 119 371 119 428 m 414 863 q 389 874 400 863 q 378 899 378 885 q 389 924 378 914 q 414 935 400 935 q 440 924 429 935 q 450 899 450 914 q 440 874 450 885 q 414 863 429 863 z "},"ẹ":{"ha":807,"x_min":83,"x_max":724,"o":"m 481 0 q 281 40 371 0 q 137 158 190 79 q 83 354 83 236 q 122 535 83 450 q 234 672 161 619 q 410 725 307 725 q 575 682 504 725 q 685 565 646 639 q 724 399 724 492 q 723 369 724 383 q 719 339 722 354 l 119 339 q 169 170 119 239 q 298 67 218 101 q 469 32 378 32 l 636 32 l 636 0 l 481 0 m 119 371 l 686 371 q 685 440 689 399 q 665 524 681 481 q 617 606 649 568 q 533 669 585 644 q 406 693 482 693 q 286 665 339 693 q 196 589 233 636 q 139 485 158 542 q 119 371 119 428 m 413 -201 q 388 -190 399 -201 q 376 -165 376 -179 q 388 -140 376 -150 q 413 -129 399 -129 q 438 -140 428 -129 q 449 -165 449 -150 q 438 -190 449 -179 q 413 -201 428 -201 z "},"è":{"ha":807,"x_min":83,"x_max":724,"o":"m 481 0 q 281 40 371 0 q 137 158 190 79 q 83 354 83 236 q 122 535 83 450 q 234 672 161 619 q 410 725 307 725 q 575 682 504 725 q 685 565 646 639 q 724 399 724 492 q 723 369 724 383 q 719 339 722 354 l 119 339 q 169 170 119 239 q 298 67 218 101 q 469 32 378 32 l 636 32 l 636 0 l 481 0 m 119 371 l 686 371 q 685 440 689 399 q 665 524 681 481 q 617 606 649 568 q 533 669 585 644 q 406 693 482 693 q 286 665 339 693 q 196 589 233 636 q 139 485 158 542 q 119 371 119 428 m 386 801 l 242 972 l 281 972 l 425 801 l 386 801 z "},"ẻ":{"ha":807,"x_min":83,"x_max":724,"o":"m 481 0 q 281 40 371 0 q 137 158 190 79 q 83 354 83 236 q 122 535 83 450 q 234 672 161 619 q 410 725 307 725 q 575 682 504 725 q 685 565 646 639 q 724 399 724 492 q 723 369 724 383 q 719 339 722 354 l 119 339 q 169 170 119 239 q 298 67 218 101 q 469 32 378 32 l 636 32 l 636 0 l 481 0 m 119 371 l 686 371 q 685 440 689 399 q 665 524 681 481 q 617 606 649 568 q 533 669 585 644 q 406 693 482 693 q 286 665 339 693 q 196 589 233 636 q 139 485 158 542 q 119 371 119 428 m 358 788 l 358 815 q 426 831 389 815 q 492 873 464 846 q 519 938 519 900 q 490 996 518 969 q 396 1022 463 1022 q 346 1020 369 1022 q 313 1015 322 1018 l 313 1042 q 351 1047 328 1044 q 396 1050 374 1050 q 513 1020 474 1050 q 551 939 551 990 q 519 856 551 890 q 441 805 486 822 q 358 788 396 788 z "},"ȇ":{"ha":807,"x_min":83,"x_max":724,"o":"m 418 967 q 497 947 463 967 q 549 891 531 928 q 568 801 568 854 l 535 801 q 503 903 535 867 q 418 940 471 940 q 333 903 365 940 q 300 801 300 867 l 267 801 q 285 891 267 854 q 339 947 304 928 q 418 967 374 967 m 481 0 q 281 40 371 0 q 137 158 190 79 q 83 354 83 236 q 122 535 83 450 q 234 672 161 619 q 410 725 307 725 q 575 682 504 725 q 685 565 646 639 q 724 399 724 492 q 723 369 724 383 q 719 339 722 354 l 119 339 q 169 170 119 239 q 298 67 218 101 q 469 32 378 32 l 636 32 l 636 0 l 481 0 m 119 371 l 686 371 q 685 440 689 399 q 665 524 681 481 q 617 606 649 568 q 533 669 585 644 q 406 693 482 693 q 286 665 339 693 q 196 589 233 636 q 139 485 158 542 q 119 371 119 428 z "},"ē":{"ha":807,"x_min":83,"x_max":724,"o":"m 481 0 q 281 40 371 0 q 137 158 190 79 q 83 354 83 236 q 122 535 83 450 q 234 672 161 619 q 410 725 307 725 q 575 682 504 725 q 685 565 646 639 q 724 399 724 492 q 723 369 724 383 q 719 339 722 354 l 119 339 q 169 170 119 239 q 298 67 218 101 q 469 32 378 32 l 636 32 l 636 0 l 481 0 m 119 371 l 686 371 q 685 440 689 399 q 665 524 681 481 q 617 606 649 568 q 533 669 585 644 q 406 693 482 693 q 286 665 339 693 q 196 589 233 636 q 139 485 158 542 q 119 371 119 428 m 221 867 l 221 899 l 610 899 l 610 867 l 221 867 z "},"ę":{"ha":807,"x_min":83,"x_max":733,"o":"m 660 -303 q 546 -271 590 -303 q 501 -178 501 -239 q 515 -118 501 -149 q 547 -59 528 -87 q 588 -7 567 -31 q 624 32 608 17 l 631 15 l 636 0 q 593 -52 617 -22 q 553 -115 569 -82 q 536 -179 536 -147 q 569 -249 536 -224 q 661 -274 603 -274 q 694 -271 676 -274 q 733 -262 711 -268 l 733 -292 q 701 -300 722 -297 q 660 -303 681 -303 m 481 0 q 281 40 371 0 q 137 158 190 79 q 83 354 83 236 q 122 535 83 450 q 234 672 161 619 q 410 725 307 725 q 575 682 504 725 q 685 565 646 639 q 724 399 724 492 q 723 369 724 383 q 719 339 722 354 l 119 339 q 169 170 119 239 q 298 67 218 101 q 469 32 378 32 l 636 32 l 636 0 l 481 0 m 119 371 l 686 371 q 685 440 689 399 q 665 524 681 481 q 617 606 649 568 q 533 669 585 644 q 406 693 482 693 q 286 665 339 693 q 196 589 233 636 q 139 485 158 542 q 119 371 119 428 z "},"ẽ":{"ha":807,"x_min":83,"x_max":724,"o":"m 481 0 q 281 40 371 0 q 137 158 190 79 q 83 354 83 236 q 122 535 83 450 q 234 672 161 619 q 410 725 307 725 q 575 682 504 725 q 685 565 646 639 q 724 399 724 492 q 723 369 724 383 q 719 339 722 354 l 119 339 q 169 170 119 239 q 298 67 218 101 q 469 32 378 32 l 636 32 l 636 0 l 481 0 m 119 371 l 686 371 q 685 440 689 399 q 665 524 681 481 q 617 606 649 568 q 533 669 585 644 q 406 693 482 693 q 286 665 339 693 q 196 589 233 636 q 139 485 158 542 q 119 371 119 428 m 513 815 q 453 830 476 815 q 416 866 431 844 q 388 908 401 888 q 353 953 372 933 q 299 972 333 972 q 244 943 268 972 q 221 860 221 914 l 221 829 l 188 829 l 188 860 q 222 967 188 931 q 299 1003 257 1003 q 373 978 347 1003 q 417 924 399 953 q 454 870 435 894 q 513 846 474 846 q 568 875 544 846 q 592 960 592 904 l 592 990 l 625 990 l 625 960 q 590 851 625 888 q 513 815 554 815 z "},"ə":{"ha":807,"x_min":83,"x_max":724,"o":"m 326 708 q 527 669 438 708 q 670 551 617 629 q 724 354 724 472 q 685 174 724 258 q 573 36 646 89 q 397 -17 500 -17 q 232 26 303 -17 q 122 144 161 69 q 83 310 83 218 q 85 340 83 325 q 88 369 86 356 l 688 369 q 638 539 688 471 q 509 642 589 607 q 338 676 429 676 l 171 676 l 171 708 l 326 708 m 688 338 l 121 338 q 122 269 118 310 q 142 184 126 228 q 190 102 158 140 q 274 40 222 64 q 401 15 325 15 q 521 44 468 15 q 611 119 574 72 q 668 224 649 167 q 688 338 688 281 z "},"f":{"ha":517,"x_min":28,"x_max":489,"o":"m 153 0 l 153 676 l 28 676 l 28 708 l 153 708 l 153 813 q 206 960 153 907 q 354 1014 260 1014 l 489 1014 l 489 982 l 364 982 q 231 935 275 982 q 188 799 188 888 l 188 708 l 465 708 l 465 676 l 188 676 l 188 0 l 153 0 z "},"g":{"ha":904,"x_min":83,"x_max":786,"o":"m 226 -282 l 226 -250 l 547 -250 q 699 -194 647 -250 q 751 -39 751 -137 l 751 185 l 747 185 q 685 93 728 140 q 578 14 642 46 q 429 -18 514 -18 q 243 31 321 -18 q 124 165 165 81 q 83 354 83 249 q 126 543 83 460 q 247 675 168 626 q 433 724 325 724 q 616 676 536 724 q 741 549 696 629 q 786 365 786 468 l 786 -53 q 724 -219 786 -157 q 557 -282 663 -282 l 226 -282 m 429 14 q 594 58 521 14 q 709 180 667 103 q 751 357 751 257 q 711 529 751 454 q 599 648 671 604 q 431 692 526 692 q 263 647 333 692 q 156 524 193 601 q 118 346 118 446 q 156 178 118 254 q 263 58 193 103 q 429 14 332 14 z "},"ğ":{"ha":904,"x_min":83,"x_max":786,"o":"m 226 -282 l 226 -250 l 547 -250 q 699 -194 647 -250 q 751 -39 751 -137 l 751 185 l 747 185 q 685 93 728 140 q 578 14 642 46 q 429 -18 514 -18 q 243 31 321 -18 q 124 165 165 81 q 83 354 83 249 q 126 543 83 460 q 247 675 168 626 q 433 724 325 724 q 616 676 536 724 q 741 549 696 629 q 786 365 786 468 l 786 -53 q 724 -219 786 -157 q 557 -282 663 -282 l 226 -282 m 429 14 q 594 58 521 14 q 709 180 667 103 q 751 357 751 257 q 711 529 751 454 q 599 648 671 604 q 431 692 526 692 q 263 647 333 692 q 156 524 193 601 q 118 346 118 446 q 156 178 118 254 q 263 58 193 103 q 429 14 332 14 m 450 799 q 371 818 406 799 q 317 875 336 838 q 299 964 299 913 l 332 964 q 365 862 332 899 q 450 825 397 825 q 535 862 503 825 q 567 964 567 899 l 600 964 q 581 875 600 913 q 528 818 563 838 q 450 799 494 799 z "},"ǧ":{"ha":904,"x_min":83,"x_max":786,"o":"m 226 -282 l 226 -250 l 547 -250 q 699 -194 647 -250 q 751 -39 751 -137 l 751 185 l 747 185 q 685 93 728 140 q 578 14 642 46 q 429 -18 514 -18 q 243 31 321 -18 q 124 165 165 81 q 83 354 83 249 q 126 543 83 460 q 247 675 168 626 q 433 724 325 724 q 616 676 536 724 q 741 549 696 629 q 786 365 786 468 l 786 -53 q 724 -219 786 -157 q 557 -282 663 -282 l 226 -282 m 429 14 q 594 58 521 14 q 709 180 667 103 q 751 357 751 257 q 711 529 751 454 q 599 648 671 604 q 431 692 526 692 q 263 647 333 692 q 156 524 193 601 q 118 346 118 446 q 156 178 118 254 q 263 58 193 103 q 429 14 332 14 m 411 801 l 267 972 l 306 972 l 439 819 l 572 972 l 611 972 l 467 801 l 411 801 z "},"ĝ":{"ha":904,"x_min":83,"x_max":786,"o":"m 226 -282 l 226 -250 l 547 -250 q 699 -194 647 -250 q 751 -39 751 -137 l 751 185 l 747 185 q 685 93 728 140 q 578 14 642 46 q 429 -18 514 -18 q 243 31 321 -18 q 124 165 165 81 q 83 354 83 249 q 126 543 83 460 q 247 675 168 626 q 433 724 325 724 q 616 676 536 724 q 741 549 696 629 q 786 365 786 468 l 786 -53 q 724 -219 786 -157 q 557 -282 663 -282 l 226 -282 m 429 14 q 594 58 521 14 q 709 180 667 103 q 751 357 751 257 q 711 529 751 454 q 599 648 671 604 q 431 692 526 692 q 263 647 333 692 q 156 524 193 601 q 118 346 118 446 q 156 178 118 254 q 263 58 193 103 q 429 14 332 14 m 268 801 l 413 972 l 468 972 l 613 801 l 574 801 l 440 954 l 307 801 l 268 801 z "},"ģ":{"ha":904,"x_min":83,"x_max":786,"o":"m 513 1114 l 464 926 q 484 916 476 925 q 492 894 492 907 q 482 870 492 879 q 458 861 472 861 q 435 872 443 861 q 426 894 426 882 q 433 936 426 911 l 479 1114 l 513 1114 m 226 -282 l 226 -250 l 547 -250 q 699 -194 647 -250 q 751 -39 751 -137 l 751 185 l 747 185 q 685 93 728 140 q 578 14 642 46 q 429 -18 514 -18 q 243 31 321 -18 q 124 165 165 81 q 83 354 83 249 q 126 543 83 460 q 247 675 168 626 q 433 724 325 724 q 616 676 536 724 q 741 549 696 629 q 786 365 786 468 l 786 -53 q 724 -219 786 -157 q 557 -282 663 -282 l 226 -282 m 429 14 q 594 58 521 14 q 709 180 667 103 q 751 357 751 257 q 711 529 751 454 q 599 648 671 604 q 431 692 526 692 q 263 647 333 692 q 156 524 193 601 q 118 346 118 446 q 156 178 118 254 q 263 58 193 103 q 429 14 332 14 z "},"ġ":{"ha":904,"x_min":83,"x_max":786,"o":"m 226 -282 l 226 -250 l 547 -250 q 699 -194 647 -250 q 751 -39 751 -137 l 751 185 l 747 185 q 685 93 728 140 q 578 14 642 46 q 429 -18 514 -18 q 243 31 321 -18 q 124 165 165 81 q 83 354 83 249 q 126 543 83 460 q 247 675 168 626 q 433 724 325 724 q 616 676 536 724 q 741 549 696 629 q 786 365 786 468 l 786 -53 q 724 -219 786 -157 q 557 -282 663 -282 l 226 -282 m 429 14 q 594 58 521 14 q 709 180 667 103 q 751 357 751 257 q 711 529 751 454 q 599 648 671 604 q 431 692 526 692 q 263 647 333 692 q 156 524 193 601 q 118 346 118 446 q 156 178 118 254 q 263 58 193 103 q 429 14 332 14 m 439 863 q 414 874 425 863 q 403 899 403 885 q 414 924 403 914 q 439 935 425 935 q 465 924 454 935 q 475 899 475 914 q 465 874 475 885 q 439 863 454 863 z "},"h":{"ha":881,"x_min":118,"x_max":763,"o":"m 118 0 l 118 1014 l 153 1014 l 153 554 q 271 683 193 639 q 440 726 349 726 q 594 692 521 726 q 715 588 668 657 q 763 415 763 519 l 763 0 l 728 0 l 728 410 q 685 567 728 504 q 577 663 643 631 q 439 694 511 694 q 302 663 368 694 q 194 569 236 632 q 153 410 153 506 l 153 0 l 118 0 z "},"ħ":{"ha":881,"x_min":7,"x_max":763,"o":"m 7 856 l 7 885 l 551 885 l 551 856 l 7 856 m 118 0 l 118 1014 l 153 1014 l 153 554 q 271 683 193 639 q 440 726 349 726 q 594 692 521 726 q 715 588 668 657 q 763 415 763 519 l 763 0 l 728 0 l 728 410 q 685 567 728 504 q 577 663 643 631 q 439 694 511 694 q 302 663 368 694 q 194 569 236 632 q 153 410 153 506 l 153 0 l 118 0 z "},"ĥ":{"ha":881,"x_min":-36,"x_max":763,"o":"m 118 0 l 118 1014 l 153 1014 l 153 554 q 271 683 193 639 q 440 726 349 726 q 594 692 521 726 q 715 588 668 657 q 763 415 763 519 l 763 0 l 728 0 l 728 410 q 685 567 728 504 q 577 663 643 631 q 439 694 511 694 q 302 663 368 694 q 194 569 236 632 q 153 410 153 506 l 153 0 l 118 0 m -36 1051 l 108 1222 l 164 1222 l 308 1051 l 269 1051 l 136 1204 l 3 1051 l -36 1051 z "},"i":{"ha":271,"x_min":100,"x_max":172,"o":"m 118 0 l 118 708 l 153 708 l 153 0 l 118 0 m 136 864 q 111 875 122 864 q 100 900 100 886 q 111 926 100 915 q 136 936 122 936 q 162 926 151 936 q 172 900 172 915 q 162 875 172 886 q 136 864 151 864 z "},"ı":{"ha":271,"x_min":118,"x_max":153,"o":"m 118 0 l 118 708 l 153 708 l 153 0 l 118 0 z "},"í":{"ha":271,"x_min":106,"x_max":289,"o":"m 118 0 l 118 708 l 153 708 l 153 0 l 118 0 m 106 801 l 250 972 l 289 972 l 144 801 l 106 801 z "},"ĭ":{"ha":271,"x_min":-10,"x_max":292,"o":"m 118 0 l 118 708 l 153 708 l 153 0 l 118 0 m 142 799 q 63 818 97 799 q 9 875 28 838 q -10 964 -10 913 l 24 964 q 56 862 24 899 q 142 825 89 825 q 226 862 194 825 q 258 964 258 899 l 292 964 q 273 875 292 913 q 220 818 254 838 q 142 799 186 799 z "},"ǐ":{"ha":271,"x_min":-36,"x_max":308,"o":"m 118 0 l 118 708 l 153 708 l 153 0 l 118 0 m 108 801 l -36 972 l 3 972 l 136 819 l 269 972 l 308 972 l 164 801 l 108 801 z "},"î":{"ha":271,"x_min":-36,"x_max":308,"o":"m 118 0 l 118 708 l 153 708 l 153 0 l 118 0 m -36 801 l 108 972 l 164 972 l 308 801 l 269 801 l 136 954 l 3 801 l -36 801 z "},"ȉ":{"ha":271,"x_min":-114,"x_max":271,"o":"m 118 0 l 118 708 l 153 708 l 153 0 l 118 0 m 232 801 l 81 996 l 119 996 l 271 801 l 232 801 m 38 801 l -114 996 l -75 996 l 76 801 l 38 801 z "},"ï":{"ha":271,"x_min":-7,"x_max":278,"o":"m 118 0 l 118 708 l 153 708 l 153 0 l 118 0 m 242 864 q 217 875 228 864 q 206 900 206 886 q 217 926 206 915 q 242 936 228 936 q 267 926 257 936 q 278 900 278 915 q 267 875 278 886 q 242 864 257 864 m 29 864 q 4 875 15 864 q -7 900 -7 886 q 4 926 -7 915 q 29 936 15 936 q 55 926 44 936 q 65 900 65 915 q 55 875 65 886 q 29 864 44 864 z "},"ị":{"ha":271,"x_min":100,"x_max":174,"o":"m 118 0 l 118 708 l 153 708 l 153 0 l 118 0 m 136 864 q 111 875 122 864 q 100 900 100 886 q 111 926 100 915 q 136 936 122 936 q 162 926 151 936 q 172 900 172 915 q 162 875 172 886 q 136 864 151 864 m 138 -201 q 113 -190 124 -201 q 101 -165 101 -179 q 113 -140 101 -150 q 138 -129 124 -129 q 163 -140 153 -129 q 174 -165 174 -150 q 163 -190 174 -179 q 138 -201 153 -201 z "},"ì":{"ha":271,"x_min":-33,"x_max":153,"o":"m 118 0 l 118 708 l 153 708 l 153 0 l 118 0 m 111 801 l -33 972 l 6 972 l 150 801 l 111 801 z "},"ỉ":{"ha":271,"x_min":39,"x_max":278,"o":"m 118 0 l 118 708 l 153 708 l 153 0 l 118 0 m 85 792 l 85 819 q 153 835 115 819 q 218 877 190 850 q 246 942 246 904 q 217 1000 244 974 q 122 1026 189 1026 q 72 1024 96 1026 q 39 1019 49 1022 l 39 1046 q 77 1051 54 1049 q 122 1054 100 1054 q 239 1024 200 1054 q 278 943 278 994 q 245 860 278 894 q 167 809 213 826 q 85 792 122 792 z "},"ȋ":{"ha":271,"x_min":-15,"x_max":286,"o":"m 136 967 q 215 947 181 967 q 267 891 249 928 q 286 801 286 854 l 253 801 q 221 903 253 867 q 136 940 189 940 q 51 903 83 940 q 18 801 18 867 l -15 801 q 3 891 -15 854 q 57 947 22 928 q 136 967 92 967 m 118 0 l 118 708 l 153 708 l 153 0 l 118 0 z "},"ĳ":{"ha":542,"x_min":100,"x_max":442,"o":"m 118 0 l 118 708 l 153 708 l 153 0 l 118 0 m 136 864 q 111 875 122 864 q 100 900 100 886 q 111 926 100 915 q 136 936 122 936 q 162 926 151 936 q 172 900 172 915 q 162 875 172 886 q 136 864 151 864 m 163 -151 l 163 -119 l 213 -119 q 346 -72 303 -119 q 389 64 389 -25 l 389 708 l 424 708 l 424 50 q 369 -97 424 -43 q 221 -151 315 -151 l 163 -151 m 406 864 q 381 875 392 864 q 369 900 369 886 q 381 926 369 915 q 406 936 392 936 q 431 926 421 936 q 442 900 442 915 q 431 875 442 886 q 406 864 421 864 z "},"ī":{"ha":271,"x_min":-58,"x_max":331,"o":"m 118 0 l 118 708 l 153 708 l 153 0 l 118 0 m -58 867 l -58 899 l 331 899 l 331 867 l -58 867 z "},"į":{"ha":271,"x_min":-37,"x_max":172,"o":"m 93 -303 q -2 -272 33 -303 q -37 -186 -37 -242 q -15 -109 -37 -146 q 40 -44 8 -72 q 95 3 71 -15 q 124 22 119 21 l 151 0 q 124 -19 147 -3 q 70 -60 100 -35 q 19 -117 40 -85 q -3 -183 -3 -149 q 22 -247 -3 -224 q 89 -269 46 -269 q 117 -266 101 -269 q 156 -257 133 -262 l 156 -292 q 132 -298 150 -293 q 93 -303 114 -303 m 118 0 l 118 708 l 153 708 l 153 0 l 118 0 m 136 864 q 111 875 122 864 q 100 900 100 886 q 111 926 100 915 q 136 936 122 936 q 162 926 151 936 q 172 900 172 915 q 162 875 172 886 q 136 864 151 864 z "},"ĩ":{"ha":271,"x_min":-83,"x_max":354,"o":"m 118 0 l 118 708 l 153 708 l 153 0 l 118 0 m 242 815 q 183 830 206 815 q 145 866 160 844 q 117 908 131 888 q 82 953 101 933 q 28 972 63 972 q -26 943 -3 972 q -50 860 -50 914 l -50 829 l -83 829 l -83 860 q -49 967 -83 931 q 28 1003 -14 1003 q 102 978 76 1003 q 146 924 128 953 q 183 870 164 894 q 242 846 203 846 q 297 875 274 846 q 321 960 321 904 l 321 990 l 354 990 l 354 960 q 319 851 354 888 q 242 815 283 815 z "},"j":{"ha":271,"x_min":-108,"x_max":171,"o":"m -108 -151 l -108 -119 l -58 -119 q 75 -72 32 -119 q 118 64 118 -25 l 118 708 l 153 708 l 153 50 q 99 -97 153 -43 q -50 -151 44 -151 l -108 -151 m 135 864 q 110 875 121 864 q 99 900 99 886 q 110 926 99 915 q 135 936 121 936 q 160 926 150 936 q 171 900 171 915 q 160 875 171 886 q 135 864 150 864 z "},"ȷ":{"ha":271,"x_min":-108,"x_max":153,"o":"m -108 -151 l -108 -119 l -58 -119 q 75 -72 32 -119 q 118 64 118 -25 l 118 708 l 153 708 l 153 50 q 99 -97 153 -43 q -50 -151 44 -151 l -108 -151 z "},"ĵ":{"ha":269,"x_min":-108,"x_max":307,"o":"m -108 -151 l -108 -119 l -58 -119 q 75 -72 32 -119 q 118 64 118 -25 l 118 708 l 153 708 l 153 50 q 99 -97 153 -43 q -50 -151 44 -151 l -108 -151 m 135 864 q 110 875 121 864 q 99 900 99 886 q 110 926 99 915 q 135 936 121 936 q 160 926 150 936 q 171 900 171 915 q 160 875 171 886 q 135 864 150 864 m -37 1039 l 107 1210 l 163 1210 l 307 1039 l 268 1039 l 135 1192 l 1 1039 l -37 1039 z "},"k":{"ha":861,"x_min":118,"x_max":753,"o":"m 118 0 l 118 1014 l 153 1014 l 153 372 l 469 372 l 678 708 l 721 708 l 508 368 q 688 267 624 350 q 753 64 753 185 l 753 0 l 718 0 l 718 64 q 685 206 718 144 q 590 304 651 268 q 443 340 528 340 l 153 340 l 153 0 l 118 0 z "},"ķ":{"ha":861,"x_min":118,"x_max":753,"o":"m 118 0 l 118 1014 l 153 1014 l 153 372 l 469 372 l 678 708 l 721 708 l 508 368 q 688 267 624 350 q 753 64 753 185 l 753 0 l 718 0 l 718 64 q 685 206 718 144 q 590 304 651 268 q 443 340 528 340 l 153 340 l 153 0 l 118 0 m 383 -396 l 432 -208 q 412 -197 419 -206 q 404 -176 404 -189 q 414 -152 404 -161 q 438 -143 424 -143 q 461 -153 453 -143 q 469 -176 469 -164 q 463 -218 469 -193 l 417 -396 l 383 -396 z "},"ĸ":{"ha":861,"x_min":118,"x_max":753,"o":"m 118 0 l 118 708 l 153 708 l 153 372 l 469 372 l 569 556 q 625 647 601 614 q 672 694 649 681 q 728 708 696 708 l 753 708 l 753 676 l 732 676 q 690 665 708 676 q 651 623 671 654 q 597 532 631 592 l 508 368 q 688 267 624 350 q 753 64 753 185 l 753 0 l 718 0 l 718 64 q 685 206 718 144 q 590 304 651 268 q 443 340 528 340 l 153 340 l 153 0 l 118 0 z "},"l":{"ha":271,"x_min":118,"x_max":153,"o":"m 118 0 l 118 1014 l 153 1014 l 153 0 l 118 0 z "},"ĺ":{"ha":269,"x_min":118,"x_max":325,"o":"m 118 0 l 118 1014 l 153 1014 l 153 0 l 118 0 m 142 1051 l 286 1222 l 325 1222 l 181 1051 l 142 1051 z "},"ľ":{"ha":319,"x_min":118,"x_max":329,"o":"m 118 0 l 118 1014 l 153 1014 l 153 0 l 118 0 m 243 764 l 292 951 q 272 963 279 954 q 264 983 264 971 q 274 1008 264 999 q 297 1017 283 1017 q 321 1006 313 1017 q 329 983 329 996 q 322 942 329 967 l 276 764 l 243 764 z "},"ļ":{"ha":271,"x_min":79,"x_max":165,"o":"m 118 0 l 118 1014 l 153 1014 l 153 0 l 118 0 m 79 -396 l 128 -208 q 108 -197 115 -206 q 100 -176 100 -189 q 110 -152 100 -161 q 133 -143 119 -143 q 157 -153 149 -143 q 165 -176 165 -164 q 158 -218 165 -193 l 113 -396 l 79 -396 z "},"ŀ":{"ha":360,"x_min":118,"x_max":351,"o":"m 118 0 l 118 1014 l 153 1014 l 153 0 l 118 0 m 315 496 q 290 507 301 496 q 279 532 279 518 q 290 558 279 547 q 315 568 301 568 q 341 558 331 568 q 351 532 351 547 q 341 507 351 518 q 315 496 331 496 z "},"ǉ":{"ha":649,"x_min":118,"x_max":549,"o":"m 118 0 l 118 1014 l 153 1014 l 153 0 l 118 0 m 269 -151 l 269 -119 l 319 -119 q 453 -72 410 -119 q 496 64 496 -25 l 496 708 l 531 708 l 531 50 q 476 -97 531 -43 q 328 -151 422 -151 l 269 -151 m 513 864 q 488 875 499 864 q 476 900 476 886 q 488 926 476 915 q 513 936 499 936 q 538 926 528 936 q 549 900 549 915 q 538 875 549 886 q 513 864 528 864 z "},"ł":{"ha":271,"x_min":0,"x_max":271,"o":"m 0 461 l 0 497 l 271 593 l 271 557 l 0 461 m 118 0 l 118 1014 l 153 1014 l 153 0 l 118 0 z "},"m":{"ha":1353,"x_min":118,"x_max":1235,"o":"m 118 0 l 118 433 q 152 580 118 514 q 249 685 186 646 q 400 725 313 725 q 501 709 446 725 q 605 649 557 693 q 675 519 653 604 l 676 519 q 749 649 700 604 q 853 709 797 693 q 954 725 908 725 q 1105 685 1042 725 q 1201 580 1168 646 q 1235 433 1235 514 l 1235 0 l 1201 0 l 1201 433 q 1169 568 1201 510 q 1081 660 1136 626 q 953 694 1025 694 q 820 660 879 694 q 727 566 761 625 q 693 433 693 507 l 693 0 l 658 0 l 658 433 q 624 566 658 507 q 531 660 589 625 q 399 694 472 694 q 272 660 328 694 q 183 568 215 626 q 151 433 151 510 l 151 0 l 118 0 z "},"n":{"ha":853,"x_min":118,"x_max":735,"o":"m 118 0 l 118 415 q 163 588 118 519 q 279 692 208 657 q 426 726 350 726 q 574 692 504 726 q 690 588 644 657 q 735 415 735 519 l 735 0 l 700 0 l 700 410 q 660 567 700 504 q 558 663 621 631 q 425 694 494 694 q 294 663 357 694 q 192 569 232 632 q 153 410 153 506 l 153 0 l 118 0 z "},"ń":{"ha":853,"x_min":118,"x_max":735,"o":"m 118 0 l 118 415 q 163 588 118 519 q 279 692 208 657 q 426 726 350 726 q 574 692 504 726 q 690 588 644 657 q 735 415 735 519 l 735 0 l 700 0 l 700 410 q 660 567 700 504 q 558 663 621 631 q 425 694 494 694 q 294 663 357 694 q 192 569 232 632 q 153 410 153 506 l 153 0 l 118 0 m 417 801 l 561 972 l 600 972 l 456 801 l 417 801 z "},"ŉ":{"ha":899,"x_min":17,"x_max":781,"o":"m 164 0 l 164 415 q 209 588 164 519 q 325 692 254 657 q 472 726 396 726 q 620 692 550 726 q 735 588 690 657 q 781 415 781 519 l 781 0 l 746 0 l 746 410 q 706 567 746 504 q 603 663 667 631 q 471 694 540 694 q 340 663 403 694 q 238 569 278 632 q 199 410 199 506 l 199 0 l 164 0 m 17 571 l 65 758 q 45 769 53 761 q 38 790 38 778 q 47 815 38 806 q 71 824 57 824 q 94 813 86 824 q 103 790 103 803 q 96 749 103 774 l 50 571 l 17 571 z "},"ň":{"ha":853,"x_min":118,"x_max":735,"o":"m 118 0 l 118 415 q 163 588 118 519 q 279 692 208 657 q 426 726 350 726 q 574 692 504 726 q 690 588 644 657 q 735 415 735 519 l 735 0 l 700 0 l 700 410 q 660 567 700 504 q 558 663 621 631 q 425 694 494 694 q 294 663 357 694 q 192 569 232 632 q 153 410 153 506 l 153 0 l 118 0 m 399 801 l 254 972 l 293 972 l 426 819 l 560 972 l 599 972 l 454 801 l 399 801 z "},"ņ":{"ha":853,"x_min":118,"x_max":735,"o":"m 118 0 l 118 415 q 163 588 118 519 q 279 692 208 657 q 426 726 350 726 q 574 692 504 726 q 690 588 644 657 q 735 415 735 519 l 735 0 l 700 0 l 700 410 q 660 567 700 504 q 558 663 621 631 q 425 694 494 694 q 294 663 357 694 q 192 569 232 632 q 153 410 153 506 l 153 0 l 118 0 m 392 -396 l 440 -208 q 420 -197 428 -206 q 413 -176 413 -189 q 422 -152 413 -161 q 446 -143 432 -143 q 469 -153 461 -143 q 478 -176 478 -164 q 471 -218 478 -193 l 425 -396 l 392 -396 z "},"ǌ":{"ha":1160,"x_min":118,"x_max":1042,"o":"m 118 0 l 118 415 q 163 588 118 519 q 279 692 208 657 q 426 726 350 726 q 574 692 504 726 q 690 588 644 657 q 735 415 735 519 l 735 0 l 700 0 l 700 410 q 660 567 700 504 q 558 663 621 631 q 425 694 494 694 q 294 663 357 694 q 192 569 232 632 q 153 410 153 506 l 153 0 l 118 0 m 763 -151 l 763 -119 l 813 -119 q 946 -72 903 -119 q 989 64 989 -25 l 989 708 l 1024 708 l 1024 50 q 969 -97 1024 -43 q 821 -151 915 -151 l 763 -151 m 1006 864 q 981 875 992 864 q 969 900 969 886 q 981 926 969 915 q 1006 936 992 936 q 1031 926 1021 936 q 1042 900 1042 915 q 1031 875 1042 886 q 1006 864 1021 864 z "},"ñ":{"ha":853,"x_min":118,"x_max":735,"o":"m 118 0 l 118 415 q 163 588 118 519 q 279 692 208 657 q 426 726 350 726 q 574 692 504 726 q 690 588 644 657 q 735 415 735 519 l 735 0 l 700 0 l 700 410 q 660 567 700 504 q 558 663 621 631 q 425 694 494 694 q 294 663 357 694 q 192 569 232 632 q 153 410 153 506 l 153 0 l 118 0 m 547 815 q 488 830 511 815 q 451 866 465 844 q 422 908 436 888 q 388 953 407 933 q 333 972 368 972 q 279 943 303 972 q 256 860 256 914 l 256 829 l 222 829 l 222 860 q 257 967 222 931 q 333 1003 292 1003 q 408 978 382 1003 q 451 924 433 953 q 489 870 469 894 q 547 846 508 846 q 603 875 579 846 q 626 960 626 904 l 626 990 l 660 990 l 660 960 q 624 851 660 888 q 547 815 589 815 z "},"ŋ":{"ha":853,"x_min":118,"x_max":735,"o":"m 475 -151 l 475 -119 l 525 -119 q 658 -72 615 -119 q 700 64 700 -25 l 700 410 q 660 567 700 504 q 558 663 621 631 q 425 694 494 694 q 294 663 357 694 q 192 569 232 632 q 153 410 153 506 l 153 0 l 118 0 l 118 415 q 163 588 118 519 q 279 692 208 657 q 426 726 350 726 q 574 692 504 726 q 690 588 644 657 q 735 415 735 519 l 735 50 q 681 -97 735 -43 q 533 -151 628 -151 l 475 -151 z "},"o":{"ha":883,"x_min":83,"x_max":800,"o":"m 442 -18 q 256 31 336 -18 q 129 165 175 81 q 83 354 83 250 q 129 543 83 458 q 256 677 175 628 q 442 726 336 726 q 628 677 547 726 q 754 544 708 628 q 800 354 800 460 q 754 165 800 250 q 628 31 708 81 q 442 -18 547 -18 m 442 14 q 609 59 536 14 q 724 181 682 104 q 765 354 765 258 q 724 527 765 450 q 609 649 682 604 q 442 694 536 694 q 274 649 347 694 q 160 527 201 604 q 118 354 118 450 q 160 181 118 258 q 274 59 201 104 q 442 14 347 14 z "},"ó":{"ha":883,"x_min":83,"x_max":800,"o":"m 442 -18 q 256 31 336 -18 q 129 165 175 81 q 83 354 83 250 q 129 543 83 458 q 256 677 175 628 q 442 726 336 726 q 628 677 547 726 q 754 544 708 628 q 800 354 800 460 q 754 165 800 250 q 628 31 708 81 q 442 -18 547 -18 m 442 14 q 609 59 536 14 q 724 181 682 104 q 765 354 765 258 q 724 527 765 450 q 609 649 682 604 q 442 694 536 694 q 274 649 347 694 q 160 527 201 604 q 118 354 118 450 q 160 181 118 258 q 274 59 201 104 q 442 14 347 14 m 442 801 l 586 972 l 625 972 l 481 801 l 442 801 z "},"ŏ":{"ha":883,"x_min":83,"x_max":800,"o":"m 442 -18 q 256 31 336 -18 q 129 165 175 81 q 83 354 83 250 q 129 543 83 458 q 256 677 175 628 q 442 726 336 726 q 628 677 547 726 q 754 544 708 628 q 800 354 800 460 q 754 165 800 250 q 628 31 708 81 q 442 -18 547 -18 m 442 14 q 609 59 536 14 q 724 181 682 104 q 765 354 765 258 q 724 527 765 450 q 609 649 682 604 q 442 694 536 694 q 274 649 347 694 q 160 527 201 604 q 118 354 118 450 q 160 181 118 258 q 274 59 201 104 q 442 14 347 14 m 449 799 q 369 818 404 799 q 316 875 335 838 q 297 964 297 913 l 331 964 q 363 862 331 899 q 449 825 396 825 q 533 862 501 825 q 565 964 565 899 l 599 964 q 580 875 599 913 q 527 818 561 838 q 449 799 493 799 z "},"ǒ":{"ha":883,"x_min":83,"x_max":800,"o":"m 442 -18 q 256 31 336 -18 q 129 165 175 81 q 83 354 83 250 q 129 543 83 458 q 256 677 175 628 q 442 726 336 726 q 628 677 547 726 q 754 544 708 628 q 800 354 800 460 q 754 165 800 250 q 628 31 708 81 q 442 -18 547 -18 m 442 14 q 609 59 536 14 q 724 181 682 104 q 765 354 765 258 q 724 527 765 450 q 609 649 682 604 q 442 694 536 694 q 274 649 347 694 q 160 527 201 604 q 118 354 118 450 q 160 181 118 258 q 274 59 201 104 q 442 14 347 14 m 414 801 l 269 972 l 308 972 l 442 819 l 575 972 l 614 972 l 469 801 l 414 801 z "},"ô":{"ha":883,"x_min":83,"x_max":800,"o":"m 442 -18 q 256 31 336 -18 q 129 165 175 81 q 83 354 83 250 q 129 543 83 458 q 256 677 175 628 q 442 726 336 726 q 628 677 547 726 q 754 544 708 628 q 800 354 800 460 q 754 165 800 250 q 628 31 708 81 q 442 -18 547 -18 m 442 14 q 609 59 536 14 q 724 181 682 104 q 765 354 765 258 q 724 527 765 450 q 609 649 682 604 q 442 694 536 694 q 274 649 347 694 q 160 527 201 604 q 118 354 118 450 q 160 181 118 258 q 274 59 201 104 q 442 14 347 14 m 269 801 l 414 972 l 469 972 l 614 801 l 575 801 l 442 954 l 308 801 l 269 801 z "},"ố":{"ha":883,"x_min":83,"x_max":800,"o":"m 442 -18 q 256 31 336 -18 q 129 165 175 81 q 83 354 83 250 q 129 543 83 458 q 256 677 175 628 q 442 726 336 726 q 628 677 547 726 q 754 544 708 628 q 800 354 800 460 q 754 165 800 250 q 628 31 708 81 q 442 -18 547 -18 m 442 14 q 609 59 536 14 q 724 181 682 104 q 765 354 765 258 q 724 527 765 450 q 609 649 682 604 q 442 694 536 694 q 274 649 347 694 q 160 527 201 604 q 118 354 118 450 q 160 181 118 258 q 274 59 201 104 q 442 14 347 14 m 269 801 l 414 972 l 469 972 l 614 801 l 575 801 l 442 954 l 308 801 l 269 801 m 433 1051 l 578 1222 l 617 1222 l 472 1051 l 433 1051 z "},"ộ":{"ha":883,"x_min":83,"x_max":800,"o":"m 442 -18 q 256 31 336 -18 q 129 165 175 81 q 83 354 83 250 q 129 543 83 458 q 256 677 175 628 q 442 726 336 726 q 628 677 547 726 q 754 544 708 628 q 800 354 800 460 q 754 165 800 250 q 628 31 708 81 q 442 -18 547 -18 m 442 14 q 609 59 536 14 q 724 181 682 104 q 765 354 765 258 q 724 527 765 450 q 609 649 682 604 q 442 694 536 694 q 274 649 347 694 q 160 527 201 604 q 118 354 118 450 q 160 181 118 258 q 274 59 201 104 q 442 14 347 14 m 269 801 l 414 972 l 469 972 l 614 801 l 575 801 l 442 954 l 308 801 l 269 801 m 436 -201 q 411 -190 422 -201 q 400 -165 400 -179 q 411 -140 400 -150 q 436 -129 422 -129 q 462 -140 451 -129 q 472 -165 472 -150 q 462 -190 472 -179 q 436 -201 451 -201 z "},"ồ":{"ha":883,"x_min":83,"x_max":800,"o":"m 442 -18 q 256 31 336 -18 q 129 165 175 81 q 83 354 83 250 q 129 543 83 458 q 256 677 175 628 q 442 726 336 726 q 628 677 547 726 q 754 544 708 628 q 800 354 800 460 q 754 165 800 250 q 628 31 708 81 q 442 -18 547 -18 m 442 14 q 609 59 536 14 q 724 181 682 104 q 765 354 765 258 q 724 527 765 450 q 609 649 682 604 q 442 694 536 694 q 274 649 347 694 q 160 527 201 604 q 118 354 118 450 q 160 181 118 258 q 274 59 201 104 q 442 14 347 14 m 269 801 l 414 972 l 469 972 l 614 801 l 575 801 l 442 954 l 308 801 l 269 801 m 413 1051 l 268 1222 l 307 1222 l 451 1051 l 413 1051 z "},"ổ":{"ha":883,"x_min":83,"x_max":800,"o":"m 442 -18 q 256 31 336 -18 q 129 165 175 81 q 83 354 83 250 q 129 543 83 458 q 256 677 175 628 q 442 726 336 726 q 628 677 547 726 q 754 544 708 628 q 800 354 800 460 q 754 165 800 250 q 628 31 708 81 q 442 -18 547 -18 m 442 14 q 609 59 536 14 q 724 181 682 104 q 765 354 765 258 q 724 527 765 450 q 609 649 682 604 q 442 694 536 694 q 274 649 347 694 q 160 527 201 604 q 118 354 118 450 q 160 181 118 258 q 274 59 201 104 q 442 14 347 14 m 269 801 l 414 972 l 469 972 l 614 801 l 575 801 l 442 954 l 308 801 l 269 801 m 386 1038 l 386 1065 q 454 1081 417 1065 q 519 1123 492 1096 q 547 1188 547 1150 q 518 1246 546 1219 q 424 1272 490 1272 q 374 1270 397 1272 q 340 1265 350 1268 l 340 1292 q 378 1297 356 1294 q 424 1300 401 1300 q 540 1270 501 1300 q 579 1189 579 1240 q 547 1106 579 1140 q 469 1055 514 1072 q 386 1038 424 1038 z "},"ỗ":{"ha":883,"x_min":83,"x_max":800,"o":"m 442 -18 q 256 31 336 -18 q 129 165 175 81 q 83 354 83 250 q 129 543 83 458 q 256 677 175 628 q 442 726 336 726 q 628 677 547 726 q 754 544 708 628 q 800 354 800 460 q 754 165 800 250 q 628 31 708 81 q 442 -18 547 -18 m 442 14 q 609 59 536 14 q 724 181 682 104 q 765 354 765 258 q 724 527 765 450 q 609 649 682 604 q 442 694 536 694 q 274 649 347 694 q 160 527 201 604 q 118 354 118 450 q 160 181 118 258 q 274 59 201 104 q 442 14 347 14 m 269 801 l 414 972 l 469 972 l 614 801 l 575 801 l 442 954 l 308 801 l 269 801 m 544 1038 q 485 1052 508 1038 q 448 1088 463 1067 q 419 1131 433 1110 q 385 1175 404 1156 q 331 1194 365 1194 q 276 1165 300 1194 q 253 1082 253 1136 l 253 1051 l 219 1051 l 219 1082 q 254 1189 219 1153 q 331 1225 289 1225 q 405 1200 379 1225 q 449 1146 431 1175 q 486 1092 467 1117 q 544 1068 506 1068 q 600 1097 576 1068 q 624 1182 624 1126 l 624 1213 l 657 1213 l 657 1182 q 622 1074 657 1110 q 544 1038 586 1038 z "}}}
